<svg width="389" height="204" viewBox="0 0 389 204" fill="none" xmlns="http://www.w3.org/2000/svg">
<rect width="388.8" height="203.5" fill="#F5F5F5"/>
<path d="M139.226 120.875C139.226 120.875 123.94 101.826 119.707 97.9146C119.707 97.9146 112.884 100.306 106.554 97.3266C100.223 94.3469 93.5174 93.3153 93.5174 93.3153C93.5174 93.3153 112.854 114.758 116.181 121.437C116.181 121.437 120.862 125.59 126.907 124.979C132.949 124.37 139.226 120.875 139.226 120.875Z" fill="#F1F2F2" stroke="black" stroke-width="0.2" stroke-miterlimit="10"/>
<path d="M138.744 120.802C138.744 120.802 128.956 126.044 123.559 124.439C123.559 124.439 122.038 120.411 120.719 118.766C119.399 117.123 115.979 112.927 114.955 111.277C113.933 109.627 113.596 108.972 113.596 108.972L104.446 96.4122C104.446 96.4122 109.669 100.701 119.471 98.2726C119.474 98.27 137.538 118.431 138.744 120.802Z" fill="#E6E7E8"/>
<path d="M114.861 102.754C114.861 102.754 107.279 98.3175 104.319 95.4817C101.358 92.6458 94.2116 87.3452 93.3676 87.0026C92.5212 86.6626 86 80.195 86 80.195C86 80.195 87.6424 87.2001 89.2503 89.9318C90.8581 92.6609 97.551 99.2119 99.5444 101.392C101.538 103.572 111.25 114.366 114.372 119.557C114.372 119.557 115.521 120.921 116.181 121.44C116.181 121.44 113.585 117.271 113.3 115.352C113.018 113.432 113.103 107.705 113.6 105.783C114.097 103.857 114.861 102.754 114.861 102.754Z" fill="#BCBEC0" stroke="black" stroke-width="0.2" stroke-miterlimit="10"/>
<g opacity="0.5">
<path d="M229.948 109.612C229.948 109.612 241.811 108.862 247.006 109.628C252.201 110.393 251.575 109.63 253.566 110.219C255.554 110.808 257.804 111.157 259.642 109.88C261.478 108.605 262.832 106.396 263.138 105.149C263.443 103.902 264.36 100.573 265.286 99.2778C266.213 97.9826 273.886 82.5945 274.962 81.8433C276.038 81.092 265.129 86.7472 263.969 86.4615C262.808 86.1759 260.421 87.2165 260.421 87.2165C260.421 87.2165 249.944 90.3367 247.365 89.8069C247.365 89.8069 245.475 93.9153 244.501 95.4023C243.527 96.8894 238.95 100.645 238.95 100.645C238.95 100.645 231.275 107.093 229.948 109.612Z" fill="#F1F2F2" stroke="black" stroke-width="0.2" stroke-miterlimit="10"/>
<path d="M258.795 106.424C258.795 106.424 258.386 109.621 256.047 110.722C256.047 110.722 258.945 111.281 261.498 108.119C261.498 108.119 262.626 106.825 262.949 105.718C262.949 105.718 262.301 107.245 260.803 106.9C259.308 106.554 258.795 106.424 258.795 106.424Z" fill="#BCBEC0" stroke="black" stroke-width="0.2" stroke-miterlimit="10"/>
<path d="M235.362 105.073C235.362 105.073 244.225 100.837 246.442 99.2217C248.659 97.606 253.421 93.0384 254.387 92.67C255.353 92.3016 259.519 89.3423 259.519 89.3423C259.519 89.3423 262.036 88.5426 261.514 88.4144C260.992 88.2863 258.164 88.5372 257.197 88.9085C256.228 89.2775 251.282 91.3032 250.188 91.6431C249.093 91.9808 247.375 91.5621 246.857 92.5809C246.339 93.5998 243.633 96.6448 244.222 96.7204C244.811 96.796 247.73 95.893 247.73 95.893C247.73 95.893 244.469 98.1973 243.531 98.1688C242.593 98.1425 240.214 99.8444 240.214 99.8444C240.214 99.8444 233.813 105.372 235.362 105.073Z" fill="#E6E7E8"/>
<path d="M250.445 108.815C250.445 108.815 253.98 105.324 254.159 104.594C254.338 103.864 255.269 102.247 255.719 102.118C256.166 101.991 258.184 100.05 258.843 99.3156C259.503 98.581 260.169 97.3158 260.169 97.3158C260.169 97.3158 258.182 101.532 258.647 101.585C259.11 101.639 263.731 100.513 263.731 100.513C263.731 100.513 262.692 104.9 262.371 105.575C262.05 106.251 261.467 106.855 260.777 106.626C260.087 106.396 258.807 106.173 258.807 106.173C258.807 106.173 258.324 107.64 257.99 108.116C257.655 108.593 257.415 110.086 256.024 110.182C254.632 110.278 252.359 109.534 252.059 109.492C251.758 109.45 249.652 109.615 250.445 108.815Z" fill="#E6E7E8"/>
</g>
<circle cx="138.338" cy="87.962" r="7.581" stroke="#333333" stroke-width="5"/>
<path d="M124.928 105.722H155.171" stroke="#333333" stroke-width="5" stroke-linecap="round"/>
<path d="M158.05 75V108.569C158.05 117.724 153.72 117.724 147.49 117.724" stroke="#333333" stroke-width="5" stroke-linecap="round" stroke-linejoin="round"/>
<circle cx="178.893" cy="87.962" r="7.581" stroke="#333333" stroke-width="5"/>
<path d="M200.359 82.4303H205.932" stroke="#333333" stroke-width="5" stroke-linecap="round"/>
<path d="M200.359 93.576H205.932" stroke="#333333" stroke-width="5" stroke-linecap="round"/>
<path d="M199.534 75V108.569C199.534 117.724 194.765 117.724 188.973 117.724" stroke="#333333" stroke-width="5" stroke-linecap="round" stroke-linejoin="round"/>
<path d="M245.392 75V108.569C245.392 117.724 240.623 117.724 234.831 117.724" stroke="#333333" stroke-width="5" stroke-linecap="round" stroke-linejoin="round"/>
<path d="M216.285 77.962H229.04C229.944 77.8494 231.754 78.2999 231.754 81.0028C231.754 83.7058 231.754 89.7874 231.754 92.4904C231.754 97.6017 229.04 98.572 224.698 98.572" stroke="#333333" stroke-width="5" stroke-linecap="round"/>
<path d="M272.52 108.005C272.52 108.005 273.221 103.53 273.547 103.015C273.873 102.5 274.055 102.503 274.146 102.058C274.237 101.614 274.557 100.734 274.94 100.451C275.323 100.169 275.483 99.6515 275.483 99.6515C275.483 99.6515 275.727 98.968 276.427 98.4749C276.427 98.4749 276.953 97.2953 277.559 96.8567C278.166 96.4171 278.132 95.8815 278.393 95.5916C278.653 95.3016 279.282 95.0479 279.432 94.5858C279.581 94.1238 279.924 93.9177 280.184 93.7111C280.444 93.5045 281.537 92.5081 281.667 91.9162C281.798 91.3243 282.396 91.1778 282.698 90.8812C283.001 90.5848 285.14 89.1915 285.14 89.1915C285.14 89.1915 285.797 88.1416 285.997 88.1109C286.197 88.0802 286.424 87.8833 286.604 87.7199C286.784 87.5564 288.52 86.2407 288.52 86.2407C288.52 86.2407 288.888 85.6148 289.248 85.655C289.608 85.6952 289.889 84.6887 290.117 84.6197C290.344 84.5507 291.354 83.95 291.597 83.6696C291.84 83.3879 293.557 82.565 293.739 82.3811C293.922 82.1974 295.397 81.3965 295.397 81.3965C295.397 81.3965 300.443 78.9085 301.79 79.2281C303.136 79.5478 302.928 79.7496 302.928 79.7496C302.928 79.7496 303.145 79.744 303.206 80.0133C303.268 80.2826 303.44 81.1535 303.207 81.9974C302.974 82.8414 302.141 83.171 301.663 84.1878C301.185 85.2047 298.194 87.4027 297.233 88.8528C296.269 90.3027 294.942 90.8705 294.521 91.6819C294.1 92.493 291.867 94.4346 291.636 94.3945C291.405 94.3545 291.454 94.8163 290.776 95.626C290.096 96.4354 288.481 98.2896 288.169 98.6023C287.856 98.9151 285.812 100.631 285.222 101.67C284.631 102.709 281.947 105.501 281.793 105.776C281.637 106.051 281.007 106.826 280.102 107.315C279.197 107.805 274.262 108.912 274.262 108.912C274.262 108.912 272.02 109.385 272.52 108.005Z" fill="#2F2728" stroke="black" stroke-width="0.2" stroke-miterlimit="10"/>
<path d="M273.088 108.252C273.088 108.252 277.238 101.443 279.476 98.6708C281.714 95.8987 286.895 90.5867 288.873 89.1709C290.851 87.7552 299.71 80.7188 302.755 79.9553C302.755 79.9553 296.355 83.2694 290.206 88.771C290.206 88.771 285.013 92.9116 282.062 96.6737C279.111 100.436 273.088 108.252 273.088 108.252Z" fill="#262023" stroke="black" stroke-width="0.2" stroke-miterlimit="10"/>
<path d="M273.297 106.226C273.297 106.226 273.545 103.9 274.008 102.948C274.47 101.997 274.289 102.298 274.524 101.584C274.758 100.869 275.081 100.704 275.081 100.704C275.081 100.704 274.919 101.32 275.08 101.662C275.242 102.003 275.432 99.8446 275.942 99.3451C276.453 98.8442 276.568 99.3438 276.775 98.7902C276.981 98.2364 277.804 96.9984 277.685 97.4755C277.566 97.9527 277.787 98.055 278.06 97.435C278.333 96.815 278.882 95.4558 279.061 95.487C279.239 95.5179 279.733 94.0574 279.891 94.1029C280.048 94.1483 279.794 95.6141 280.056 95.273C280.318 94.932 280.281 94.6126 280.464 94.0924C280.646 93.572 281.094 93.1158 281.234 93.1581C281.374 93.2005 281.377 93.1829 281.589 92.704C281.802 92.225 282.668 91.3632 282.99 91.4189C283.311 91.4746 283.366 92.2211 283.748 91.182C284.13 90.1429 284.835 89.6951 284.835 89.6951C284.835 89.6951 285.343 89.6358 285.623 89.0769C285.904 88.5179 286.575 88.0449 286.575 88.0449C286.575 88.0449 286.715 88.0873 286.971 87.7827C287.227 87.4767 288.034 86.7519 288.034 86.7519C288.034 86.7519 288.382 86.8679 288.626 86.5236C288.869 86.1792 289.07 86.0848 289.07 86.0848C289.07 86.0848 289.269 86.2111 289.894 85.584C290.518 84.9568 290.867 84.6474 290.867 84.6474C290.867 84.6474 291.314 84.3008 291.942 83.9692C292.571 83.6375 294.639 82.1163 294.629 82.1703C294.62 82.2243 293.759 83.3638 293.706 83.8884C293.651 84.4128 293.074 84.1293 292.921 84.8021C292.769 85.475 292.254 85.1466 292.03 85.807C291.805 86.4675 290.296 87.3111 290.181 87.4385C290.067 87.5661 287.745 89.7034 287.782 89.4888C287.819 89.2742 287.497 89.4657 287.306 89.7483C287.115 90.0308 286.257 90.783 286.162 90.7024C286.064 90.6229 285.447 91.542 285.39 91.6905C285.332 91.839 284.379 92.889 284.178 92.8541C283.977 92.8192 283.669 92.9618 283.523 93.3439C283.378 93.726 281.533 95.4429 281.533 95.4429C281.533 95.4429 280.066 97.5257 280.131 97.2367C280.197 96.9477 279.488 97.5824 279.437 97.7794C279.387 97.9766 277.811 100.324 277.538 100.261C277.265 100.199 276.166 102.345 276.166 102.345C276.166 102.345 274.771 105.104 274.421 105.217C274.066 105.328 273.297 106.226 273.297 106.226Z" fill="#3E373B"/>
<path d="M275.528 107.857C275.528 107.857 279.57 107.144 280.823 105.924C282.076 104.702 279.608 106.21 279.319 106.16C279.031 106.109 281.802 105.002 282.869 103.849C283.937 102.695 285.842 100.719 285.133 101.092C284.423 101.465 286.336 100.012 286.759 99.2913C287.181 98.5707 290.097 95.6297 290.427 95.0168C290.757 94.4039 285.628 97.2349 285.102 97.2674C284.577 97.3 285.955 97.7879 285.955 97.7879C285.955 97.7879 283.691 98.4617 283.057 99.2944C282.423 100.127 280.141 102.707 279.333 103.509C278.524 104.311 277.652 105.623 277.384 106.023C277.117 106.423 275.528 107.857 275.528 107.857Z" fill="#3E373B"/>
<path d="M275.082 105.43C275.082 105.43 278.879 100.035 279.367 99.4078C279.855 98.7806 282.953 94.8605 283.613 94.2477C284.272 93.635 287.975 90.0561 288.724 89.4755C289.473 88.8935 292.221 86.8106 292.221 86.8106C292.221 86.8106 285.858 92.3306 284.977 93.2205C284.095 94.1104 281.334 97.3632 281.334 97.3632L276.521 103.609L275.082 105.43Z" fill="#7E7679"/>
<path d="M276.259 103.244C276.259 103.244 274.682 104.194 274.445 104.559C274.208 104.924 274.33 105.147 273.878 105.615C273.426 106.083 272.501 106.163 272.223 106.593C271.946 107.023 271.524 108.789 271.524 108.789C271.524 108.789 270.914 110.886 270.537 111.473C270.16 112.059 269.253 112.279 269.026 113.007C268.798 113.735 269.088 113.728 268.433 114.497C267.778 115.268 265.534 118.602 265.534 118.602C265.534 118.602 264.631 119.88 264.738 120.188C264.844 120.496 265.433 121.279 266.051 121.052C266.67 120.826 270.003 114.503 270.003 114.503C270.003 114.503 270.486 114.236 270.882 113.211C271.279 112.185 271.443 112.038 271.882 111.567C272.321 111.095 274.335 109.519 274.572 108.378C274.809 107.237 274.734 106.236 275.242 105.864C275.75 105.492 276.259 103.244 276.259 103.244Z" fill="#A2999C" stroke="black" stroke-width="0.2" stroke-miterlimit="10"/>
<path d="M265.033 120.467C265.033 120.467 263.886 122.03 263.6 122.434C263.315 122.837 262.928 124.316 262.928 124.316C262.928 124.316 263.191 123.735 264 123.119C264.809 122.503 265.036 122.499 265.231 122.003C265.425 121.507 265.569 120.798 265.569 120.798C265.569 120.798 265.229 120.393 265.033 120.467Z" fill="#A2999C" stroke="black" stroke-width="0.2" stroke-miterlimit="10"/>
<path d="M265.312 120.908C265.312 120.908 264.518 121.945 264.411 122.25C264.304 122.556 264.029 122.951 264.029 122.951C264.029 122.951 265.006 122.419 265.134 121.934C265.262 121.447 265.649 120.58 265.312 120.908Z" fill="#D7D3D3"/>
<path d="M265.12 120.58C265.12 120.58 264.011 122.117 263.624 122.601C263.237 123.084 263.914 122.737 263.829 122.917C263.745 123.097 263.12 123.831 263.12 123.831C263.12 123.831 263.363 122.625 263.87 122.162C263.87 122.162 264.944 120.531 265.12 120.58Z" fill="#767173"/>
<path d="M264.877 119.933C264.877 119.933 264.818 120.274 264.922 120.335C265.027 120.397 265.081 120.127 265.255 120.157C265.429 120.187 265.608 120.268 265.65 120.341C265.692 120.412 265.629 120.603 265.702 120.644C265.774 120.686 266.048 120.557 266.037 120.74C266.026 120.923 266.149 120.958 266.156 120.839C266.163 120.717 265.98 120.391 265.678 120.181C265.375 119.972 265.017 119.677 264.877 119.933Z" fill="#D7D3D3"/>
<path d="M265.868 120.168C265.868 120.168 266.289 120.548 266.263 120.694C266.238 120.84 266.904 119.883 267.136 119.293C267.368 118.704 269.569 114.828 269.569 114.828C269.569 114.828 265.7 119.787 265.868 120.168Z" fill="#D7D3D3"/>
<path d="M264.911 119.733C264.911 119.733 265.336 119.758 265.509 119.912C265.681 120.065 265.607 119.41 265.921 118.943C266.236 118.476 269.225 114.177 269.225 114.177C269.225 114.177 269.456 114.057 269.607 113.468C269.758 112.878 270.035 112.421 270.119 112.361C270.203 112.302 269.889 112.05 269.604 112.419C269.318 112.788 269.147 112.919 269.081 113.301C269.015 113.685 268.846 114.234 268.467 114.71C268.088 115.187 265.331 119.083 265.331 119.083C265.331 119.083 265.211 119.214 264.911 119.733Z" fill="#767173"/>
<path d="M270.681 111.947C270.681 111.947 271.363 111.273 271.8 110.86C272.237 110.448 274.296 108.768 274.407 108.48C274.518 108.192 274.626 108.45 274.147 109.143C273.668 109.836 271.978 111.468 271.978 111.468C271.978 111.468 271.577 111.77 271.349 112.099C271.122 112.427 270.822 112.967 270.822 112.967C270.822 112.967 270.11 113.146 270.681 111.947Z" fill="#D7D3D3"/>
<path d="M270.772 111.467C270.772 111.467 271.661 108.375 271.927 107.715C272.193 107.055 272.349 106.298 273.135 106.282C273.92 106.267 274.439 105.319 274.439 105.319C274.439 105.319 274.501 104.674 274.763 104.468C275.027 104.261 275.73 103.777 275.73 103.777C275.73 103.777 275.339 105.144 275.082 105.43C274.825 105.716 274.199 106.549 274.118 106.917C274.036 107.285 274.258 107.968 273.992 108.339C273.726 108.71 270.561 112.191 270.772 111.467Z" fill="#767173"/>
<path d="M287.063 92.4143C287.063 92.4143 297.778 82.1391 302.213 80.6517C302.213 80.6517 301.192 81.0851 301.904 81.2084C302.614 81.3316 302.963 81.4228 302.963 81.4228C302.963 81.4228 300.589 81.9259 301.053 82.0674C301.516 82.209 302.334 82.3815 302.334 82.3815C302.334 82.3815 300.271 82.3587 300.159 82.8273C300.047 83.2959 298.968 84.4198 298.306 84.5483C297.644 84.6768 293.233 87.7839 294.424 87.5942C295.615 87.4046 296.815 87.3388 296.815 87.3388C296.815 87.3388 293.858 88.0452 293.071 88.8848C292.286 89.7247 290.107 91.3891 289.671 91.6179C289.235 91.8455 287.063 92.4143 287.063 92.4143Z" fill="#3E373B"/>
<path opacity="0.2" d="M203.132 125.228C202.344 125.188 201.758 125.139 201.427 125.079C201.427 125.079 202.08 125.137 203.132 125.228C209.465 125.55 228.843 125.272 233.931 125.024C241.937 124.634 246.274 125.309 252.436 124.777C257.442 124.346 261.611 124.236 262.941 124.421C257.921 125.853 246.123 125.691 240.923 125.62L240.923 125.62C234.424 125.531 223.911 126.387 217.911 126.305C215.403 126.27 206.82 125.548 203.132 125.228Z" fill="#2F2728"/>
</svg>
