<?xml version="1.0" encoding="utf-8"?>
<!-- Generator: Adobe Illustrator 22.1.0, SVG Export Plug-In . SVG Version: 6.00 Build 0)  -->
<svg version="1.1" xmlns="http://www.w3.org/2000/svg" xmlns:xlink="http://www.w3.org/1999/xlink" x="0px" y="0px"
	 viewBox="0 0 388.8 203.5" style="enable-background:new 0 0 388.8 203.5;" xml:space="preserve">
<style type="text/css">
	.st0{fill:#242628;}
	.st1{fill:none;}
	.st2{fill:#FAFAFA;}
	.st3{fill:#FFFFFF;}
	.st4{clip-path:url(#SVGID_2_);}
	.st5{clip-path:url(#SVGID_4_);fill:#EBEBEB;}
	.st6{clip-path:url(#SVGID_6_);}
	.st7{clip-path:url(#SVGID_8_);fill:#F5F5F5;}
	.st8{clip-path:url(#SVGID_10_);}
	.st9{clip-path:url(#SVGID_12_);fill:#F5F5F5;}
	.st10{clip-path:url(#SVGID_14_);}
	.st11{clip-path:url(#SVGID_16_);fill:#F5F5F5;}
	.st12{clip-path:url(#SVGID_18_);}
	.st13{clip-path:url(#SVGID_20_);fill:#F5F5F5;}
	.st14{clip-path:url(#SVGID_22_);}
	.st15{clip-path:url(#SVGID_24_);fill:#F5F5F5;}
	.st16{clip-path:url(#SVGID_26_);}
	.st17{clip-path:url(#SVGID_28_);enable-background:new    ;}
	.st18{clip-path:url(#SVGID_30_);}
	.st19{clip-path:url(#SVGID_32_);fill:#573F35;}
	.st20{opacity:9.750000e-02;clip-path:url(#SVGID_34_);enable-background:new    ;}
	.st21{clip-path:url(#SVGID_36_);}
	.st22{clip-path:url(#SVGID_38_);}
	.st23{clip-path:url(#SVGID_42_);}
	.st24{clip-path:url(#SVGID_44_);fill:#C0ABA2;}
	.st25{clip-path:url(#SVGID_46_);}
	.st26{clip-path:url(#SVGID_48_);enable-background:new    ;}
	.st27{clip-path:url(#SVGID_50_);}
	.st28{clip-path:url(#SVGID_52_);fill:#573F35;}
	.st29{opacity:9.750000e-02;clip-path:url(#SVGID_54_);enable-background:new    ;}
	.st30{clip-path:url(#SVGID_56_);}
	.st31{clip-path:url(#SVGID_58_);}
	.st32{clip-path:url(#SVGID_62_);}
	.st33{clip-path:url(#SVGID_64_);fill:#C0ABA2;}
	.st34{fill:#004598;}
	.st35{fill:#63AA98;}
	.st36{fill:#FFFFFF;stroke:#333333;stroke-width:0.5817;stroke-miterlimit:10;}
	.st37{fill:none;stroke:#333333;stroke-width:1.1769;stroke-linecap:round;stroke-linejoin:round;stroke-miterlimit:10;}
	.st38{fill:none;stroke:#333333;stroke-width:0.7078;stroke-linecap:round;stroke-linejoin:round;}
	.st39{fill:none;stroke:#333333;stroke-width:0.3539;stroke-linecap:round;stroke-linejoin:round;stroke-miterlimit:10;}
	.st40{fill:none;stroke:#333333;stroke-width:0.7078;stroke-linecap:round;stroke-linejoin:round;stroke-miterlimit:10;}
	.st41{fill:none;stroke:#333333;stroke-width:0.177;stroke-linecap:round;stroke-linejoin:round;stroke-miterlimit:10;}
	.st42{fill:none;stroke:#333333;stroke-width:0.2574;stroke-linecap:round;stroke-linejoin:round;stroke-miterlimit:10;}
	.st43{fill:#333333;}
	
		.st44{clip-path:url(#SVGID_66_);fill:none;stroke:#333333;stroke-width:0.2584;stroke-linecap:round;stroke-linejoin:round;stroke-miterlimit:10;}
	
		.st45{clip-path:url(#SVGID_68_);fill:none;stroke:#333333;stroke-width:0.2584;stroke-linecap:round;stroke-linejoin:round;stroke-miterlimit:10;}
	.st46{fill:#1A4698;}
	.st47{clip-path:url(#SVGID_70_);}
	.st48{clip-path:url(#SVGID_72_);enable-background:new    ;}
	.st49{clip-path:url(#SVGID_74_);}
	.st50{clip-path:url(#SVGID_76_);fill:#EADCD7;}
	.st51{opacity:9.750000e-02;clip-path:url(#SVGID_78_);enable-background:new    ;}
	.st52{clip-path:url(#SVGID_80_);}
	.st53{clip-path:url(#SVGID_82_);}
	.st54{clip-path:url(#SVGID_86_);}
	.st55{clip-path:url(#SVGID_88_);fill:#957C71;}
	.st56{fill:#F5F5F5;}
	.st57{fill:#FF5058;}
	.st58{fill:#76D0D1;}
	.st59{fill:#1AA6C8;}
	.st60{fill:#F7CF6B;}
	.st61{fill:#DC3A65;}
	.st62{fill:#189358;}
	.st63{fill:#DD3B65;}
	.st64{fill:#FFFFFF;stroke:#000000;stroke-width:0.5226;stroke-miterlimit:10;}
	.st65{fill:#1A1A1A;}
	.st66{fill:#560B01;}
	.st67{fill:#6A0B08;}
	.st68{fill:#366D59;}
	.st69{fill:#284763;}
	.st70{fill:#EEECE9;}
	.st71{fill:#958E8B;}
	.st72{fill:#161113;}
	.st73{fill:#1D1619;}
	.st74{fill:#E6AA54;}
	.st75{fill:#FE8A29;}
	.st76{fill:#4D7465;}
	.st77{fill:#A6DDDB;}
	.st78{fill:#55AED0;}
	.st79{fill:none;stroke:#333333;stroke-width:1.8612;stroke-linecap:round;stroke-linejoin:round;stroke-miterlimit:10;}
	.st80{fill:#FFFFFF;stroke:#333333;stroke-width:2;stroke-miterlimit:10;}
	.st81{fill:none;stroke:#333333;stroke-width:0.5597;stroke-linecap:round;stroke-linejoin:round;stroke-miterlimit:10;}
	.st82{fill:none;stroke:#333333;stroke-width:1.1194;stroke-linecap:round;stroke-linejoin:round;stroke-miterlimit:10;}
	.st83{fill:none;stroke:#333333;stroke-width:0.4071;stroke-linecap:round;stroke-linejoin:round;stroke-miterlimit:10;}
	
		.st84{clip-path:url(#SVGID_96_);fill:none;stroke:#333333;stroke-width:0.4087;stroke-linecap:round;stroke-linejoin:round;stroke-miterlimit:10;}
	
		.st85{clip-path:url(#SVGID_98_);fill:none;stroke:#333333;stroke-width:0.4087;stroke-linecap:round;stroke-linejoin:round;stroke-miterlimit:10;}
	.st86{fill:#242628;stroke:#333333;stroke-linecap:round;stroke-miterlimit:10;}
	.st87{fill:#76D0D1;stroke:#FAFAFA;stroke-width:7;stroke-miterlimit:10;}
	.st88{fill:#F70000;}
	.st89{opacity:0.8;}
	.st90{fill:#957C71;}
	.st91{fill:#EB6B36;}
	.st92{fill:#EC9369;}
	.st93{fill:#4F7645;}
	.st94{fill:#AD8454;}
	.st95{fill:#7E5426;}
	.st96{fill:#FFFFFF;stroke:#000000;stroke-width:0.5531;stroke-miterlimit:10;}
	.st97{fill:#CE3556;}
	.st98{fill:#4FA9BB;}
	.st99{fill:#F1BD5A;}
	.st100{clip-path:url(#SVGID_102_);}
	.st101{clip-path:url(#SVGID_104_);}
	.st102{clip-path:url(#SVGID_106_);fill:#957C71;}
	.st103{clip-path:url(#SVGID_102_);fill:#957C71;}
	.st104{clip-path:url(#SVGID_108_);}
	.st105{clip-path:url(#SVGID_110_);}
	.st106{clip-path:url(#SVGID_112_);fill:#603F33;}
	.st107{clip-path:url(#SVGID_108_);fill:#603F33;}
	.st108{fill:#EA5D4E;}
	.st109{fill:#F9918A;}
	.st110{fill:#020202;}
	.st111{fill:#DB9B2C;}
	.st112{fill:#E5BB53;}
	.st113{fill:#F4D983;}
	.st114{fill:#E9BE5D;}
	.st115{clip-path:url(#SVGID_114_);}
	.st116{clip-path:url(#SVGID_116_);}
	.st117{clip-path:url(#SVGID_118_);}
	.st118{clip-path:url(#SVGID_120_);enable-background:new    ;}
	.st119{clip-path:url(#SVGID_122_);}
	.st120{clip-path:url(#SVGID_124_);fill:#EADCD7;}
	.st121{opacity:9.750000e-02;clip-path:url(#SVGID_126_);enable-background:new    ;}
	.st122{clip-path:url(#SVGID_128_);}
	.st123{clip-path:url(#SVGID_130_);}
	.st124{clip-path:url(#SVGID_134_);}
	.st125{clip-path:url(#SVGID_136_);fill:#957C71;}
</style>
<g id="레이어_2">
	<rect class="st56" width="388.8" height="203.5"/>
	<g>
		<path class="st57" d="M101.7,87.3L81.3,75.5c-0.9-0.5-2.3-0.5-3.2,0L57.8,87.3c-0.9,0.5-1.5,1.7-1.5,2.7v23.5c0,1,0.6,2.2,1.5,2.7
			L78.1,128c0.9,0.5,2.3,0.5,3.1,0l20.5-11.8c0.9-0.5,1.7-1.7,1.7-2.7V90C103.4,89,102.6,87.8,101.7,87.3z M89.7,101.1L75.4,117
			c-0.2,0.2-0.4,0.3-0.6,0.3c-0.1,0-0.3,0-0.4-0.1c-0.3-0.2-0.5-0.6-0.4-0.9l3.2-10.1h-5.7c-0.2,0-0.5-0.1-0.6-0.3
			c-0.2-0.2-0.2-0.4-0.1-0.7l4.4-16c0.1-0.3,0.4-0.7,0.8-0.7h10.3c0.3,0,0.5,0.2,0.7,0.5c0.1,0.2,0.2,0.5,0.1,0.8l-4.3,10.1h6.3
			c0.3,0,0.6,0.2,0.7,0.5C90,100.6,89.9,100.9,89.7,101.1z"/>
		<polygon class="st57" points="292.5,105.6 279,87 272.5,87 272.5,116.2 279,114.9 279,97.4 292.7,116.1 298.7,116.1 298.7,87 
			292.5,87 		"/>
		<path class="st57" d="M136.4,101.4c2.7-0.6,5-3,5-6.7c0-3.9-2.8-7.4-8.4-7.4h-15.3v29.1h15.8c5.6,0,8.5-3.5,8.5-7.9
			C142,104.9,139.6,101.9,136.4,101.4z M124,92.8h7.8c2.1,0,3.4,1.3,3.4,3c0,1.9-1.3,3-3.4,3H124V92.8z M132,110.9h-8v-6.6h8
			c2.4,0,3.7,1.5,3.7,3.3C135.7,109.7,134.3,110.9,132,110.9z"/>
		<path class="st57" d="M168.4,104.6c0,4.1-2.3,6.8-6.8,6.8c-4.5,0-6.8-2.8-6.8-6.8V87.3h-6.3v17.4c0,7.2,4.3,12.2,13.1,12.2
			c8.8,0,13.1-5,13.1-12.2V87.3h-6.3V104.6z"/>
		<path class="st57" d="M226.3,106.8c0,2.8-1.8,4.7-4.8,4.7c-2.2,0-3.7-1-5-2.1l-2.9,4.7c2.3,2,5.3,2.9,8.5,2.9
			c6.4,0,11.1-3.2,11.1-10.1V87h-6.9V106.8z"/>
		<path class="st57" d="M248.6,87.3l-11.2,29.1h7l1.8-4.9h12.5l1.8,4.9h7l-11.2-29.1H248.6z M248,106l4.5-12.5L257,106H248z"/>
		<path class="st57" d="M318.7,100.3v5.4h7.7v3.5c-1.2,1.1-3.6,2.2-6.1,2.2c-5.3,0-9.1-4.1-9.1-9.5c0-5.5,3.8-9.5,9.1-9.5
			c3,0,5.5,1.7,6.9,3.8l5.1-2.8c-2.2-3.4-6-6.5-12-6.5c-8.5,0-15.5,5.8-15.5,15c0,9.1,7,15,15.5,15c5.2,0,9.4-2.1,12.3-5.4v-11.2
			H318.7z"/>
		<polygon class="st57" points="202.2,105.6 188.7,87 182.1,87 182.1,116.2 188.7,114.9 188.7,97.4 202.4,116.1 208.4,116.1 
			208.4,87 202.2,87 		"/>
	</g>
</g>
<g id="레이어_1">
</g>
</svg>
