<?xml version="1.0" encoding="utf-8"?>
<!-- Generator: Adobe Illustrator 22.1.0, SVG Export Plug-In . SVG Version: 6.00 Build 0)  -->
<svg version="1.1" xmlns="http://www.w3.org/2000/svg" xmlns:xlink="http://www.w3.org/1999/xlink" x="0px" y="0px"
	 viewBox="0 0 388.8 203.5" style="enable-background:new 0 0 388.8 203.5;" xml:space="preserve">
<style type="text/css">
	.st0{fill:#242628;}
	.st1{fill:none;}
	.st2{fill:#FAFAFA;}
	.st3{fill:#FFFFFF;}
	.st4{clip-path:url(#SVGID_2_);}
	.st5{clip-path:url(#SVGID_4_);fill:#EBEBEB;}
	.st6{clip-path:url(#SVGID_6_);}
	.st7{clip-path:url(#SVGID_8_);fill:#F5F5F5;}
	.st8{clip-path:url(#SVGID_10_);}
	.st9{clip-path:url(#SVGID_12_);fill:#F5F5F5;}
	.st10{clip-path:url(#SVGID_14_);}
	.st11{clip-path:url(#SVGID_16_);fill:#F5F5F5;}
	.st12{clip-path:url(#SVGID_18_);}
	.st13{clip-path:url(#SVGID_20_);fill:#F5F5F5;}
	.st14{clip-path:url(#SVGID_22_);}
	.st15{clip-path:url(#SVGID_24_);fill:#F5F5F5;}
	.st16{clip-path:url(#SVGID_26_);}
	.st17{clip-path:url(#SVGID_28_);enable-background:new    ;}
	.st18{clip-path:url(#SVGID_30_);}
	.st19{clip-path:url(#SVGID_32_);fill:#573F35;}
	.st20{opacity:9.750000e-02;clip-path:url(#SVGID_34_);enable-background:new    ;}
	.st21{clip-path:url(#SVGID_36_);}
	.st22{clip-path:url(#SVGID_38_);}
	.st23{clip-path:url(#SVGID_42_);}
	.st24{clip-path:url(#SVGID_44_);fill:#C0ABA2;}
	.st25{clip-path:url(#SVGID_46_);}
	.st26{clip-path:url(#SVGID_48_);enable-background:new    ;}
	.st27{clip-path:url(#SVGID_50_);}
	.st28{clip-path:url(#SVGID_52_);fill:#573F35;}
	.st29{opacity:9.750000e-02;clip-path:url(#SVGID_54_);enable-background:new    ;}
	.st30{clip-path:url(#SVGID_56_);}
	.st31{clip-path:url(#SVGID_58_);}
	.st32{clip-path:url(#SVGID_62_);}
	.st33{clip-path:url(#SVGID_64_);fill:#C0ABA2;}
	.st34{fill:#004598;}
	.st35{fill:#63AA98;}
	.st36{fill:#FFFFFF;stroke:#333333;stroke-width:0.5817;stroke-miterlimit:10;}
	.st37{fill:none;stroke:#333333;stroke-width:1.1769;stroke-linecap:round;stroke-linejoin:round;stroke-miterlimit:10;}
	.st38{fill:none;stroke:#333333;stroke-width:0.7078;stroke-linecap:round;stroke-linejoin:round;}
	.st39{fill:none;stroke:#333333;stroke-width:0.3539;stroke-linecap:round;stroke-linejoin:round;stroke-miterlimit:10;}
	.st40{fill:none;stroke:#333333;stroke-width:0.7078;stroke-linecap:round;stroke-linejoin:round;stroke-miterlimit:10;}
	.st41{fill:none;stroke:#333333;stroke-width:0.177;stroke-linecap:round;stroke-linejoin:round;stroke-miterlimit:10;}
	.st42{fill:none;stroke:#333333;stroke-width:0.2574;stroke-linecap:round;stroke-linejoin:round;stroke-miterlimit:10;}
	.st43{fill:#333333;}
	
		.st44{clip-path:url(#SVGID_66_);fill:none;stroke:#333333;stroke-width:0.2584;stroke-linecap:round;stroke-linejoin:round;stroke-miterlimit:10;}
	
		.st45{clip-path:url(#SVGID_68_);fill:none;stroke:#333333;stroke-width:0.2584;stroke-linecap:round;stroke-linejoin:round;stroke-miterlimit:10;}
	.st46{fill:#1A4698;}
	.st47{clip-path:url(#SVGID_70_);}
	.st48{clip-path:url(#SVGID_72_);enable-background:new    ;}
	.st49{clip-path:url(#SVGID_74_);}
	.st50{clip-path:url(#SVGID_76_);fill:#EADCD7;}
	.st51{opacity:9.750000e-02;clip-path:url(#SVGID_78_);enable-background:new    ;}
	.st52{clip-path:url(#SVGID_80_);}
	.st53{clip-path:url(#SVGID_82_);}
	.st54{clip-path:url(#SVGID_86_);}
	.st55{clip-path:url(#SVGID_88_);fill:#957C71;}
	.st56{fill:#F5F5F5;}
	.st57{fill:#FF5058;}
	.st58{clip-path:url(#SVGID_90_);fill:#5B82FF;}
	.st59{opacity:0.75;clip-path:url(#SVGID_90_);fill-rule:evenodd;clip-rule:evenodd;fill:#2459FF;}
	.st60{clip-path:url(#SVGID_90_);fill:#3B68F7;}
	.st61{clip-path:url(#SVGID_92_);}
	.st62{clip-path:url(#SVGID_94_);}
	.st63{clip-path:url(#SVGID_96_);fill:#957C71;}
	.st64{clip-path:url(#SVGID_92_);fill:#957C71;}
	.st65{clip-path:url(#SVGID_98_);}
	.st66{clip-path:url(#SVGID_100_);}
	.st67{clip-path:url(#SVGID_102_);fill:#603F33;}
	.st68{clip-path:url(#SVGID_98_);fill:#603F33;}
	.st69{fill:#EB6B36;}
	.st70{fill:#EC9369;}
	.st71{fill:#4F7645;}
	.st72{fill:#957C71;}
	.st73{fill:#EA5D4E;}
	.st74{fill:#F9918A;}
	.st75{fill:#020202;}
	.st76{fill:#AD8454;}
	.st77{fill:#7E5426;}
	.st78{fill:#DB9B2C;}
	.st79{fill:#E5BB53;}
	.st80{fill:#F4D983;}
	.st81{fill:#E9BE5D;}
	.st82{clip-path:url(#SVGID_104_);}
	.st83{clip-path:url(#SVGID_106_);}
	.st84{clip-path:url(#SVGID_108_);}
	.st85{clip-path:url(#SVGID_110_);enable-background:new    ;}
	.st86{clip-path:url(#SVGID_112_);}
	.st87{clip-path:url(#SVGID_114_);fill:#EADCD7;}
	.st88{opacity:9.750000e-02;clip-path:url(#SVGID_116_);enable-background:new    ;}
	.st89{clip-path:url(#SVGID_118_);}
	.st90{clip-path:url(#SVGID_120_);}
	.st91{clip-path:url(#SVGID_124_);}
	.st92{clip-path:url(#SVGID_126_);fill:#957C71;}
	.st93{fill:#1AA6C8;}
	.st94{fill:#F7CF6B;}
	.st95{fill:#DC3A65;}
	.st96{fill:#189358;}
	.st97{fill:#DD3B65;}
	.st98{fill:#FFFFFF;stroke:#000000;stroke-width:0.5226;stroke-miterlimit:10;}
	.st99{fill:#1A1A1A;}
	.st100{fill:#560B01;}
	.st101{fill:#6A0B08;}
	.st102{fill:#366D59;}
	.st103{fill:#284763;}
	.st104{fill:#EEECE9;}
	.st105{fill:#958E8B;}
	.st106{fill:#161113;}
	.st107{fill:#1D1619;}
	.st108{fill:#E6AA54;}
	.st109{fill:#FE8A29;}
	.st110{fill:#4D7465;}
	.st111{fill:#A6DDDB;}
	.st112{fill:#55AED0;}
	.st113{fill:none;stroke:#333333;stroke-width:1.8612;stroke-linecap:round;stroke-linejoin:round;stroke-miterlimit:10;}
	.st114{fill:#FFFFFF;stroke:#333333;stroke-width:2;stroke-miterlimit:10;}
	.st115{fill:none;stroke:#333333;stroke-width:0.5597;stroke-linecap:round;stroke-linejoin:round;stroke-miterlimit:10;}
	.st116{fill:none;stroke:#333333;stroke-width:1.1194;stroke-linecap:round;stroke-linejoin:round;stroke-miterlimit:10;}
	.st117{fill:none;stroke:#333333;stroke-width:0.4071;stroke-linecap:round;stroke-linejoin:round;stroke-miterlimit:10;}
	
		.st118{clip-path:url(#SVGID_132_);fill:none;stroke:#333333;stroke-width:0.4087;stroke-linecap:round;stroke-linejoin:round;stroke-miterlimit:10;}
	
		.st119{clip-path:url(#SVGID_134_);fill:none;stroke:#333333;stroke-width:0.4087;stroke-linecap:round;stroke-linejoin:round;stroke-miterlimit:10;}
	.st120{fill:#242628;stroke:#333333;stroke-linecap:round;stroke-miterlimit:10;}
	.st121{fill:#76D0D1;stroke:#FAFAFA;stroke-width:7;stroke-miterlimit:10;}
	.st122{fill:#F70000;}
	.st123{fill:#E5E5E5;}
	.st124{fill:#FFFFFF;stroke:#000000;stroke-width:0.5531;stroke-miterlimit:10;}
	.st125{fill:#CE3556;}
	.st126{fill:#4FA9BB;}
	.st127{fill:#F1BD5A;}
	.st128{clip-path:url(#SVGID_138_);}
	.st129{clip-path:url(#SVGID_140_);}
	.st130{clip-path:url(#SVGID_142_);fill:#957C71;}
	.st131{clip-path:url(#SVGID_138_);fill:#957C71;}
	.st132{clip-path:url(#SVGID_144_);}
	.st133{clip-path:url(#SVGID_146_);}
	.st134{clip-path:url(#SVGID_148_);fill:#603F33;}
	.st135{clip-path:url(#SVGID_144_);fill:#603F33;}
	.st136{clip-path:url(#SVGID_150_);}
	.st137{clip-path:url(#SVGID_152_);}
	.st138{clip-path:url(#SVGID_154_);}
	.st139{clip-path:url(#SVGID_156_);enable-background:new    ;}
	.st140{clip-path:url(#SVGID_158_);}
	.st141{clip-path:url(#SVGID_160_);fill:#EADCD7;}
	.st142{opacity:9.750000e-02;clip-path:url(#SVGID_162_);enable-background:new    ;}
	.st143{clip-path:url(#SVGID_164_);}
	.st144{clip-path:url(#SVGID_166_);}
	.st145{clip-path:url(#SVGID_170_);}
	.st146{clip-path:url(#SVGID_172_);fill:#957C71;}
</style>
<g id="레이어_2">
	<rect x="2.4" y="-7.6" class="st56" width="388.8" height="218.7"/>
</g>
<g id="레이어_1">
	<g>
		<g>
			<g>
				<g>
					<g>
						<path class="st43" d="M115.5,82.6H109l-3.1-17.1l-1.4-9.5h5.1l2.7,20.9l2.7-20.9h5.1l-1.4,9.6L115.5,82.6z"/>
						<path class="st43" d="M122.7,56h5v26.6h-5V56z"/>
						<path class="st43" d="M131.7,56h6.6c4.1,0,6.1,1.9,6.1,5.8v3.9c0,2.4-1.1,4-3.3,4.7l4.9,12.3h-5.5L137,71.2h-0.3v11.5h-5V56z
							 M136.7,60.2v6.9h0.6c0.5,0,0.9,0,1.1-0.1c0.6-0.2,1-0.7,1-1.4v-3.9c0-1-0.5-1.5-1.5-1.5H136.7z"/>
						<path class="st43" d="M159.5,56v4.2h-4v22.4h-5V60.2h-4V56H159.5z"/>
						<path class="st43" d="M175.1,77.3c0,3.8-2.2,5.8-6.5,5.8c-4.3,0-6.5-1.9-6.5-5.8V56h5v21.3c0,1,0.5,1.5,1.5,1.5
							c1,0,1.5-0.5,1.5-1.5V56h5V77.3z"/>
						<path class="st43" d="M191.6,73.1l1.4,9.6H188l-0.8-5.5h-3.7l-0.8,5.5h-5.1l1.4-9.5L182,56h6.5L191.6,73.1z M186.5,72.8
							l-1.2-8.1l-1.2,8.1H186.5z"/>
						<path class="st43" d="M195.6,82.6V56h5v22.4h6.8v4.2H195.6z"/>
					</g>
					<g>
						<path class="st43" d="M105.9,92.1h6.6c4.1,0,6.1,1.9,6.1,5.8v3.9c0,2.4-1.1,4-3.3,4.7l4.9,12.3h-5.5l-3.4-11.5h-0.3v11.5h-5
							V92.1z M110.9,96.4v6.9h0.6c0.5,0,0.9,0,1.1-0.1c0.6-0.2,1-0.7,1-1.4v-3.9c0-1-0.5-1.5-1.5-1.5H110.9z"/>
						<path class="st43" d="M121.7,92.1h11.9v4.2h-6.8v6.9h5.9v4.3h-5.9v6.9h6.8v4.2h-11.9V92.1z"/>
						<path class="st43" d="M149.5,109.2l1.4,9.6h-5.1l-0.8-5.5h-3.7l-0.8,5.5h-5.1l1.4-9.5l3.1-17.1h6.5L149.5,109.2z M144.3,109
							l-1.2-8.1l-1.2,8.1H144.3z"/>
						<path class="st43" d="M153.5,118.8V92.1h5v22.4h6.8v4.2H153.5z"/>
						<path class="st43" d="M168,92.1h5v26.6h-5V92.1z"/>
						<path class="st43" d="M188.9,92.1v4.2h-4v22.4h-5V96.4h-4v-4.2H188.9z"/>
						<path class="st43" d="M195.5,92.1l2.6,10.3l2.6-10.3h5.3l-5.3,15.2l-0.1,0.3v11.2h-5v-11.2l-0.1-0.3l-5.3-15.2H195.5z"/>
					</g>
				</g>
			</g>
			<g>
				<g>
					<path class="st43" d="M104.5,127.6h6.4c3.9,0,5.9,1.9,5.9,5.6v3.8c0,2.3-1.1,3.9-3.2,4.5l4.7,11.9H113l-3.3-11.1h-0.3v11.1
						h-4.9V127.6z M109.4,131.7v6.7h0.6c0.5,0,0.9,0,1-0.1c0.6-0.2,0.9-0.7,0.9-1.4v-3.8c0-1-0.5-1.5-1.4-1.5H109.4z"/>
					<path class="st43" d="M119.8,127.6h11.5v4.1h-6.6v6.7h5.7v4.1h-5.7v6.7h6.6v4.1h-11.5V127.6z"/>
					<path class="st43" d="M134.4,127.6h6.4c3.9,0,5.9,1.9,5.9,5.6v3.8c0,2.7-1.4,4.5-4.2,5.3c-0.7,0.2-1.6,0.3-2.9,0.3h-0.3v10.9
						h-4.9V127.6z M139.3,131.7v6.7h0.6c0.5,0,0.9,0,1-0.1c0.6-0.2,0.9-0.7,0.9-1.4v-3.8c0-1-0.5-1.5-1.4-1.5H139.3z"/>
					<path class="st43" d="M162.2,148.3c0,3.7-2.1,5.6-6.3,5.6c-4.2,0-6.3-1.9-6.3-5.6v-15.5c0-3.7,2.1-5.6,6.3-5.6
						c4.2,0,6.3,1.9,6.3,5.6V148.3z M157.3,132.8c0-1-0.5-1.5-1.4-1.5h0c-0.9,0-1.4,0.5-1.4,1.5v15.5c0,1,0.5,1.5,1.4,1.5
						c1,0,1.5-0.5,1.5-1.5V132.8z"/>
					<path class="st43" d="M165.7,127.6h6.4c3.9,0,5.9,1.9,5.9,5.6v3.8c0,2.3-1.1,3.9-3.2,4.5l4.7,11.9h-5.3l-3.3-11.1h-0.3v11.1
						h-4.9V127.6z M170.6,131.7v6.7h0.6c0.5,0,0.9,0,1-0.1c0.6-0.2,0.9-0.7,0.9-1.4v-3.8c0-1-0.5-1.5-1.4-1.5H170.6z"/>
					<path class="st43" d="M192.6,127.6v4.1h-3.9v21.7h-4.9v-21.7H180v-4.1H192.6z"/>
				</g>
			</g>
		</g>
		<g>
			<polyline class="st123" points="208.3,153.4 208.3,152.9 207.6,152.9 207.2,152.9 207.2,153.6 207.2,154.8 208.3,154.8 
				229.7,154.8 229.7,154.3 229.7,153 229.4,153 229.4,152.9 213.9,152.9 208.3,152.9 208.3,153.4 213.9,153.4 			"/>
			<path class="st1" d="M215,145.1c0.9,0,1.6,0.1,2.3,0.3c0.3-0.3,0.7-0.5,1.1-0.5h0c0.9-1.6,2.1-4,3.6-6.8h-2.5
				c-0.6,0-1.2-0.1-1.8-0.2l-4,7.3c0,0,0,0,0,0C214.1,145.2,214.5,145.2,215,145.1z"/>
			<path class="st1" d="M229.3,144.9h0.1c0.8,0,1.5,0.7,1.5,1.5c0,0.8-0.7,1.5-1.5,1.5v4.9h0.2v0.1h6.6v-0.2c0-0.6,0.5-1.1,1.1-1.1
				h5.9c0-0.1,0-0.2,0-0.3v-1c0-0.9,0.7-1.6,1.6-1.6h1.8v-5.3c-1.1,0-2-1-2-2.1v-1.8c0-0.5,0.2-1,0.5-1.4H233L229.3,144.9z"/>
			<path class="st1" d="M237.6,95.2l-1.4-2.5h-4.1l5.8,4.4l1.5-1.2C238.7,96.1,237.9,95.8,237.6,95.2z"/>
			<path class="st99" d="M259.2,154.3h12V153h-10.9v0.3C260.3,153.8,259.8,154.3,259.2,154.3z"/>
			<path class="st99" d="M236.3,153.2V153h-6.6v1.3h7.7C236.8,154.3,236.3,153.8,236.3,153.2z"/>
			<path d="M252,153h8.2v-0.2c0-0.6-0.5-1.1-1.1-1.1h-5.9C253.2,152.3,252.7,152.8,252,153z"/>
			<path d="M236.3,152.8v0.2h8.2c-0.6-0.1-1.1-0.6-1.3-1.3h-5.9C236.8,151.7,236.3,152.2,236.3,152.8z"/>
			<path d="M251.7,153h-6.8c-0.1,0-0.2,0-0.3,0h-8.2v0.3c0,0.6,0.5,1.1,1.1,1.1h21.8c0.6,0,1.1-0.5,1.1-1.1V153H252
				C251.9,153,251.8,153,251.7,153z"/>
			<path class="st99" d="M246.7,143.4C246.7,143.4,246.7,143.4,246.7,143.4l-0.1,5.3h3.2v-5.3c0,0,0,0-0.1,0H246.7z"/>
			<path d="M246.7,149.7v-0.9h-1.8c-0.9,0-1.6,0.7-1.6,1.6v1c0,0.1,0,0.2,0,0.3h10c0-0.1,0-0.2,0-0.3v-1c0-0.9-0.7-1.6-1.6-1.6h-1.8
				v0.9H246.7z"/>
			<path d="M244.5,153h7.5c0.6-0.1,1.1-0.6,1.3-1.3h-10C243.4,152.3,243.9,152.8,244.5,153z"/>
			<path d="M251.7,153c0.1,0,0.2,0,0.3,0h-7.5c0.1,0,0.2,0,0.3,0H251.7z"/>
			<rect x="246.7" y="148.8" width="3.2" height="0.9"/>
			<path d="M251.4,138.2h-6.3c-0.3,0.4-0.5,0.8-0.5,1.4v1.8c0,1.1,0.9,2.1,2,2.1c0,0,0,0,0.1,0h3.1c0,0,0,0,0.1,0c1.1,0,2-1,2-2.1
				v-1.8C252,139,251.8,138.5,251.4,138.2z"/>
			<path class="st100" d="M257.1,82.3c-0.3-0.6-0.5-1.2-0.6-1.6c-0.3,0-0.6,0-0.9,0c-1,0-2-0.2-2.9-0.4c-0.5,0.6-0.8,1.4-1,2.2
				l-0.7,3.4c1.5-1.4,2.9-2.6,3.3-2.9C254.9,82.4,256.4,82.3,257.1,82.3z"/>
			<path class="st100" d="M268.6,117.5c0.1,0.4,0.1,0.9,0.1,1.5c0,4.8-7.2,4.7-7.2,4.7h6.4c3.1,0,5.7,1.9,6.7,4.7l9.5-43.5
				c0.8-3.9-2.6-7.5-7.1-7.5h-13.9c-0.1,0.1-0.2,0.2-0.3,0.3c0.4,0.9,1.4,3.3,2,4.6l1.5,0c0,0,4.1-0.4,6.7,2.2
				c2.7,2.7,1.2,8.9,1.2,8.9"/>
			<polygon class="st100" points="247.6,101.7 247.5,101.6 244.9,113.5 245.2,113.5 			"/>
			<path class="st100" d="M221.9,138.2c2.5-4.7,5.5-10.4,7.7-14.4h-4.3l-7.7,14.2c0.6,0.2,1.2,0.2,1.8,0.2H221.9z"/>
			<path class="st100" d="M249.8,137.4h-1.4h-1.7c-0.6,0-1.2,0.3-1.6,0.7h6.3C251.1,137.7,250.5,137.4,249.8,137.4z"/>
			<path class="st100" d="M274.7,128.4l-0.2,0.8L274.7,128.4c-1-2.7-3.7-4.7-6.7-4.7h-6.4h-18.8h-1.9l-7.8,14.4h12.2
				c0.4-0.5,1-0.7,1.6-0.7h1.7h1.4h16.9c1.2,0,2.3-0.3,3.3-0.7c-1,0.4-2.1,0.7-3.3,0.7h-16.9c0.6,0,1.2,0.3,1.6,0.7H268
				c4,0,7.2-3.2,7.2-7.2l0,0C275.2,130,275,129.2,274.7,128.4z M246,134.8c-2.2,0-4-1.8-4-4c0-2.2,1.8-4,4-4h21.2c2.2,0,4,1.8,4,4
				c0,2.2-1.8,4-4,4H246z M271.5,135.9c-0.2,0.1-0.3,0.2-0.5,0.3C271.2,136.1,271.3,136,271.5,135.9z"/>
			<path class="st101" d="M267.2,126.9H246c-2.2,0-4,1.8-4,4c0,2.2,1.8,4,4,4h21.2c2.2,0,4-1.8,4-4
				C271.2,128.7,269.4,126.9,267.2,126.9z"/>
			<path class="st102" d="M247.1,92l2.2,1.7l1.7-7.8c-1.9,1.7-4.2,3.8-5.4,4.9l0.2,0.2"/>
			<path class="st102" d="M274.3,93.3c0,0,1.5-6.2-1.2-8.9c-2.7-2.7-6.7-2.2-6.7-2.2l-1.5,0c0.2,0.4,0.3,0.7,0.3,0.8
				c0.1,0.6,0.2,2.6-1.4,3.4c-1.6,0.8-3.6,0.4-4.6-0.3c-0.5-0.4-1.4-2.3-2-3.9c-0.8,0-2.2,0.2-2.9,0.7c-0.4,0.3-1.7,1.5-3.3,2.9
				l-1.7,7.8l4.6,3.5l8.1-6.4l4.9,5.4c0,0-9.7,8.8-11.9,9.5c-2.2,0.7-4.1-1.3-4.1-1.3l-3.2-2.6l-3.5,11.8h19c1.2,0,2.3,0.3,3.3,0.9
				c0.9,0.6,1.9,1.2,2.2,3"/>
			<g>
				<path class="st103" d="M227.1,116.4c0.3,0.5,0.3,1.2,0.3,1.9c-0.1,1.2-0.4,2.4-1,3.5l-1.1,2h4.3c1.4-2.6,2.4-4.5,2.7-5.1
					c1.3-2.4,2.8-4.7,5.4-5.1h-14.1C225.3,113.8,226.5,115.1,227.1,116.4z"/>
				<path class="st103" d="M268.6,117.5c-0.3-1.8-1.3-2.4-2.2-3c-1-0.6-2.1-0.9-3.3-0.9h-18h-0.2h-5.9c1.8,0.3,2.9,1.6,3.5,2.9
					c0.3,0.5,0.3,1.2,0.3,1.9c-0.1,1.2-0.4,2.4-1,3.5l-1.1,2h1.9h18.8c0,0,7.2,0,7.2-4.7C268.8,118.4,268.7,117.9,268.6,117.5z"/>
			</g>
			<path class="st104" d="M237.7,113.5h1.4C238.7,113.5,238.2,113.4,237.7,113.5z"/>
			<path class="st104" d="M242.6,116.4c-0.6-1.3-1.8-2.6-3.5-2.9h-1.4c-2.5,0.4-4,2.7-5.4,5.1c-0.3,0.6-1.4,2.5-2.7,5.1
				c-2.2,4-5.2,9.7-7.7,14.4c-1.5,2.7-2.7,5.2-3.6,6.8h11l3.7-6.8l7.8-14.4l1.1-2c0.6-1.1,0.9-2.2,1-3.5
				C242.9,117.6,242.9,116.9,242.6,116.4z"/>
			<path class="st104" d="M222.2,113.5h1.4C223.2,113.5,222.7,113.4,222.2,113.5z"/>
			<path class="st104" d="M227.1,116.4c-0.6-1.3-1.8-2.6-3.5-2.9h-1.4c-0.3,0-0.7,0.1-1,0.2c-2,0.7-3.2,2.8-4.4,4.9
				c-1.1,2-10.7,20.1-14,26.3h9.9c0.3,0,0.6,0.1,0.9,0.3l4-7.3l7.7-14.2l1.1-2c0.6-1.1,0.9-2.2,1-3.5
				C227.4,117.6,227.4,116.9,227.1,116.4z"/>
			<path class="st3" d="M229.4,147.4v0.6c0.8,0,1.5-0.7,1.5-1.5c0-0.8-0.7-1.5-1.5-1.5h-0.1l-1.3,2.5L229.4,147.4z"/>
			<path class="st3" d="M225.5,147.5l-5.6-0.3c0.2,0.3,0.3,0.4,0.3,0.4L225.5,147.5z"/>
			<path class="st3" d="M218.3,144.9L218.3,144.9c-0.4,0-0.8,0.2-1.1,0.5c0.3,0.1,0.5,0.2,0.7,0.3
				C218.1,145.4,218.2,145.2,218.3,144.9z"/>
			<path class="st3" d="M218,145.7c1,0.4,1.6,1.1,1.9,1.5l5.6,0.3l2.4-0.1l1.3-2.5h-11C218.2,145.2,218.1,145.4,218,145.7z"/>
			<path class="st3" d="M202.8,144.9h-1.2c-0.3,0-0.6,0.1-0.9,0.3c0.7,0.1,1.2,0.3,1.7,0.5C202.6,145.5,202.7,145.2,202.8,144.9z"/>
			<path class="st3" d="M213.6,145.2L213.6,145.2C213.6,145.3,213.6,145.3,213.6,145.2C213.6,145.3,213.6,145.2,213.6,145.2z"/>
			<path class="st3" d="M204.3,147.2c0.2,0.3,0.3,0.4,0.3,0.4l4.4-0.1c0,0,0-0.1,0.1-0.1L204.3,147.2z"/>
			<path class="st3" d="M204.3,147.2l4.8,0.3c1-1,2.5-1.9,4.5-2.2l0,0c-0.3-0.2-0.6-0.3-0.9-0.3h-9.9c-0.1,0.3-0.3,0.5-0.4,0.7
				C203.4,146.1,204,146.7,204.3,147.2z"/>
			<path class="st104" d="M245.9,100.4l-2,1.6C244.6,101.5,245.3,101,245.9,100.4z"/>
			<path class="st104" d="M239.8,95.8c-0.1,0.1-0.3,0.1-0.4,0.2l-1.5,1.2l-5.8-4.4h-1.2l0.5,0.9c0.4,0.8,0.2,1.8-0.6,2.2h0
				c-0.8,0.4-1.8,0.2-2.2-0.6l-1.4-2.5h-1.2c-0.7,0-1.3-0.4-1.5-1.1l-0.8-1.9c-0.5-1.2,0.3-2.5,1.5-2.5h0.2l-0.6-0.5
				c-0.6-0.5-1.3-0.8-2-0.9c-0.2,0-0.5,0-0.7,0c-0.9,0.1-1.8,0.6-2.4,1.2c-0.6,0.6-1.4,1.6-1.2,3.1c0.1,0.6,0.5,1.3,0.9,1.8
				c0.3,0.4,0.6,0.7,1,1l14.5,11.5c0,0,1.9,2,4.1,1.3c0.9-0.3,2.8-1.8,5-3.5l-3.9-6.4l6,4.7l0,0l-6-4.7
				C239.9,95.7,239.9,95.7,239.8,95.8z"/>
			<path class="st104" d="M227.1,85.4c-1,0-1.2,1.1-1.2,1.7h2.4C228.2,86.6,228.1,85.4,227.1,85.4z"/>
			<path class="st105" d="M243.9,102.1L243.9,102.1C243.9,102.1,243.9,102.1,243.9,102.1L243.9,102.1z"/>
			<path class="st105" d="M245.9,100.4L245.9,100.4C245.9,100.4,245.9,100.4,245.9,100.4L245.9,100.4z"/>
			<path class="st105" d="M243.9,102.1C243.9,102.1,243.9,102.1,243.9,102.1l2-1.7c0,0,0,0,0,0l-6-4.7L243.9,102.1z"/>
			<path class="st106" d="M235.4,87.2C235.4,87.2,235.4,87.2,235.4,87.2l-7.2,0c0,0,0,0,0,0H235.4z"/>
			<path class="st106" d="M225.4,87.2h0.4c0,0,0,0,0,0h-0.5L225.4,87.2C225.4,87.2,225.4,87.2,225.4,87.2z"/>
			<path class="st106" d="M228.3,87.2C228.3,87.2,228.3,87.2,228.3,87.2l-2.4,0c0,0,0,0,0,0H228.3z"/>
			<path class="st106" d="M239.4,95.9c0.1,0,0.3-0.1,0.4-0.2c0.1,0,0.1-0.1,0.2-0.1l-0.1-0.1L239.4,95.9z"/>
			<path class="st107" d="M236.3,92.7c-0.4-0.3-0.7-0.6-1-1c-0.2-0.3-0.5-0.6-0.6-1c-0.1-0.3-0.2-0.5-0.3-0.8
				c-0.1-1.3,0.5-2.2,1-2.8h-7.2h-2.4h-0.4c0,0-0.1,0-0.1,0l0,0h-0.2c-1.2,0-2,1.3-1.5,2.5l0.8,1.9c0.3,0.7,0.9,1.1,1.5,1.1h1.2
				l1.4,2.5c0.4,0.8,1.5,1,2.2,0.6l0,0c0.8-0.4,1-1.5,0.6-2.2l-0.5-0.9h1.2h4.1l1.4,2.5c0.4,0.6,1.1,0.9,1.8,0.8l0.5-0.4L236.3,92.7
				z"/>
			<path class="st104" d="M256.5,80.7C256.5,80.7,256.5,80.7,256.5,80.7c0.1,0.4,0.3,0.9,0.6,1.6c0,0,0,0,0,0L256.5,80.7z"/>
			<path class="st105" d="M256.5,80.7l0.6,1.6l0.6,1.5c0,0,0.8-0.4,2.1-1.5c0.3-0.2,0.6-0.5,0.9-0.8c1.3-1.2,1.5-2.5,1.4-3.1
				C260.6,79.7,258.6,80.5,256.5,80.7z"/>
			<path class="st104" d="M256.5,80.7c-0.1-0.3-0.2-0.5-0.2-0.5l6.5-2.8h-4c-2.6,0-4.8,1.2-6.1,3c0.9,0.3,1.9,0.4,2.9,0.4
				C255.9,80.8,256.2,80.7,256.5,80.7z"/>
			<path class="st104" d="M256.3,80.2c0,0,0.1,0.2,0.2,0.5c0,0,0,0,0,0L256.3,80.2z"/>
			<path class="st104" d="M256.3,80.2l5.8-2.3c0,0,0,0.1,0,0.4c0.3-0.2,0.5-0.4,0.7-0.7c-0.1-0.2-0.1-0.3-0.1-0.3L256.3,80.2z"/>
			<g>
				<path class="st104" d="M257.7,83.7L257.7,83.7C257.7,83.7,257.7,83.7,257.7,83.7L257.7,83.7z"/>
				<path class="st104" d="M264.9,82.3c-0.5-1.3-1.6-3.7-2-4.6c-0.2,0.2-0.5,0.5-0.7,0.7c0,0.6-0.2,1.9-1.4,3.1
					c-0.3,0.3-0.6,0.6-0.9,0.8c-1.3,1-2.1,1.5-2.1,1.5c0.5,1.1,1,2.1,1.4,2.4c0.9,0.7,3,1.2,4.6,0.3c1.6-0.8,1.5-2.8,1.4-3.4
					C265.1,83,265,82.7,264.9,82.3z"/>
				<path class="st104" d="M266.3,70.3c-1.1,0-1.7-0.2-1.7-0.2s-2,2.6-2.7,2.9s-3.1,0.2-3.1,0.2s-1.1-0.1-1.1-0.6
					c0-0.6,2.8-0.4,2.8-0.4s0.8,0,1.4-0.8c0.6-0.8,0.7-1.6,0.4-2c-0.2-0.4-1.1-1.8-1.4-1.8c-0.3,0-2,0-2,0v0.5c0,1.3-1,2.3-2.3,2.3
					h-4.1h-7.7c0.5,4.8,3.6,8.7,7.8,9.9c1.3-1.8,3.6-3,6.1-3h4c0,0,0.1,0.1,0.1,0.3c0.1-0.1,0.2-0.2,0.3-0.3
					C264.9,75.5,266.1,73,266.3,70.3z M249.6,72.4c-0.1,0.1-0.4,0-0.6-0.3c-0.2-0.3-0.3-0.5-0.2-0.7c0.1-0.1,0.4,0,0.6,0.3
					C249.6,72,249.7,72.3,249.6,72.4z M250.9,72.4c-0.1,0.1-0.4,0-0.6-0.3s-0.3-0.5-0.2-0.7c0.1-0.1,0.4,0,0.6,0.3
					C250.9,72,251,72.3,250.9,72.4z M252.9,76.3c-0.7,0-1.3-0.4-1.3-1c0-0.6,0.6-1,1.3-1c0.7,0,1.3,0.4,1.3,1
					C254.3,75.8,253.7,76.3,252.9,76.3z"/>
				<path class="st104" d="M256.3,80.2l0.2,0.5c2.1-0.2,4.1-1.1,5.7-2.4c0-0.2,0-0.4,0-0.4L256.3,80.2z"/>
			</g>
			<g>
				<path class="st108" d="M275.2,60.4h-5.8c0.6,0.4,1.4,1.2,1.7,2.3h4.1c0.6,0,1.1-0.5,1.1-1.1v-0.1
					C276.3,60.9,275.8,60.4,275.2,60.4z"/>
				<path class="st108" d="M259.9,56.2c-0.3-2.4-1.1-3.9-2.2-4.8c-0.7-0.5-1.3-0.9-1.7-1.1c0,0,0.1-0.1,0.2-0.3
					c0.1-0.1,0.1-0.3,0.1-0.4c0-0.5-0.4-1-1-1c-0.5,0-1,0.4-1,1c0,0.2,0,0.3,0.1,0.4h-2.8c-3.5,0-6.4,3.4-6.4,6.9v1.3h6.6h0.7h4.1
					c1.3,0,2.3,1,2.3,2.3v1.9h1c0-0.7,0.1-2.3,0.1-3.9C260,57.7,260,56.9,259.9,56.2z"/>
				<path class="st108" d="M259.4,50.1H257c1.2,0.1,2.7,0.5,3.4,1.8c1.2,2.2,1.3,3.2,1.3,4.5c0,0.6,0,2.1,0,3.3c0,0.9,0,1.8,0,2.2
					c0.3-0.4,0.7-0.8,1.2-1.2c0,0,0,0,0,0c1-0.7,2.2-1.1,2.2-1.1l0.9-1.1v-3.2C266.1,51.8,262.9,50.1,259.4,50.1z"/>
			</g>
			<path class="st109" d="M260.4,51.9c-0.7-1.3-2.2-1.7-3.4-1.8h-0.9c-0.1,0.1-0.1,0.1-0.1,0.2c0.4,0.2,1,0.6,1.7,1.1
				c1.1,0.8,1.9,2.4,2.2,4.8c0.1,0.7,0.1,1.6,0.1,2.4c0,1.6-0.1,3.1-0.1,3.9h1.4c0,0,0.1-0.3,0.4-0.6c0-0.5,0-1.3,0-2.2
				c0-1.3,0-2.7,0-3.3C261.8,55.1,261.6,54.1,260.4,51.9z"/>
			<ellipse class="st105" cx="252.9" cy="75.3" rx="1.3" ry="1"/>
			<path class="st110" d="M204.6,147.6c0,0-0.1-0.2-0.3-0.4c-0.3-0.4-0.9-1-1.9-1.5c-0.5-0.2-1-0.4-1.7-0.5
				c-0.4-0.1-0.8-0.1-1.3-0.1c-4,0.1-6.3,2.1-7,4c-0.5,1.3-0.5,2.9-0.4,3.7h15.1h0.4c-0.1-0.8-0.1-2.4,0.4-3.7
				c0.1-0.4,0.3-0.7,0.6-1.1c0.1-0.2,0.3-0.3,0.4-0.5L204.6,147.6z"/>
			<path class="st56" d="M192.1,153.4c0,0,0-0.2-0.1-0.5h0v2h15.2v-1.3L192.1,153.4z"/>
			<path class="st56" d="M207.2,153.6v-0.7h-15.1c0,0.3,0.1,0.5,0.1,0.5L207.2,153.6z"/>
			<polygon class="st102" points="227.9,147.4 225.5,147.5 227.8,147.6 			"/>
			<path class="st102" d="M209.1,147.4C209.1,147.4,209.1,147.5,209.1,147.4l0.9,0.1L209.1,147.4z"/>
			<g>
				<path class="st102" d="M227.9,147.4l-0.1,0.2l-2.3-0.1l-5.4,0.1c0,0-0.1-0.2-0.3-0.4c-0.3-0.4-0.9-1.1-1.9-1.5
					c-0.2-0.1-0.5-0.2-0.7-0.3c-0.6-0.2-1.4-0.3-2.3-0.3c-0.5,0-0.9,0.1-1.3,0.1c0,0,0,0,0,0c-2.1,0.3-3.5,1.2-4.5,2.2l0.9,0.1
					l2.4-0.1l-0.1,0.2l-2.3-0.1l-1,0c-0.2,0.2-0.3,0.3-0.4,0.5c-0.3,0.4-0.5,0.7-0.6,1.1c-0.5,1.3-0.5,2.9-0.4,3.7h0.7h5.6h15.6V148
					v-0.6L227.9,147.4z"/>
			</g>
			<polygon class="st102" points="212.3,147.6 212.4,147.4 210,147.5 			"/>
			<rect x="229.4" y="152.9" class="st3" width="0.2" height="0.1"/>
			<path class="st104" d="M245.9,100.4l1.6,1.3l0.7-3.2C247.5,99,246.7,99.7,245.9,100.4z"/>
			<path class="st104" d="M248.3,98.4C248.2,98.4,248.2,98.4,248.3,98.4l-0.7,3.3l0.1,0.1L248.3,98.4z"/>
			<polygon class="st104" points="249.3,93.6 247.1,92 249.1,94.2 			"/>
			<path class="st104" d="M244.8,91.7l0.9-0.7l-0.2-0.2c-0.5,0.5-0.9,0.8-0.9,0.8L244.8,91.7z"/>
			<path class="st104" d="M248.9,95.2l-0.7,3.2c0,0,0,0,0,0L248.9,95.2L248.9,95.2z"/>
			<polygon class="st104" points="247.1,92 245.7,90.9 244.8,91.7 248.9,95.2 249.1,94.2 			"/>
			<path class="st104" d="M249.1,94.2l-0.2,1l0,0l-0.6,3.2c1.5-1.3,2.6-2.3,2.6-2.3L249.1,94.2z"/>
			<path class="st104" d="M240,95.7c0.2-0.2,0.3-0.3,0.5-0.5l-0.6,0.5L240,95.7z"/>
			<g>
				<path class="st104" d="M261.9,90.7l-8.1,6.4l-4.6-3.5l-0.1,0.6l1.7,1.9c0,0-1.1,1-2.6,2.3l-0.7,3.3l3.2,2.6c0,0,1.9,2,4.1,1.3
					c2.2-0.7,11.9-9.5,11.9-9.5L261.9,90.7z"/>
				<path class="st104" d="M248.9,95.2l-4.1-3.6l-0.1-0.1c0,0,0.3-0.3,0.9-0.8l-1.3-1v-2.3c0,0,0.1-2-1.2-2c-1.3,0-1.2,2.2-1.2,2.2
					l-1.1-0.9c-0.6-0.5-1.3-0.8-2-0.9c-0.2,0-0.5,0-0.7,0c-0.9,0.1-1.8,0.6-2.4,1.2c-0.1,0.1-0.1,0.1-0.2,0.2c0,0,0,0,0,0
					c-0.5,0.6-1.1,1.5-1,2.8c0,0.3,0.1,0.5,0.3,0.8c0.2,0.3,0.4,0.7,0.6,1c0.3,0.4,0.6,0.7,1,1l3.6,2.8l0.6-0.5
					c-0.1,0.2-0.3,0.4-0.5,0.5l6,4.7c0.8-0.7,1.6-1.4,2.3-2L248.9,95.2z"/>
			</g>
			<path class="st105" d="M250,71.5c-0.1,0.1,0,0.4,0.2,0.7c0.2,0.3,0.5,0.4,0.6,0.3c0.1-0.1,0-0.4-0.2-0.7
				C250.4,71.5,250.1,71.4,250,71.5z"/>
			<path class="st105" d="M248.8,71.5c-0.1,0.1,0,0.4,0.2,0.7c0.2,0.3,0.5,0.4,0.6,0.3c0.1-0.1,0-0.4-0.2-0.7
				C249.2,71.5,248.9,71.4,248.8,71.5z"/>
			<path class="st106" d="M237.7,68.1v-7.5c0-1.3,1-2.3,2.3-2.3h-0.4c-1.3,0-2.3,1-2.3,2.3v7.5c0,1.3,1,2.3,2.3,2.3h0.4
				C238.7,70.4,237.7,69.3,237.7,68.1z"/>
			<path class="st107" d="M246.5,63c-0.1,0.2-0.2,0.4-0.3,0.6h0.8C246.8,63.4,246.6,63.2,246.5,63z"/>
			<path class="st107" d="M252.6,58.3h-0.7h-6.6H240c-1.3,0-2.3,1-2.3,2.3v7.5c0,1.3,1,2.3,2.3,2.3h4.9h7.7c1.3,0,2.3-1,2.3-2.3
				v-2.6v-4.9C254.9,59.3,253.8,58.3,252.6,58.3z M242.9,58.5h2h0.2h3.5c0.5,0,1,0.4,1,1c0,0,0,0,0,0c0,0.5-0.4,1-1,1h-0.2h-3.1
				h-0.4h-2c-0.5,0-1-0.4-1-1C241.9,59,242.4,58.5,242.9,58.5z M249.1,65.5h-3.8h-2.7c-0.3,0-0.5-0.2-0.5-0.5v-0.9
				c0-0.3,0.2-0.5,0.5-0.5h3.5c0.1-0.2,0.2-0.4,0.3-0.6c0.2,0.2,0.3,0.4,0.5,0.6h2.2c0.3,0,0.5,0.2,0.5,0.5V65c0,0.1,0,0.1,0,0.2
				C249.5,65.4,249.3,65.5,249.1,65.5z"/>
			<path class="st106" d="M271.1,62.8C271.1,62.8,271.1,62.7,271.1,62.8L271.1,62.8C271.1,62.7,271.1,62.8,271.1,62.8z"/>
			<path class="st106" d="M269,60.4c0.9,0.5,1.6,1.3,2.1,2.3h0c-0.3-1.1-1.1-1.9-1.7-2.3h-0.3C269.1,60.4,269,60.4,269,60.4z"/>
			<path class="st106" d="M266.3,70.1L266.3,70.1C266.3,70.1,266.3,70.1,266.3,70.1c-2.8,0-5-2.1-5.2-4.8c0-0.1,0-0.3,0-0.4
				c0-1.7,0.8-3.1,2-4.1c0.8-0.6,1.7-1,2.7-1.1c0.2,0,0.4,0,0.5,0c1,0,1.9,0.3,2.7,0.7c0,0,0.1,0,0.1,0h0.3
				c-0.3-0.3-0.6-0.4-0.6-0.4v-1.7c0,0,0.8-0.1,0.8-1.3c0-1.2-0.9-1.6-0.9-1.6h-2.6v3.2l-0.3,0.3l-0.6,0.7c0,0-1.3,0.4-2.2,1.1
				c0,0,0,0,0,0c-0.5,0.3-0.9,0.8-1.2,1.2c-0.3,0.3-0.4,0.6-0.4,0.6h-1.4h-1v3v2c0,0,1.7,0,2,0c0.3,0,1.2,1.4,1.4,1.8
				c0.2,0.4,0.1,1.2-0.4,2c-0.6,0.8-1.4,0.8-1.4,0.8s-2.8-0.1-2.8,0.4c0,0.6,1.1,0.6,1.1,0.6s2.4,0.1,3.1-0.2s2.7-2.9,2.7-2.9
				s0.6,0.2,1.7,0.2c0,0,0,0,0,0c0,0,0,0,0,0c0.7,0,1.5-0.1,2.4-0.6c0.8-0.4,1.6-1,1.9-1.9C269.7,69.2,268.1,70.1,266.3,70.1z"/>
			<path class="st106" d="M256.7,58.3h-4.1c1.3,0,2.3,1,2.3,2.3v4.9v2.6c0,1.3-1,2.3-2.3,2.3h4.1c1.3,0,2.3-1,2.3-2.3v-0.5v-2v-3
				v-1.9C258.9,59.3,257.9,58.3,256.7,58.3z"/>
			<path class="st107" d="M270.6,67.8c0.2-0.3,0.3-0.6,0.5-0.9c-0.1,0.2-0.2,0.4-0.3,0.5C270.7,67.6,270.7,67.7,270.6,67.8z"/>
			<path class="st107" d="M271.1,62.8C271.1,62.8,271.1,62.7,271.1,62.8L271.1,62.8c-0.5-1-1.2-1.8-2.1-2.4
				c-0.8-0.5-1.7-0.7-2.7-0.7c-0.2,0-0.4,0-0.5,0c-1,0.1-2,0.5-2.7,1.1c-1.2,1-2,2.4-2,4.1c0,0.1,0,0.3,0,0.4
				c0.2,2.7,2.5,4.8,5.2,4.8c0,0,0,0,0,0c1.8,0,3.4-0.9,4.3-2.3c0-0.1,0.1-0.2,0.1-0.4c-0.7,0.9-1.9,1.6-3.2,1.6
				c-0.4,0-0.8-0.1-1.2-0.2c-1.6-0.5-2.8-2-2.8-3.8c0-0.4,0.1-0.8,0.2-1.2c0.1-0.5,0.4-0.9,0.7-1.3c0.2-0.3,0.5-0.6,0.8-0.8
				c0.7-0.5,1.5-0.8,2.4-0.8c0.2,0,0.4,0,0.5,0c1.2,0.2,2.2,0.8,2.8,1.7c0.1,0.1,0.2,0.3,0.2,0.4c0.1,0.2,0.2,0.3,0.2,0.5
				C271.3,63.3,271.2,63.1,271.1,62.8z"/>
			<path class="st111" d="M271.4,63.6c-0.1-0.2-0.1-0.4-0.2-0.5c-0.1-0.1-0.2-0.3-0.2-0.4c-0.6-0.9-1.6-1.6-2.8-1.7
				c-0.2,0-0.4,0-0.5,0c-0.9,0-1.7,0.3-2.4,0.8c-0.3,0.2-0.6,0.5-0.8,0.8c-0.3,0.4-0.5,0.8-0.7,1.3c-0.1,0.4-0.2,0.8-0.2,1.2
				c0,1.8,1.2,3.3,2.8,3.8c0.4,0.1,0.8,0.2,1.2,0.2c1.3,0,2.4-0.6,3.2-1.6c0.1-0.2,0.2-0.3,0.3-0.5c0.3-0.6,0.5-1.2,0.5-2
				C271.6,64.5,271.5,64.1,271.4,63.6z M268.2,67.3c-1.3,0-2.3-1-2.3-2.3c0-0.3,0.1-0.7,0.2-1c-0.2-0.2-0.3-0.5-0.3-0.8
				c0-0.6,0.5-1.1,1.1-1.1c0.4,0,0.8,0.2,1,0.6c0.1,0,0.2,0,0.3,0c1.3,0,2.3,1,2.3,2.3C270.5,66.3,269.4,67.3,268.2,67.3z"/>
			<path class="st112" d="M267.9,62.7c0.1,0.2,0.1,0.3,0.1,0.5c0,0.6-0.5,1.1-1.1,1.1c-0.3,0-0.6-0.1-0.8-0.3
				c-0.1,0.3-0.2,0.6-0.2,1c0,1.3,1,2.3,2.3,2.3s2.3-1,2.3-2.3c0-1.3-1-2.3-2.3-2.3C268.1,62.7,268,62.7,267.9,62.7z"/>
			<path class="st3" d="M267.9,62.7c-0.2-0.4-0.6-0.6-1-0.6c-0.6,0-1.1,0.5-1.1,1.1c0,0.3,0.1,0.6,0.3,0.8c0.2,0.2,0.5,0.3,0.8,0.3
				c0.6,0,1.1-0.5,1.1-1.1C268,63.1,267.9,62.9,267.9,62.7z"/>
			<path class="st111" d="M245.2,58.5h-0.2C245,58.5,245.1,58.5,245.2,58.5L245.2,58.5z"/>
			<path class="st111" d="M244.9,60.5h0.4c0,0,0,0,0-0.1C245.2,60.5,245.1,60.5,244.9,60.5z"/>
			<path class="st111" d="M249.6,59.5C249.6,59.5,249.6,59.5,249.6,59.5c0-0.5-0.4-1-1-1h-3.5v0c0.4,0.1,0.8,0.5,0.8,1
				c0,0.4-0.3,0.8-0.6,0.9c0,0,0,0,0,0.1h3.1C248.8,60.1,249.2,59.8,249.6,59.5z"/>
			<path class="st111" d="M248.7,60.5c0.5,0,1-0.4,1-1c-0.4,0.3-0.8,0.6-1.2,1H248.7z"/>
			<path class="st106" d="M242.7,63.6c-0.3,0-0.5,0.2-0.5,0.5V65c0,0.3,0.2,0.5,0.5,0.5h2.7c0.2-0.7,0.5-1.3,0.8-2H242.7z"/>
			<path class="st106" d="M247,63.6h-0.8c-0.3,0.6-0.6,1.3-0.8,2h3.8c0.2,0,0.4-0.1,0.5-0.3C248.6,64.9,247.7,64.3,247,63.6z"/>
			<path class="st106" d="M249.6,64.1c0-0.3-0.2-0.5-0.5-0.5H247c0.7,0.7,1.6,1.3,2.6,1.7c0-0.1,0-0.1,0-0.2V64.1z"/>
			<path class="st112" d="M245.2,59.1v-0.6c-0.1,0-0.2,0-0.2,0h-2c-0.5,0-1,0.4-1,1c0,0.5,0.4,1,1,1h2c0.1,0,0.3,0,0.4-0.1
				C245.2,60,245.2,59.6,245.2,59.1z"/>
			<path class="st112" d="M245.3,60.4c0.4-0.1,0.6-0.5,0.6-0.9c0-0.5-0.3-0.8-0.8-1v0.6C245.2,59.6,245.2,60,245.3,60.4z"/>
		</g>
	</g>
</g>
</svg>
