<?xml version="1.0" encoding="utf-8"?>
<!-- Generator: Adobe Illustrator 22.1.0, SVG Export Plug-In . SVG Version: 6.00 Build 0)  -->
<svg version="1.1" xmlns="http://www.w3.org/2000/svg" xmlns:xlink="http://www.w3.org/1999/xlink" x="0px" y="0px"
	 viewBox="0 0 388.8 203.5" style="enable-background:new 0 0 388.8 203.5;" xml:space="preserve">
<style type="text/css">
	.st0{fill:#242628;}
	.st1{fill:none;}
	.st2{fill:#FAFAFA;}
	.st3{fill:#FFFFFF;}
	.st4{clip-path:url(#SVGID_2_);}
	.st5{clip-path:url(#SVGID_4_);fill:#EBEBEB;}
	.st6{clip-path:url(#SVGID_6_);}
	.st7{clip-path:url(#SVGID_8_);fill:#F5F5F5;}
	.st8{clip-path:url(#SVGID_10_);}
	.st9{clip-path:url(#SVGID_12_);fill:#F5F5F5;}
	.st10{clip-path:url(#SVGID_14_);}
	.st11{clip-path:url(#SVGID_16_);fill:#F5F5F5;}
	.st12{clip-path:url(#SVGID_18_);}
	.st13{clip-path:url(#SVGID_20_);fill:#F5F5F5;}
	.st14{clip-path:url(#SVGID_22_);}
	.st15{clip-path:url(#SVGID_24_);fill:#F5F5F5;}
	.st16{clip-path:url(#SVGID_26_);}
	.st17{clip-path:url(#SVGID_28_);enable-background:new    ;}
	.st18{clip-path:url(#SVGID_30_);}
	.st19{clip-path:url(#SVGID_32_);fill:#573F35;}
	.st20{opacity:9.750000e-02;clip-path:url(#SVGID_34_);enable-background:new    ;}
	.st21{clip-path:url(#SVGID_36_);}
	.st22{clip-path:url(#SVGID_38_);}
	.st23{clip-path:url(#SVGID_42_);}
	.st24{clip-path:url(#SVGID_44_);fill:#C0ABA2;}
	.st25{clip-path:url(#SVGID_46_);}
	.st26{clip-path:url(#SVGID_48_);enable-background:new    ;}
	.st27{clip-path:url(#SVGID_50_);}
	.st28{clip-path:url(#SVGID_52_);fill:#573F35;}
	.st29{opacity:9.750000e-02;clip-path:url(#SVGID_54_);enable-background:new    ;}
	.st30{clip-path:url(#SVGID_56_);}
	.st31{clip-path:url(#SVGID_58_);}
	.st32{clip-path:url(#SVGID_62_);}
	.st33{clip-path:url(#SVGID_64_);fill:#C0ABA2;}
	.st34{fill:#004598;}
	.st35{fill:#63AA98;}
	.st36{fill:#FFFFFF;stroke:#333333;stroke-width:0.5817;stroke-miterlimit:10;}
	.st37{fill:none;stroke:#333333;stroke-width:1.1769;stroke-linecap:round;stroke-linejoin:round;stroke-miterlimit:10;}
	.st38{fill:none;stroke:#333333;stroke-width:0.7078;stroke-linecap:round;stroke-linejoin:round;}
	.st39{fill:none;stroke:#333333;stroke-width:0.3539;stroke-linecap:round;stroke-linejoin:round;stroke-miterlimit:10;}
	.st40{fill:none;stroke:#333333;stroke-width:0.7078;stroke-linecap:round;stroke-linejoin:round;stroke-miterlimit:10;}
	.st41{fill:none;stroke:#333333;stroke-width:0.177;stroke-linecap:round;stroke-linejoin:round;stroke-miterlimit:10;}
	.st42{fill:none;stroke:#333333;stroke-width:0.2574;stroke-linecap:round;stroke-linejoin:round;stroke-miterlimit:10;}
	.st43{fill:#333333;}
	
		.st44{clip-path:url(#SVGID_66_);fill:none;stroke:#333333;stroke-width:0.2584;stroke-linecap:round;stroke-linejoin:round;stroke-miterlimit:10;}
	
		.st45{clip-path:url(#SVGID_68_);fill:none;stroke:#333333;stroke-width:0.2584;stroke-linecap:round;stroke-linejoin:round;stroke-miterlimit:10;}
	.st46{fill:#1A4698;}
	.st47{clip-path:url(#SVGID_70_);}
	.st48{clip-path:url(#SVGID_72_);enable-background:new    ;}
	.st49{clip-path:url(#SVGID_74_);}
	.st50{clip-path:url(#SVGID_76_);fill:#EADCD7;}
	.st51{opacity:9.750000e-02;clip-path:url(#SVGID_78_);enable-background:new    ;}
	.st52{clip-path:url(#SVGID_80_);}
	.st53{clip-path:url(#SVGID_82_);}
	.st54{clip-path:url(#SVGID_86_);}
	.st55{clip-path:url(#SVGID_88_);fill:#957C71;}
	.st56{fill:#F5F5F5;}
	.st57{fill:#FF5058;}
	.st58{clip-path:url(#SVGID_90_);fill:#5B82FF;}
	.st59{opacity:0.75;clip-path:url(#SVGID_90_);fill-rule:evenodd;clip-rule:evenodd;fill:#2459FF;}
	.st60{clip-path:url(#SVGID_90_);fill:#3B68F7;}
	.st61{clip-path:url(#SVGID_92_);}
	.st62{clip-path:url(#SVGID_94_);}
	.st63{clip-path:url(#SVGID_96_);fill:#957C71;}
	.st64{clip-path:url(#SVGID_92_);fill:#957C71;}
	.st65{clip-path:url(#SVGID_98_);}
	.st66{clip-path:url(#SVGID_100_);}
	.st67{clip-path:url(#SVGID_102_);fill:#603F33;}
	.st68{clip-path:url(#SVGID_98_);fill:#603F33;}
	.st69{fill:#EB6B36;}
	.st70{fill:#EC9369;}
	.st71{fill:#4F7645;}
	.st72{fill:#957C71;}
	.st73{fill:#EA5D4E;}
	.st74{fill:#F9918A;}
	.st75{fill:#020202;}
	.st76{fill:#AD8454;}
	.st77{fill:#7E5426;}
	.st78{fill:#DB9B2C;}
	.st79{fill:#E5BB53;}
	.st80{fill:#F4D983;}
	.st81{fill:#E9BE5D;}
	.st82{clip-path:url(#SVGID_104_);}
	.st83{clip-path:url(#SVGID_106_);}
	.st84{fill:#1AA6C8;}
	.st85{fill:#F7CF6B;}
	.st86{fill:#DC3A65;}
	.st87{fill:#189358;}
	.st88{fill:#DD3B65;}
	.st89{fill:#FFFFFF;stroke:#000000;stroke-width:0.5226;stroke-miterlimit:10;}
	.st90{fill:#1A1A1A;}
	.st91{fill:#560B01;}
	.st92{fill:#6A0B08;}
	.st93{fill:#366D59;}
	.st94{fill:#284763;}
	.st95{fill:#EEECE9;}
	.st96{fill:#958E8B;}
	.st97{fill:#161113;}
	.st98{fill:#1D1619;}
	.st99{fill:#E6AA54;}
	.st100{fill:#FE8A29;}
	.st101{fill:#4D7465;}
	.st102{fill:#A6DDDB;}
	.st103{fill:#55AED0;}
	.st104{fill:none;stroke:#333333;stroke-width:1.8612;stroke-linecap:round;stroke-linejoin:round;stroke-miterlimit:10;}
	.st105{fill:#FFFFFF;stroke:#333333;stroke-width:2;stroke-miterlimit:10;}
	.st106{fill:none;stroke:#333333;stroke-width:0.5597;stroke-linecap:round;stroke-linejoin:round;stroke-miterlimit:10;}
	.st107{fill:none;stroke:#333333;stroke-width:1.1194;stroke-linecap:round;stroke-linejoin:round;stroke-miterlimit:10;}
	.st108{fill:none;stroke:#333333;stroke-width:0.4071;stroke-linecap:round;stroke-linejoin:round;stroke-miterlimit:10;}
	
		.st109{clip-path:url(#SVGID_112_);fill:none;stroke:#333333;stroke-width:0.4087;stroke-linecap:round;stroke-linejoin:round;stroke-miterlimit:10;}
	
		.st110{clip-path:url(#SVGID_114_);fill:none;stroke:#333333;stroke-width:0.4087;stroke-linecap:round;stroke-linejoin:round;stroke-miterlimit:10;}
	.st111{fill:#242628;stroke:#333333;stroke-linecap:round;stroke-miterlimit:10;}
	.st112{fill:#76D0D1;stroke:#FAFAFA;stroke-width:7;stroke-miterlimit:10;}
	.st113{fill:#F70000;}
	.st114{fill:#E5E5E5;}
	.st115{fill:#FFFFFF;stroke:#000000;stroke-width:0.5531;stroke-miterlimit:10;}
	.st116{fill:#CE3556;}
	.st117{fill:#4FA9BB;}
	.st118{fill:#F1BD5A;}
	.st119{clip-path:url(#SVGID_118_);}
	.st120{clip-path:url(#SVGID_120_);}
	.st121{clip-path:url(#SVGID_122_);fill:#957C71;}
	.st122{clip-path:url(#SVGID_118_);fill:#957C71;}
	.st123{clip-path:url(#SVGID_124_);}
	.st124{clip-path:url(#SVGID_126_);}
	.st125{clip-path:url(#SVGID_128_);fill:#603F33;}
	.st126{clip-path:url(#SVGID_124_);fill:#603F33;}
	.st127{clip-path:url(#SVGID_130_);}
	.st128{clip-path:url(#SVGID_132_);}
	.st129{clip-path:url(#SVGID_134_);}
	.st130{clip-path:url(#SVGID_136_);enable-background:new    ;}
	.st131{clip-path:url(#SVGID_138_);}
	.st132{clip-path:url(#SVGID_140_);fill:#EADCD7;}
	.st133{opacity:9.750000e-02;clip-path:url(#SVGID_142_);enable-background:new    ;}
	.st134{clip-path:url(#SVGID_144_);}
	.st135{clip-path:url(#SVGID_146_);}
	.st136{clip-path:url(#SVGID_150_);}
	.st137{clip-path:url(#SVGID_152_);fill:#957C71;}
</style>
<g id="레이어_2">
	<rect y="-7.6" class="st56" width="388.8" height="218.7"/>
	<g>
		<g>
			<defs>
				<path id="SVGID_91_" d="M164.8,67h58.1c3.9,0,7,3,7,6.6v70v9.5c0,3.6-3.1,6.6-7,6.6h-58.1c-3.9,0-7-3-7-6.6V73.6
					C157.8,70,160.9,67,164.8,67z"/>
			</defs>
			<use xlink:href="#SVGID_91_"  style="overflow:visible;fill-rule:evenodd;clip-rule:evenodd;fill:#957C71;"/>
			<clipPath id="SVGID_2_">
				<use xlink:href="#SVGID_91_"  style="overflow:visible;"/>
			</clipPath>
			<g class="st4">
				<defs>
					<rect id="SVGID_93_" x="150" y="64.6" width="87.9" height="99.3"/>
				</defs>
				<use xlink:href="#SVGID_93_"  style="overflow:visible;fill:#957C71;"/>
				<clipPath id="SVGID_4_">
					<use xlink:href="#SVGID_93_"  style="overflow:visible;"/>
				</clipPath>
				<g style="clip-path:url(#SVGID_4_);">
					<defs>
						<rect id="SVGID_95_" x="157.8" y="67" width="72.3" height="92.7"/>
					</defs>
					<use xlink:href="#SVGID_95_"  style="overflow:visible;fill:#957C71;"/>
					<clipPath id="SVGID_6_">
						<use xlink:href="#SVGID_95_"  style="overflow:visible;"/>
					</clipPath>
					<rect x="156.5" y="65.8" style="clip-path:url(#SVGID_6_);fill:#957C71;" width="74.7" height="95.2"/>
				</g>
			</g>
			<rect x="147.4" y="37.7" style="clip-path:url(#SVGID_2_);fill:#957C71;" width="97.2" height="163.2"/>
		</g>
		<g>
			<defs>
				<path id="SVGID_97_" d="M167.5,70.5h52.6c3.5,0,6.3,2.7,6.3,6.1v64.8v8.8c0,3.4-2.8,6.1-6.3,6.1h-52.6c-3.5,0-6.3-2.7-6.3-6.1
					V76.6C161.2,73.2,164,70.5,167.5,70.5z"/>
			</defs>
			<use xlink:href="#SVGID_97_"  style="overflow:visible;fill-rule:evenodd;clip-rule:evenodd;fill:#603F33;"/>
			<clipPath id="SVGID_8_">
				<use xlink:href="#SVGID_97_"  style="overflow:visible;"/>
			</clipPath>
			<g style="clip-path:url(#SVGID_8_);">
				<defs>
					<rect id="SVGID_99_" x="154.1" y="68.2" width="79.5" height="92"/>
				</defs>
				<use xlink:href="#SVGID_99_"  style="overflow:visible;fill:#603F33;"/>
				<clipPath id="SVGID_10_">
					<use xlink:href="#SVGID_99_"  style="overflow:visible;"/>
				</clipPath>
				<g class="st8">
					<defs>
						<rect id="SVGID_101_" x="161.2" y="70.5" width="65.5" height="85.9"/>
					</defs>
					<use xlink:href="#SVGID_101_"  style="overflow:visible;fill:#603F33;"/>
					<clipPath id="SVGID_12_">
						<use xlink:href="#SVGID_101_"  style="overflow:visible;"/>
					</clipPath>
					<rect x="160" y="69.3" style="clip-path:url(#SVGID_12_);fill:#603F33;" width="67.6" height="88.1"/>
				</g>
			</g>
			<rect x="151.8" y="43.3" style="clip-path:url(#SVGID_8_);fill:#603F33;" width="88" height="151.1"/>
		</g>
		<g>
			<circle class="st69" cx="212.9" cy="57.8" r="5.5"/>
			<circle class="st70" cx="210.2" cy="55.6" r="1.1"/>
			<path class="st71" d="M212.6,53.8c0,0,0-0.1,0.1-0.2c0.1-0.3,0.5-0.7,1.2-0.7c2.4,0.1,2.8,0.8,2.8,0.8c-2.1-0.2-3.9,0.5-3.9,0.5
				l-3.4-2.1C213.1,52.3,212.6,53.8,212.6,53.8s-1.1-1.2,0.8-3.3"/>
		</g>
		<g>
			<circle class="st69" cx="220.5" cy="72.7" r="5.5"/>
			<circle class="st70" cx="218.6" cy="70.4" r="1.7"/>
			<path class="st71" d="M221.7,68.9c0,0,0.1-0.1,0.1-0.2c0.1-0.3,0.3-0.8-0.2-1.4c-1.5-1.9-2.3-1.7-2.3-1.7
				c1.4,1.6,2.2,3.8,2.2,3.8l0.6,0c0.4,0,0.8,0.1,1.1,0.3l1.7,0.8C222.7,67.6,221.7,68.9,221.7,68.9s1.8-0.5,1.4-3"/>
		</g>
		<g>
			<g>
				<ellipse class="st69" cx="200.6" cy="72.7" rx="4.9" ry="4.9"/>
				<ellipse class="st70" cx="202.5" cy="69.6" rx="0.8" ry="0.8"/>
			</g>
			<path class="st71" d="M199.5,69.4c0,0,0.4-2.7,3.6-2.2l-3.8,2.5c0,0-1.5-0.8-3.3-1c0,0,0.4-0.6,2.5-0.3
				C199.4,68.5,199.5,69.4,199.5,69.4"/>
		</g>
		
			<rect x="180.2" y="81.7" transform="matrix(1.135039e-10 -1 1 1.135039e-10 110.8984 276.9329)" class="st72" width="27.5" height="2.7"/>
		<g>
			<g>
				<path class="st73" d="M182.3,53.3c0,0,3-8.9-2.6-9.5c-5.6-0.6-6,6.3-6.3,8.3s1.8,7.9-1.1,7.8c-2-0.1-2.8-1.1-2.8-1.1
					s1.3,3.9,4.2,3.6c3.5-0.4,3.3-3.2,3.3-3.2s-1.1,4.9,2.5,4.7c3.6-0.2,2.7-3.3,2.7-3.3s3.3,0.5,4.2-1.7c0.6-1.6-0.4-3.4-0.4-3.4
					s-1.1,3.4-2.7,2.2C182.2,56.9,182.3,53.3,182.3,53.3z"/>
				<path class="st74" d="M181.8,58.6c0,0,0.2,2.8-1.4,3.1c-1.6,0.4-3.1-0.7-3.4-1.9c-0.4-1.2-0.7,2.1,0,3.3s3.5,2.2,4.9,0.1
					C183.3,61,181.8,58.6,181.8,58.6z"/>
				<path class="st74" d="M176.2,61.3c0,0-3.5,1.7-6.5-2.1c0,0,0.3,3.2,2.1,3.2C173.7,62.4,175.5,63.4,176.2,61.3z"/>
				<path class="st74" d="M181.9,60.6c1.8,0.2,4.4,0.1,4.7-2.8c0,0-0.2,2.6-2,3.1c-1,0.3-2.1,0.8-2.9,0.6"/>
			</g>
			<g>
				
					<ellipse transform="matrix(0.4346 -0.9006 0.9006 0.4346 57.4645 187.8863)" class="st75" cx="178.4" cy="48.2" rx="0.6" ry="0.3"/>
				
					<ellipse transform="matrix(0.4346 -0.9006 0.9006 0.4346 56.8957 185.9261)" class="st75" cx="176.5" cy="47.6" rx="0.6" ry="0.3"/>
			</g>
		</g>
		<g>
			<g>
				<path class="st73" d="M157.2,66.6c0,0-7-6.3-2.4-9.5c4.6-3.2,8.3,2.5,9.6,4.1c1.3,1.6,2.3,7.7,4.8,6.2c1.7-1.1,1.9-2.3,1.9-2.3
					s0.8,4.1-1.8,5.2c-3.3,1.4-4.4-1.2-4.4-1.2s3.4,3.7,0.1,5.3c-3.2,1.6-4-1.6-4-1.6s-2.6,2.1-4.5,0.6c-1.3-1.1-1.3-3.2-1.3-3.2
					s2.6,2.5,3.4,0.7C159.1,69.7,157.2,66.6,157.2,66.6z"/>
				<path class="st74" d="M160.3,70.9c0,0,1.2,2.5,2.8,2c1.6-0.4,2.4-2.1,2.1-3.4c-0.3-1.3,1.7,1.5,1.6,2.9c0,1.4-2,3.6-4.3,2.5
					C160.2,73.8,160.3,70.9,160.3,70.9z"/>
				<path class="st74" d="M166.5,70.6c0,0,3.8-0.3,4.6-5c0,0,1.3,2.9-0.3,3.8S168.2,72,166.5,70.6z"/>
				<path class="st74" d="M161.2,72.7c-1.4,1.1-3.8,2.2-5.4-0.1c0,0,1.5,2.1,3.3,1.7c1-0.2,2.2-0.3,2.8-0.9"/>
			</g>
			
				<ellipse transform="matrix(0.5718 -0.8204 0.8204 0.5718 19.1676 154.3106)" class="st75" cx="157.4" cy="58.8" rx="0.3" ry="0.6"/>
			
				<ellipse transform="matrix(0.5718 -0.8204 0.8204 0.5718 20.8651 154.8341)" class="st75" cx="158.8" cy="57.4" rx="0.3" ry="0.6"/>
		</g>
		<g>
			<path class="st76" d="M209.5,78.5c6.3-2.2,12.5-1,13.7,2.5c1.2,3.6-2.9,8.3-9.2,10.4c-4.5,1.6-8.9,1.4-11.5-0.1
				c-1-0.6-1.8-1.4-2.2-2.5C199.1,85.4,203.2,80.7,209.5,78.5z"/>
			<path class="st77" d="M204.7,92.9c-0.9-0.4-1.7-0.9-2.2-1.5c0,0,2.5,1.4,5.1,1.2c6.3-0.6,16.5-4.1,15.7-11.5c0,0,2.5,6.1-3.5,9.4
				c-1.6,0.9-3,1.6-4.2,2.1C212.1,94.2,208,94.4,204.7,92.9z"/>
			<g>
				<g>
					<path class="st77" d="M202,88.9c1.3-1.8,2.7-3.4,4.4-4.9"/>
				</g>
				<g>
					<path class="st77" d="M202.5,85.2c1.9-1.6,3.8-3.2,5.9-4.6"/>
				</g>
				<g>
					<path class="st77" d="M205.2,87.1c-0.6-1.2-0.9-2.6-0.9-4"/>
				</g>
				<g>
					<path class="st77" d="M205.7,85.6c-0.6-1.2-0.9-2.6-1-3.9"/>
				</g>
			</g>
			<g>
				<path class="st77" d="M207.8,89.5c3-2.3,5.5-3.7,7.9-6.1"/>
			</g>
			<g>
				<path class="st77" d="M208.7,87.4c2-1.3,3.6-3.1,4.6-5.2"/>
			</g>
			<g>
				<path class="st77" d="M212.6,87.8c-0.5-1.3-1.2-2.6-2.1-3.7"/>
			</g>
			<g>
				<path class="st77" d="M213.8,87c-0.6-1.6-1.6-3.2-2.8-4.5"/>
			</g>
		</g>
		<g>
			<g>
				<path class="st73" d="M190.1,76c0,0,5.9-7.4,0.7-9.8c-5.1-2.4-7.8,3.9-8.8,5.7s-1,8-3.7,6.9c-1.9-0.8-2.3-1.9-2.3-1.9
					s-0.1,4.1,2.7,4.8c3.5,0.8,4.1-1.9,4.1-1.9s-2.7,4.2,0.8,5.3c3.5,1.1,3.7-2.2,3.7-2.2s2.9,1.6,4.5-0.2c1.1-1.3,0.8-3.4,0.8-3.4
					s-2.2,2.9-3.3,1.2C188.7,79.4,190.1,76,190.1,76z"/>
				<path class="st74" d="M187.8,80.8c0,0-0.8,2.6-2.4,2.5c-1.6-0.2-2.7-1.7-2.6-3s-1.4,1.8-1.1,3.1c0.3,1.3,2.5,3.2,4.6,1.7
					C188.4,83.7,187.8,80.8,187.8,80.8z"/>
				<path class="st74" d="M181.6,81.6c0,0-3.8,0.4-5.4-4.1c0,0-0.8,3.1,0.9,3.7C178.9,81.7,180.2,83.3,181.6,81.6z"/>
				<path class="st74" d="M187.2,82.8c1.6,0.8,4.2,1.6,5.3-1.1c0,0-1.1,2.4-3,2.3c-1-0.1-2.2,0-2.9-0.4"/>
			</g>
			<g>
				<ellipse transform="matrix(0.556 -0.8312 0.8312 0.556 24.8231 186.5651)" class="st75" cx="187" cy="70" rx="0.6" ry="0.3"/>
				
					<ellipse transform="matrix(0.556 -0.8312 0.8312 0.556 24.6922 184.7611)" class="st75" cx="185.3" cy="69.3" rx="0.6" ry="0.3"/>
			</g>
		</g>
		<g>
			<g>
				<path class="st78" d="M181.2,84.4c0.7,1.1,0.4,2.1,0.1,3.2c-0.6,2-2.4,2.2-4.2,2.3c-3,0.2-6,0.1-9-0.1c-0.3,0-0.8,0.2-0.2,0.3
					c3.8,0.3,8.1,0.7,11.9-0.2c2.3-0.5,3.4-3.6,2.2-5.6C181.8,84.2,181.1,84.3,181.2,84.4L181.2,84.4z"/>
			</g>
		</g>
		<g>
			<g>
				<path class="st78" d="M171.3,89.6c0.8,0.3,1.5,0.3,2.3,0.1c1.1-0.2,2.3-0.3,3.3-0.7c0.4-0.2-0.4-0.3-0.6-0.2
					c-0.6,0.2-1.2,0.3-1.8,0.4c-0.9,0.2-1.8,0.5-2.7,0.2C171.7,89.3,171,89.4,171.3,89.6L171.3,89.6z"/>
			</g>
		</g>
		<g>
			<path class="st79" d="M179,83.3l-13.2-4c-2.7-0.8-5.7,0.9-6.6,3.9v0c-0.9,3,0.5,6.1,3.3,6.9l13.2,4c2.7,0.8,5.7-0.9,6.6-3.9v0
				C183.1,87.2,181.7,84.1,179,83.3z"/>
			<g>
				<g>
					<path class="st78" d="M171.4,82.6c-3.2-0.8-9-2.7-11.3,1.1c-1.1,1.8,0.3,3.7,1.7,4.9c1.7,1.4,4.1,1.8,6.2,2.2
						c0.2,0,0.9-0.2,0.4-0.3c-2.7-0.5-7.6-1.6-7.9-5.2c-0.2-2.9,3.5-3.6,5.6-3.6c1.7,0,3.2,0.7,4.9,1.1
						C171.3,82.9,171.9,82.7,171.4,82.6L171.4,82.6z"/>
				</g>
			</g>
			<g>
				<g>
					<path class="st78" d="M168.7,89.4c-1.4-0.7-2.9-1-4.2-1.7c-0.7-0.3-1.7-1.1-1.5-2.1c0.3-1.2,2.5-1.5,3.2-1.6
						c1.9-0.2,3.9,0,5.7,0.4c0.9,0.2,1.7,0.5,2.5,0.9c1.6,1,1.1,1.7-1.5,2.1c-0.6,0-4.7-0.7-5-1.6c0,0.2,3.3,0.1,3.7,0.1
						c0.5,0,0.5-0.3,0-0.3c-1.5,0-3.1-0.1-4.6-0.1c-0.1,0-0.6,0.1-0.3,0.2c1.6,0.9,3.3,1.6,5.2,1.9c0.9,0.2,3.2,0.7,4,0
						c2.4-2-4-3.6-4.9-3.7c-1.9-0.3-4-0.4-5.9-0.1c-0.7,0.1-2.6,0.5-2.9,1.2c-0.2,0.5,0.3,1.9,0.7,2.3c1.1,1.1,3.8,1.4,5.1,2.1
						C168.2,89.6,168.9,89.5,168.7,89.4L168.7,89.4z"/>
				</g>
			</g>
			<g>
				<g>
					<path class="st78" d="M178.3,86.4c-1.4-1.5-2.7-2.6-4.8-3.2c-0.2-0.1-0.9,0.1-0.4,0.3c1.9,0.5,3.1,1.6,4.4,3
						C177.7,86.6,178.4,86.5,178.3,86.4L178.3,86.4z"/>
				</g>
			</g>
		</g>
		<g>
			<path class="st80" d="M179,85.9l-13.8-0.6c-2.8-0.1-5.2,2.3-5.4,5.4l0,0c-0.1,3.1,2.1,5.8,4.9,5.9l13.8,0.6
				c2.8,0.1,5.2-2.3,5.4-5.4v0C184,88.6,181.8,86,179,85.9z"/>
			<g>
				<g>
					<path class="st3" d="M181.2,89.5c0.7,1.1,0.4,2.1,0.1,3.2c-0.6,2-2.4,2.2-4.2,2.3c-3,0.2-6,0.1-9-0.1c-0.3,0-0.8,0.2-0.2,0.3
						c3.8,0.3,8.1,0.7,11.9-0.2c2.3-0.5,3.4-3.6,2.2-5.6C181.8,89.2,181.1,89.3,181.2,89.5L181.2,89.5z"/>
				</g>
			</g>
			<g>
				<g>
					<path class="st81" d="M171.4,86.2c-2.6,0-5.8-0.8-8.3,0.4c-0.9,0.5-1.9,1-2.2,2c-0.3,1-0.3,2.7,0,3.6c0.3,1.5,2.1,2.7,3.5,3.3
						c2,0.8,4.2,0.5,6.3,0.4c0.5,0,0.1-0.3-0.2-0.3c-2.9,0.2-8.4,0.2-8.8-3.8c-0.2-1.7-0.2-3.6,1.4-4.5c2.6-1.4,5.6-0.7,8.4-0.7
						C171.8,86.5,171.9,86.2,171.4,86.2L171.4,86.2z"/>
				</g>
			</g>
			<g>
				<g>
					<path class="st81" d="M170.4,94.4c-1.3-0.3-2.6-0.2-3.9-0.5c-0.8-0.2-2.4-0.5-2.5-1.6c-0.1-1.1,1.7-2,2.5-2.3
						c1.3-0.6,3-0.9,4.4-1.1c1-0.1,2-0.2,3-0.1c1.5,2,1.4,3-0.4,2.7c-0.6,0.1-4.6,0.3-4.5-0.4c0.1-0.2,3.2-0.7,3.6-0.8
						c0.5-0.1-0.2-0.3-0.4-0.3c-1.5,0.3-3,0.7-4.5,1c-0.2,0.1-0.2,0.2,0,0.3c1.8,0.5,3.6,0.7,5.5,0.6c0.9-0.1,3.2-0.1,3.8-1
						c1.6-2.4-4.6-2.5-5.5-2.4c-1.9,0.1-3.9,0.6-5.7,1.3c-0.8,0.3-2.8,1.2-2.9,2.1c-0.1,0.5,0.9,1.7,1.4,2c1.4,0.8,4,0.4,5.5,0.8
						C170.3,94.7,170.9,94.5,170.4,94.4L170.4,94.4z"/>
				</g>
			</g>
			<g>
				<g>
					<path class="st81" d="M171.3,94.6c0.8,0.3,1.5,0.3,2.3,0.1c1.1-0.2,2.3-0.3,3.3-0.7c0.4-0.2-0.4-0.3-0.6-0.2
						c-0.6,0.2-1.2,0.3-1.8,0.4c-0.9,0.2-1.8,0.5-2.7,0.2C171.7,94.3,171,94.5,171.3,94.6L171.3,94.6z"/>
				</g>
			</g>
			<g>
				<g>
					<path class="st3" d="M179.1,89.1c-2.2-1.3-4.6-1.9-7.1-2c-0.5,0-0.5,0.3,0,0.3c2.3,0.1,4.4,0.7,6.4,1.9
						C178.6,89.4,179.3,89.2,179.1,89.1L179.1,89.1z"/>
				</g>
			</g>
			<g>
				<g>
					<path class="st81" d="M172.7,86.4c2.3,0.2,6.9-0.2,8.2,2c0.1,0.2,0.9,0.1,0.8-0.1c-0.6-1.1-1.7-1.5-2.8-1.7
						c-1.9-0.3-4-0.4-6-0.5C172.6,86.1,172.2,86.4,172.7,86.4L172.7,86.4z"/>
				</g>
			</g>
		</g>
		<g>
			<defs>
				<path id="SVGID_103_" d="M203.4,94.1l-14.1-0.7c-1.6-0.1-2.6-1.7-2-3.2l7.4-16.9l12.7,0.6L203.4,94.1z"/>
			</defs>
			<clipPath id="SVGID_14_">
				<use xlink:href="#SVGID_103_"  style="overflow:visible;"/>
			</clipPath>
			<g class="st10">
				<path class="st80" d="M196,78.9l-12,2.8c-2.5,0.6-4.4,3.4-4.3,6.3v0c0.1,2.9,2.2,4.8,4.6,4.3l12-2.8c2.5-0.6,4.4-3.4,4.3-6.3v0
					C200.5,80.3,198.4,78.4,196,78.9z"/>
				<g>
					<g>
						<path class="st3" d="M198.1,81.6c0.7,0.9,0.5,2.1,0.3,3.1c-0.4,1.8-1.2,2.2-2.8,2.9c-2.8,1.1-5.7,1.8-8.7,2.4
							c-0.5,0.1,0.2,0.3,0.4,0.2c3.3-0.6,7.1-1.4,10.2-3c1.7-0.9,2.7-4,1.4-5.6C198.7,81.4,198,81.5,198.1,81.6L198.1,81.6z"/>
					</g>
				</g>
				<g>
					<g>
						<path class="st81" d="M189.3,81.1c-2.4,0.7-5.3,0.8-7.2,2.5c-0.7,0.7-1.4,1.3-1.6,2.3c-0.1,0.9-0.1,2.6,0.3,3.4
							c0.5,1.1,2,1.8,3.1,2c1.9,0.3,3.9-0.5,5.7-1.1c0.3-0.1-0.3-0.3-0.5-0.2c-1.7,0.6-3.8,1.5-5.6,0.8c-1.7-0.7-2.1-1.7-2.2-3.4
							c-0.2-1.9,0.4-3.1,2-4.2c1.7-1.2,4.4-1.3,6.4-1.9C190.1,81.2,189.5,81.1,189.3,81.1L189.3,81.1z"/>
					</g>
				</g>
				<g>
					<g>
						<path class="st81" d="M189,88.9c-1.4,0.1-3.2,0.8-4.4,0.4c-2.5-0.8,0.3-3.1,1.3-3.8c1.1-0.8,2.3-1.4,3.5-1.9
							c0.6-0.3,1.5-0.7,2.2-0.7c0.9,0.2,1.8,0.5,2.6,0.7c-0.3,0.4-0.6,0.7-0.9,1.1c-0.6,0.5-5.1,2.2-5.2,1.6
							c-0.1-0.3,2.3-1.4,2.9-1.7c0.2-0.1-0.5-0.2-0.6-0.1c-1.3,0.7-2.5,1.3-3.8,2c-0.2,0.1,0.3,0.2,0.3,0.2c1.7,0,3.3-0.2,4.8-0.8
							c0.8-0.3,3.3-1,3.3-2.2c-0.1-2.4-5.2-0.5-6-0.2c-1.7,0.7-3.6,1.6-4.9,2.9c-0.6,0.5-1.5,1.5-1.3,2.2c0.7,2.5,4.8,0.7,6.2,0.7
							C189.4,89.2,189.5,88.9,189,88.9L189,88.9z"/>
					</g>
				</g>
				<g>
					<g>
						<path class="st81" d="M190.1,88.8c0.8,0.1,1.4-0.1,2.1-0.5c0.8-0.4,1.8-0.8,2.6-1.4c0.2-0.2-0.5-0.3-0.6-0.1
							c-0.5,0.4-1.1,0.6-1.7,0.9c-0.7,0.3-1.4,0.9-2.2,0.8C190,88.5,189.6,88.8,190.1,88.8L190.1,88.8z"/>
					</g>
				</g>
				<g>
					<g>
						<path class="st3" d="M196.3,82c-2.1-0.7-4.3-0.7-6.4-0.2c-0.4,0.1,0.2,0.3,0.4,0.2c1.9-0.5,3.7-0.5,5.5,0.2
							C195.9,82.2,196.6,82.1,196.3,82L196.3,82z"/>
					</g>
				</g>
				<g>
					<g>
						<path class="st81" d="M190.9,80.9c1.7-0.3,5.8-1.7,7-0.2c0.1,0.2,0.8,0.1,0.7-0.1c-0.7-0.8-1.6-1-2.6-0.9
							c-1.8,0.1-3.7,0.6-5.5,1C190.1,80.8,190.7,80.9,190.9,80.9L190.9,80.9z"/>
					</g>
				</g>
			</g>
		</g>
		<g>
			<defs>
				<path id="SVGID_105_" d="M171.3,84.5l12.6,5.1c1.6,0.6,3.4-0.2,3.8-1.9l3.6-13.5l-12.9-9.5L171.3,84.5z"/>
			</defs>
			<clipPath id="SVGID_16_">
				<use xlink:href="#SVGID_105_"  style="overflow:visible;"/>
			</clipPath>
			<g style="clip-path:url(#SVGID_16_);">
				<path class="st80" d="M185.7,73.8l9,7.4c1.8,1.5,2,4.9,0.4,7.5v0c-1.6,2.6-4.4,3.5-6.2,2l-9-7.4c-1.8-1.5-2-4.9-0.4-7.5l0,0
					C181.1,73.2,183.9,72.3,185.7,73.8z"/>
				<g>
					<g>
						<path class="st3" d="M181.9,75.1c-1.5,0.7-2.8,3.6-2.2,5.1c0.6,1.5,2.5,3,3.7,4.1c1.2,1.2,2.6,2.2,3.9,3.3
							c0.1,0.1,0.8,0,0.6-0.1c-2.4-1.8-4.6-3.7-6.5-6c-0.8-1-1.3-1.7-1-3c0.3-1.1,0.8-2.6,2-3.2C182.8,75.1,182.1,75,181.9,75.1
							L181.9,75.1z"/>
					</g>
				</g>
				<g>
					<g>
						<path class="st81" d="M189.8,78.6c2.1,2,6.2,4.1,5,7.6c-0.6,1.8-2.2,3.7-4.2,3.6c-1.9-0.1-3.4-1.9-4.6-3.2
							c-0.1-0.2-0.8,0-0.7,0.1c1.9,2,4.7,4.5,7.7,3c1.6-0.8,3-3.5,2.6-5.2c-0.6-2.8-3.1-4.1-5.1-6C190.4,78.4,189.7,78.5,189.8,78.6
							L189.8,78.6z"/>
					</g>
				</g>
				<g>
					<g>
						<path class="st81" d="M186.2,85.9c1.7,0.9,3.2,3.1,5.3,2.3c1-0.4,1.2-0.5,1-1.7c-0.2-1.8-1.1-3.4-2.2-4.9
							c-0.9-1.3-3.7-4.8-5.8-3.4c-2.4,1.6,3.7,5.7,4.9,6.3c0.1,0,0.7,0.1,0.6-0.1c-0.8-1.1-1.5-2.2-2.3-3.4
							c-0.1-0.2-0.8-0.1-0.7,0.1c0.8,1.1,1.5,2.2,2.3,3.4c0.2,0,0.4-0.1,0.6-0.1c-1.3-0.6-2.4-1.3-3.3-2.3c-0.4-0.4-2.2-2.3-1.9-2.9
							c0.7-0.1,1.4-0.2,2.1-0.3c0.3,0.2,0.7,0.5,1,0.8c0.4,0.4,0.8,0.8,1.2,1.3c0.7,0.8,1.2,1.7,1.7,2.6c0.5,1,2.1,4.2,0,4.5
							c-1.2,0.1-2.8-1.7-3.9-2.3C186.6,85.7,186,85.8,186.2,85.9L186.2,85.9z"/>
					</g>
				</g>
				<g>
					<g>
						<path class="st81" d="M185.9,84.9c-0.8-0.3-1.2-1-1.6-1.7c-0.4-0.5-0.8-1-1.1-1.6c-0.1-0.2-0.8-0.1-0.7,0.1
							c0.3,0.7,0.9,1.3,1.3,2c0.4,0.6,0.9,1.2,1.6,1.4C185.6,85.1,186.3,85,185.9,84.9L185.9,84.9z"/>
					</g>
				</g>
				<g>
					<g>
						<path class="st3" d="M184,76.8c1.9,0.2,3.6,1,5.1,2.2c0.1,0.1,0.8,0,0.6-0.1c-1.6-1.4-3.4-2.1-5.5-2.4
							C183.9,76.5,183.5,76.7,184,76.8L184,76.8z"/>
					</g>
				</g>
				<g>
					<g>
						<path class="st81" d="M189.7,77.6c-1.4-1.1-3-2.6-4.6-3.3c-0.8-0.3-1.7-0.3-2.5,0.1c-0.2,0.1,0.5,0.2,0.6,0.1
							c1.2-0.6,2.7,0.8,3.6,1.5c0.7,0.6,1.5,1.1,2.2,1.7C189.2,77.8,189.9,77.7,189.7,77.6L189.7,77.6z"/>
					</g>
				</g>
			</g>
		</g>
		<rect x="159.2" y="95.4" class="st72" width="69.5" height="2.7"/>
		<g>
			<path class="st3" d="M216.7,153.2h-45.9c-4.1,0-7.4-3.3-7.4-7.4v-37.3c0-4.1,3.3-7.4,7.4-7.4h45.9c4.1,0,7.4,3.3,7.4,7.4v37.3
				C224,149.9,220.7,153.2,216.7,153.2z"/>
			<ellipse class="st3" cx="183.1" cy="101.6" rx="4" ry="2.6"/>
			<ellipse class="st3" cx="188" cy="102.2" rx="2.7" ry="2"/>
			<ellipse class="st3" cx="198.2" cy="105.8" rx="4.9" ry="5.6"/>
			<ellipse class="st3" cx="167.5" cy="122.1" rx="4.9" ry="5.6"/>
			<ellipse class="st3" cx="205.5" cy="104.7" rx="4.9" ry="5.6"/>
			<ellipse class="st3" cx="220.2" cy="110.3" rx="4.9" ry="5.6"/>
			<ellipse class="st3" cx="220.2" cy="125.9" rx="4.9" ry="5.6"/>
			<ellipse class="st3" cx="192.4" cy="103.1" rx="3.2" ry="3.2"/>
			<g>
				<ellipse class="st3" cx="177.6" cy="102.2" rx="2.7" ry="2"/>
				<ellipse class="st3" cx="173.2" cy="103.1" rx="3.2" ry="3.2"/>
			</g>
			<g>
				<ellipse class="st3" cx="186.2" cy="152.9" rx="4" ry="2.6"/>
				<ellipse class="st3" cx="191.1" cy="152.3" rx="2.7" ry="2"/>
				<ellipse class="st3" cx="201.4" cy="148.7" rx="4.9" ry="5.6"/>
				<ellipse class="st3" cx="208.7" cy="149.7" rx="4.9" ry="5.6"/>
				<ellipse class="st3" cx="195.6" cy="151.4" rx="3.2" ry="3.2"/>
				<ellipse class="st3" cx="215.3" cy="151.4" rx="3.2" ry="3.2"/>
				<g>
					<ellipse class="st3" cx="180.7" cy="152.3" rx="2.7" ry="2"/>
					<ellipse class="st3" cx="176.3" cy="151.4" rx="3.2" ry="3.2"/>
				</g>
			</g>
			<g>
				<ellipse class="st3" cx="195.4" cy="108.8" rx="4" ry="2.6"/>
				<ellipse class="st3" cx="200.3" cy="108.2" rx="2.7" ry="2"/>
				<ellipse class="st3" cx="210.5" cy="104.6" rx="4.9" ry="5.6"/>
				<ellipse class="st3" cx="217.8" cy="105.7" rx="4.9" ry="5.6"/>
				<ellipse class="st3" cx="204.7" cy="107.3" rx="3.2" ry="3.2"/>
				<g>
					<ellipse class="st3" cx="189.9" cy="108.2" rx="2.7" ry="2"/>
					<ellipse class="st3" cx="185.4" cy="107.3" rx="3.2" ry="3.2"/>
				</g>
			</g>
			<g>
				<ellipse class="st3" cx="164.3" cy="110.5" rx="1.8" ry="3"/>
				<ellipse class="st3" cx="165" cy="115.6" rx="2.8" ry="3.7"/>
			</g>
			<g>
				<ellipse class="st3" cx="164.3" cy="132.1" rx="1.8" ry="3"/>
				<ellipse class="st3" cx="165" cy="127.1" rx="2.8" ry="3.7"/>
			</g>
			<g>
				<ellipse class="st3" cx="164.3" cy="137.4" rx="1.8" ry="3"/>
				<ellipse class="st3" cx="165" cy="142.5" rx="2.8" ry="3.7"/>
			</g>
			<g>
				<ellipse class="st3" cx="170.4" cy="145.3" rx="1.8" ry="3"/>
				<ellipse class="st3" cx="171.2" cy="150.4" rx="2.8" ry="3.7"/>
			</g>
			<g>
				
					<ellipse transform="matrix(0.2684 -0.9633 0.9633 0.2684 28.3907 317.5571)" class="st3" cx="223.3" cy="140.1" rx="3" ry="1.8"/>
				
					<ellipse transform="matrix(0.1917 -0.9815 0.9815 0.1917 37.3108 335.5877)" class="st3" cx="222.4" cy="145.1" rx="3.7" ry="2.8"/>
			</g>
			<g>
				<ellipse transform="matrix(0.9633 -0.2684 0.2684 0.9633 -28.0423 64.8629)" class="st3" cx="223.3" cy="135" rx="1.8" ry="3"/>
				
					<ellipse transform="matrix(0.9815 -0.1917 0.1917 0.9815 -20.7881 45.0424)" class="st3" cx="222.4" cy="130" rx="2.8" ry="3.7"/>
			</g>
			<g>
				
					<ellipse transform="matrix(0.9633 -0.2684 0.2684 0.9633 -23.8568 64.2908)" class="st3" cx="223.3" cy="119.4" rx="1.8" ry="3"/>
				
					<ellipse transform="matrix(0.9815 -0.1917 0.1917 0.9815 -17.7982 44.7532)" class="st3" cx="222.4" cy="114.4" rx="2.8" ry="3.7"/>
			</g>
		</g>
		<g>
			<circle class="st69" cx="209.4" cy="76.4" r="5.9"/>
			<circle class="st70" cx="207.4" cy="73.8" r="1.8"/>
			<path class="st71" d="M210.7,72.2c0,0,0.1-0.1,0.1-0.2c0.2-0.3,0.3-0.9-0.2-1.5c-1.6-2-2.5-1.9-2.5-1.9c1.5,1.7,2.3,4,2.3,4
				l0.7,0c0.4,0,0.8,0.1,1.2,0.3l1.8,0.9C211.7,70.9,210.7,72.2,210.7,72.2s2-0.5,1.5-3.3"/>
		</g>
	</g>
	<g>
		<path class="st43" d="M168,121.7h4.7c3.8,0,6.1,1.6,6.1,5.8v0.4c0,4.1-2.3,6-6.1,6H168V121.7z M172.6,131.5c1.7,0,2.5-0.9,2.5-3.4
			v-0.6c0-2.6-1-3.3-2.6-3.3h-1.1v7.4H172.6z"/>
		<path class="st43" d="M180.2,128.1v-0.4c0-4.3,2.8-6.1,5.9-6.1c3.2,0,5.8,1.8,5.8,6.1v0.4c0,4.3-2.8,6.1-5.9,6.1
			C182.8,134.1,180.2,132.3,180.2,128.1z M188.4,128.2v-0.6c0-2.5-0.7-3.6-2.3-3.6c-1.5,0-2.3,1.1-2.3,3.4v0.6
			c0,2.6,0.8,3.6,2.3,3.6C187.6,131.6,188.4,130.5,188.4,128.2z"/>
		<path class="st43" d="M193.7,121.7h4.6l2.2,7.3h0.1l2.2-7.3h4.5v12.2h-3.4v-8.2h-0.1l-2.4,8.2H199l-2.4-8.2h-0.1v8.2h-2.8V121.7z"
			/>
		<path class="st43" d="M212.9,121.7h3.6l4.2,12.2h-3.5l-0.8-2.4h-4l-0.8,2.4h-3.1L212.9,121.7z M213.1,129.3h2.6l-1.3-4h-0.1
			L213.1,129.3z"/>
	</g>
</g>
<g id="레이어_1">
</g>
</svg>
