<?xml version="1.0" encoding="utf-8"?>
<!-- Generator: Adobe Illustrator 22.1.0, SVG Export Plug-In . SVG Version: 6.00 Build 0)  -->
<svg version="1.1" xmlns="http://www.w3.org/2000/svg" xmlns:xlink="http://www.w3.org/1999/xlink" x="0px" y="0px"
	 viewBox="0 0 388.8 203.5" style="enable-background:new 0 0 388.8 203.5;" xml:space="preserve">
<style type="text/css">
	.st0{fill:#242628;}
	.st1{fill:none;}
	.st2{fill:#FAFAFA;}
	.st3{fill:#FFFFFF;}
	.st4{clip-path:url(#SVGID_2_);}
	.st5{clip-path:url(#SVGID_4_);fill:#EBEBEB;}
	.st6{clip-path:url(#SVGID_6_);}
	.st7{clip-path:url(#SVGID_8_);fill:#F5F5F5;}
	.st8{clip-path:url(#SVGID_10_);}
	.st9{clip-path:url(#SVGID_12_);fill:#F5F5F5;}
	.st10{clip-path:url(#SVGID_14_);}
	.st11{clip-path:url(#SVGID_16_);fill:#F5F5F5;}
	.st12{clip-path:url(#SVGID_18_);}
	.st13{clip-path:url(#SVGID_20_);fill:#F5F5F5;}
	.st14{clip-path:url(#SVGID_22_);}
	.st15{clip-path:url(#SVGID_24_);fill:#F5F5F5;}
	.st16{clip-path:url(#SVGID_26_);}
	.st17{clip-path:url(#SVGID_28_);enable-background:new    ;}
	.st18{clip-path:url(#SVGID_30_);}
	.st19{clip-path:url(#SVGID_32_);fill:#573F35;}
	.st20{opacity:9.750000e-02;clip-path:url(#SVGID_34_);enable-background:new    ;}
	.st21{clip-path:url(#SVGID_36_);}
	.st22{clip-path:url(#SVGID_38_);}
	.st23{clip-path:url(#SVGID_42_);}
	.st24{clip-path:url(#SVGID_44_);fill:#C0ABA2;}
	.st25{clip-path:url(#SVGID_46_);}
	.st26{clip-path:url(#SVGID_48_);enable-background:new    ;}
	.st27{clip-path:url(#SVGID_50_);}
	.st28{clip-path:url(#SVGID_52_);fill:#573F35;}
	.st29{opacity:9.750000e-02;clip-path:url(#SVGID_54_);enable-background:new    ;}
	.st30{clip-path:url(#SVGID_56_);}
	.st31{clip-path:url(#SVGID_58_);}
	.st32{clip-path:url(#SVGID_62_);}
	.st33{clip-path:url(#SVGID_64_);fill:#C0ABA2;}
	.st34{fill:#004598;}
	.st35{fill:#63AA98;}
	.st36{fill:#FFFFFF;stroke:#333333;stroke-width:0.5817;stroke-miterlimit:10;}
	.st37{fill:none;stroke:#333333;stroke-width:1.1769;stroke-linecap:round;stroke-linejoin:round;stroke-miterlimit:10;}
	.st38{fill:none;stroke:#333333;stroke-width:0.7078;stroke-linecap:round;stroke-linejoin:round;}
	.st39{fill:none;stroke:#333333;stroke-width:0.3539;stroke-linecap:round;stroke-linejoin:round;stroke-miterlimit:10;}
	.st40{fill:none;stroke:#333333;stroke-width:0.7078;stroke-linecap:round;stroke-linejoin:round;stroke-miterlimit:10;}
	.st41{fill:none;stroke:#333333;stroke-width:0.177;stroke-linecap:round;stroke-linejoin:round;stroke-miterlimit:10;}
	.st42{fill:none;stroke:#333333;stroke-width:0.2574;stroke-linecap:round;stroke-linejoin:round;stroke-miterlimit:10;}
	.st43{fill:#333333;}
	
		.st44{clip-path:url(#SVGID_66_);fill:none;stroke:#333333;stroke-width:0.2584;stroke-linecap:round;stroke-linejoin:round;stroke-miterlimit:10;}
	
		.st45{clip-path:url(#SVGID_68_);fill:none;stroke:#333333;stroke-width:0.2584;stroke-linecap:round;stroke-linejoin:round;stroke-miterlimit:10;}
	.st46{fill:#1A4698;}
	.st47{clip-path:url(#SVGID_70_);}
	.st48{clip-path:url(#SVGID_72_);enable-background:new    ;}
	.st49{clip-path:url(#SVGID_74_);}
	.st50{clip-path:url(#SVGID_76_);fill:#EADCD7;}
	.st51{opacity:9.750000e-02;clip-path:url(#SVGID_78_);enable-background:new    ;}
	.st52{clip-path:url(#SVGID_80_);}
	.st53{clip-path:url(#SVGID_82_);}
	.st54{clip-path:url(#SVGID_86_);}
	.st55{clip-path:url(#SVGID_88_);fill:#957C71;}
	.st56{fill:#F5F5F5;}
	.st57{fill:#FF5058;}
	.st58{fill:#1AA6C8;}
	.st59{fill:#F7CF6B;}
	.st60{fill:#DC3A65;}
	.st61{fill:#189358;}
	.st62{fill:#DD3B65;}
	.st63{fill:#FFFFFF;stroke:#000000;stroke-width:0.5226;stroke-miterlimit:10;}
	.st64{fill:#1A1A1A;}
	.st65{fill:#560B01;}
	.st66{fill:#6A0B08;}
	.st67{fill:#366D59;}
	.st68{fill:#284763;}
	.st69{fill:#EEECE9;}
	.st70{fill:#958E8B;}
	.st71{fill:#161113;}
	.st72{fill:#1D1619;}
	.st73{fill:#E6AA54;}
	.st74{fill:#FE8A29;}
	.st75{fill:#4D7465;}
	.st76{fill:#A6DDDB;}
	.st77{fill:#55AED0;}
	.st78{fill:none;stroke:#333333;stroke-width:1.8612;stroke-linecap:round;stroke-linejoin:round;stroke-miterlimit:10;}
	.st79{fill:#FFFFFF;stroke:#333333;stroke-width:2;stroke-miterlimit:10;}
	.st80{fill:none;stroke:#333333;stroke-width:0.5597;stroke-linecap:round;stroke-linejoin:round;stroke-miterlimit:10;}
	.st81{fill:none;stroke:#333333;stroke-width:1.1194;stroke-linecap:round;stroke-linejoin:round;stroke-miterlimit:10;}
	.st82{fill:none;stroke:#333333;stroke-width:0.4071;stroke-linecap:round;stroke-linejoin:round;stroke-miterlimit:10;}
	
		.st83{clip-path:url(#SVGID_94_);fill:none;stroke:#333333;stroke-width:0.4087;stroke-linecap:round;stroke-linejoin:round;stroke-miterlimit:10;}
	
		.st84{clip-path:url(#SVGID_96_);fill:none;stroke:#333333;stroke-width:0.4087;stroke-linecap:round;stroke-linejoin:round;stroke-miterlimit:10;}
	.st85{fill:#242628;stroke:#333333;stroke-linecap:round;stroke-miterlimit:10;}
	.st86{fill:#76D0D1;stroke:#FAFAFA;stroke-width:7;stroke-miterlimit:10;}
	.st87{fill:#F70000;}
	.st88{fill:#E5E5E5;}
	.st89{fill:#957C71;}
	.st90{fill:#EB6B36;}
	.st91{fill:#EC9369;}
	.st92{fill:#4F7645;}
	.st93{fill:#AD8454;}
	.st94{fill:#7E5426;}
	.st95{fill:#FFFFFF;stroke:#000000;stroke-width:0.5531;stroke-miterlimit:10;}
	.st96{fill:#CE3556;}
	.st97{fill:#4FA9BB;}
	.st98{fill:#F1BD5A;}
	.st99{clip-path:url(#SVGID_100_);}
	.st100{clip-path:url(#SVGID_102_);}
	.st101{clip-path:url(#SVGID_104_);fill:#957C71;}
	.st102{clip-path:url(#SVGID_100_);fill:#957C71;}
	.st103{clip-path:url(#SVGID_106_);}
	.st104{clip-path:url(#SVGID_108_);}
	.st105{clip-path:url(#SVGID_110_);fill:#603F33;}
	.st106{clip-path:url(#SVGID_106_);fill:#603F33;}
	.st107{fill:#EA5D4E;}
	.st108{fill:#F9918A;}
	.st109{fill:#020202;}
	.st110{fill:#DB9B2C;}
	.st111{fill:#E5BB53;}
	.st112{fill:#F4D983;}
	.st113{fill:#E9BE5D;}
	.st114{clip-path:url(#SVGID_112_);}
	.st115{clip-path:url(#SVGID_114_);}
	.st116{clip-path:url(#SVGID_116_);}
	.st117{clip-path:url(#SVGID_118_);enable-background:new    ;}
	.st118{clip-path:url(#SVGID_120_);}
	.st119{clip-path:url(#SVGID_122_);fill:#EADCD7;}
	.st120{opacity:9.750000e-02;clip-path:url(#SVGID_124_);enable-background:new    ;}
	.st121{clip-path:url(#SVGID_126_);}
	.st122{clip-path:url(#SVGID_128_);}
	.st123{clip-path:url(#SVGID_132_);}
	.st124{clip-path:url(#SVGID_134_);fill:#957C71;}
</style>
<g id="레이어_2">
</g>
<g id="레이어_1">
	<g>
		<g>
			<g>
				<g>
					<g>
						<path class="st43" d="M114.8,75.4h-7.6l-3.6-19.8l-1.7-11h5.9l3.1,24.2l3.1-24.2h5.9l-1.7,11.1L114.8,75.4z"/>
						<path class="st43" d="M123,44.6h5.8v30.9H123V44.6z"/>
						<path class="st43" d="M133.5,44.6h7.7c4.7,0,7,2.2,7,6.7v4.6c0,2.8-1.3,4.6-3.8,5.4l5.6,14.2h-6.4l-4-13.3h-0.3v13.3h-5.8
							V44.6z M139.4,49.5v8h0.7c0.6,0,1,0,1.2-0.1c0.7-0.3,1.1-0.8,1.1-1.6v-4.6c0-1.2-0.6-1.8-1.7-1.8H139.4z"/>
						<path class="st43" d="M165.7,44.6v4.9h-4.6v25.9h-5.8V49.5h-4.6v-4.9H165.7z"/>
						<path class="st43" d="M183.8,69.3c0,4.4-2.5,6.7-7.6,6.7c-5,0-7.5-2.2-7.5-6.7V44.6h5.8v24.7c0,1.2,0.6,1.7,1.7,1.7
							c1.2,0,1.7-0.6,1.7-1.7V44.6h5.8V69.3z"/>
						<path class="st43" d="M202.9,64.4l1.7,11.1h-5.9l-1-6.4h-4.3l-1,6.4h-5.9l1.7-11l3.6-19.8h7.6L202.9,64.4z M197,64.1l-1.4-9.3
							l-1.4,9.3H197z"/>
						<path class="st43" d="M207.6,75.4V44.6h5.8v25.9h7.9v4.9H207.6z"/>
					</g>
					<g>
						<path class="st43" d="M103.6,86.5h7.7c4.7,0,7,2.2,7,6.7v4.6c0,2.8-1.3,4.6-3.8,5.4l5.6,14.2h-6.4l-4-13.3h-0.3v13.3h-5.8
							V86.5z M109.4,91.4v8h0.7c0.6,0,1,0,1.2-0.1c0.7-0.3,1.1-0.8,1.1-1.6v-4.6c0-1.2-0.6-1.8-1.7-1.8H109.4z"/>
						<path class="st43" d="M121.9,86.5h13.7v4.9h-7.9v8h6.8v4.9h-6.8v8h7.9v4.9h-13.7V86.5z"/>
						<path class="st43" d="M154.1,106.3l1.7,11.1h-5.9l-1-6.4h-4.3l-1,6.4h-5.9l1.7-11l3.6-19.8h7.6L154.1,106.3z M148.2,106
							l-1.4-9.3l-1.4,9.3H148.2z"/>
						<path class="st43" d="M158.8,117.3V86.5h5.8v25.9h7.9v4.9H158.8z"/>
						<path class="st43" d="M175.6,86.5h5.8v30.9h-5.8V86.5z"/>
						<path class="st43" d="M199.7,86.5v4.9h-4.6v25.9h-5.8V91.4h-4.6v-4.9H199.7z"/>
						<path class="st43" d="M207.5,86.5l3,11.9l3-11.9h6.2l-6.1,17.6l-0.1,0.3v13h-5.8v-13l-0.1-0.3l-6.1-17.6H207.5z"/>
					</g>
				</g>
			</g>
			<g>
				<g>
					<path class="st43" d="M102,127.6h7.4c4.6,0,6.8,2.2,6.8,6.5v4.4c0,2.7-1.2,4.5-3.7,5.3l5.5,13.8h-6.2l-3.9-12.9h-0.3v12.9H102
						V127.6z M107.6,132.3v7.8h0.7c0.6,0,1,0,1.2-0.1c0.7-0.2,1.1-0.8,1.1-1.6V134c0-1.1-0.6-1.7-1.7-1.7H107.6z"/>
					<path class="st43" d="M119.8,127.6h13.3v4.8h-7.7v7.8h6.6v4.8h-6.6v7.8h7.7v4.8h-13.3V127.6z"/>
					<path class="st43" d="M136.7,127.6h7.4c4.6,0,6.8,2.2,6.8,6.5v4.4c0,3.2-1.6,5.2-4.9,6.1c-0.8,0.2-1.9,0.3-3.4,0.3h-0.4v12.6
						h-5.7V127.6z M142.3,132.3v7.8h0.7c0.6,0,1,0,1.2-0.1c0.7-0.2,1.1-0.8,1.1-1.6V134c0-1.1-0.6-1.7-1.7-1.7H142.3z"/>
					<path class="st43" d="M168.8,151.6c0,4.3-2.4,6.5-7.3,6.5c-4.9,0-7.3-2.2-7.3-6.5v-17.9c0-4.3,2.4-6.5,7.3-6.5
						c4.9,0,7.3,2.2,7.3,6.5V151.6z M163.2,133.6c0-1.1-0.6-1.7-1.7-1.7h0c-1.1,0-1.6,0.6-1.6,1.7v17.9c0,1.1,0.6,1.7,1.7,1.7
						c1.1,0,1.7-0.6,1.7-1.7V133.6z"/>
					<path class="st43" d="M172.9,127.6h7.4c4.6,0,6.8,2.2,6.8,6.5v4.4c0,2.7-1.2,4.5-3.7,5.3l5.5,13.8h-6.2l-3.9-12.9h-0.3v12.9
						h-5.7V127.6z M178.5,132.3v7.8h0.7c0.6,0,1,0,1.2-0.1c0.7-0.2,1.1-0.8,1.1-1.6V134c0-1.1-0.6-1.7-1.7-1.7H178.5z"/>
					<path class="st43" d="M204.1,127.6v4.8h-4.5v25.2H194v-25.2h-4.5v-4.8H204.1z"/>
				</g>
			</g>
		</g>
		<g>
			<polyline class="st88" points="210.8,157.5 210.8,157 210.1,157 209.7,157 209.7,157.7 209.7,159 210.8,159 232.2,159 
				232.2,158.4 232.2,157.1 231.9,157.1 231.9,157 216.4,157 210.8,157 210.8,157.5 216.4,157.6 			"/>
			<path class="st1" d="M217.5,149.3c0.9,0,1.6,0.1,2.3,0.3c0.3-0.3,0.7-0.5,1.1-0.5h0c0.9-1.6,2.1-4,3.6-6.8h-2.5
				c-0.6,0-1.2-0.1-1.8-0.2l-4,7.3c0,0,0,0,0,0C216.6,149.3,217,149.3,217.5,149.3z"/>
			<path class="st1" d="M231.8,149.1h0.1c0.8,0,1.5,0.7,1.5,1.5c0,0.8-0.7,1.5-1.5,1.5v4.9h0.2v0.1h6.6v-0.2c0-0.6,0.5-1.1,1.1-1.1
				h5.9c0-0.1,0-0.2,0-0.3v-1c0-0.9,0.7-1.6,1.6-1.6h1.8v-5.3c-1.1,0-2-1-2-2.1v-1.8c0-0.5,0.2-1,0.5-1.4h-12.2L231.8,149.1z"/>
			<path class="st1" d="M240.1,99.3l-1.4-2.5h-4.1l5.8,4.4l1.5-1.2C241.2,100.2,240.4,100,240.1,99.3z"/>
			<path class="st64" d="M261.7,158.4h12v-1.3h-10.9v0.3C262.8,158,262.3,158.4,261.7,158.4z"/>
			<path class="st64" d="M238.8,157.4v-0.3h-6.6v1.3h7.7C239.3,158.4,238.8,158,238.8,157.4z"/>
			<path d="M254.5,157.1h8.2v-0.2c0-0.6-0.5-1.1-1.1-1.1h-5.9C255.7,156.5,255.2,157,254.5,157.1z"/>
			<path d="M238.8,156.9v0.2h8.2c-0.6-0.1-1.1-0.6-1.3-1.3h-5.9C239.3,155.8,238.8,156.3,238.8,156.9z"/>
			<path d="M254.2,157.1h-6.8c-0.1,0-0.2,0-0.3,0h-8.2v0.3c0,0.6,0.5,1.1,1.1,1.1h21.8c0.6,0,1.1-0.5,1.1-1.1v-0.3h-8.2
				C254.4,157.1,254.3,157.1,254.2,157.1z"/>
			<path class="st64" d="M249.2,147.6C249.2,147.6,249.2,147.6,249.2,147.6l-0.1,5.3h3.2v-5.3c0,0,0,0-0.1,0H249.2z"/>
			<path d="M249.2,153.8v-0.9h-1.8c-0.9,0-1.6,0.7-1.6,1.6v1c0,0.1,0,0.2,0,0.3h10c0-0.1,0-0.2,0-0.3v-1c0-0.9-0.7-1.6-1.6-1.6h-1.8
				v0.9H249.2z"/>
			<path d="M247,157.1h7.5c0.6-0.1,1.1-0.6,1.3-1.3h-10C245.9,156.5,246.4,157,247,157.1z"/>
			<path d="M254.2,157.1c0.1,0,0.2,0,0.3,0H247c0.1,0,0.2,0,0.3,0H254.2z"/>
			<rect x="249.2" y="152.9" width="3.2" height="0.9"/>
			<path d="M247.1,143.6v1.8c0,1.1,0.9,2.1,2,2.1v-1.4h3.2v1.4c1.1,0,2-1,2-2.1v-1.8c0-0.5-0.2-1-0.5-1.4h-6.3
				C247.3,142.6,247.1,143.1,247.1,143.6z"/>
			<path d="M249.2,146.2v1.4c0,0,0,0,0.1,0h3.1c0,0,0,0,0.1,0v-1.4H249.2z"/>
			<path class="st65" d="M259.6,86.4c-0.3-0.6-0.5-1.2-0.6-1.6c-0.3,0-0.6,0-0.9,0c-1,0-2-0.2-2.9-0.4c-0.5,0.6-0.8,1.4-1,2.2
				l-0.7,3.4c1.5-1.4,2.9-2.6,3.3-2.9C257.4,86.5,258.9,86.4,259.6,86.4z"/>
			<path class="st65" d="M271.1,121.6c0.1,0.4,0.1,0.9,0.1,1.5c0,4.8-7.2,4.7-7.2,4.7h6.4c3.1,0,5.7,1.9,6.7,4.7l9.5-43.5
				c0.8-3.9-2.6-7.5-7.1-7.5h-13.9c-0.1,0.1-0.2,0.2-0.3,0.3c0.4,0.9,1.4,3.3,2,4.6l1.5,0c0,0,4.1-0.4,6.7,2.2
				c2.7,2.7,1.2,8.9,1.2,8.9"/>
			<polygon class="st65" points="250.1,105.8 250,105.8 247.4,117.6 247.7,117.6 			"/>
			<path class="st65" d="M235.5,142.3h12.2c0.4-0.5,1-0.7,1.6-0.7h1.7c-4.5,0-7.9-3.6-7.1-7.5l1.3-6.2h-1.9L235.5,142.3z"/>
			<path class="st65" d="M224.4,142.3c2.5-4.7,5.5-10.4,7.7-14.4h-4.3l-7.7,14.2c0.6,0.2,1.2,0.2,1.8,0.2H224.4z"/>
			<path class="st65" d="M269.3,141.5h-16.9c0.6,0,1.2,0.3,1.6,0.7h16.5c4,0,7.2-3.2,7.2-7.2v0c0-0.9-0.2-1.8-0.5-2.6l-0.8,3.9
				C275.7,139.4,272.7,141.5,269.3,141.5z"/>
			<path class="st65" d="M252.3,141.5H251h-1.7c-0.6,0-1.2,0.3-1.6,0.7h6.3C253.5,141.8,253,141.5,252.3,141.5z"/>
			<path class="st65" d="M270.5,127.8h-6.4h-18.8l-1.3,6.2c-0.8,3.9,2.6,7.5,7.1,7.5h1.4h16.9c3.5,0,6.5-2.2,7.1-5.1l0.8-3.9
				C276.2,129.8,273.5,127.8,270.5,127.8z M269.7,139h-21.2c-2.2,0-4-1.8-4-4c0-2.2,1.8-4,4-4h21.2c2.2,0,4,1.8,4,4
				C273.7,137.2,271.9,139,269.7,139z"/>
			<path class="st66" d="M269.7,131h-21.2c-2.2,0-4,1.8-4,4c0,2.2,1.8,4,4,4h21.2c2.2,0,4-1.8,4-4C273.7,132.8,271.9,131,269.7,131z
				"/>
			<path class="st67" d="M249.6,96.1l2.2,1.7l1.7-7.8c-1.9,1.7-4.2,3.8-5.4,4.9l0.2,0.2"/>
			<path class="st67" d="M276.8,97.5c0,0,1.5-6.2-1.2-8.9c-2.7-2.7-6.7-2.2-6.7-2.2l-1.5,0c0.2,0.4,0.3,0.7,0.3,0.8
				c0.1,0.6,0.2,2.6-1.4,3.4c-1.6,0.8-3.6,0.4-4.6-0.3c-0.5-0.4-1.4-2.3-2-3.9c-0.8,0-2.2,0.2-2.9,0.7c-0.4,0.3-1.7,1.5-3.3,2.9
				l-1.7,7.8l4.6,3.5l8.1-6.4l4.9,5.4c0,0-9.7,8.8-11.9,9.5c-2.2,0.7-4.1-1.3-4.1-1.3l-3.2-2.6l-3.5,11.8h19c1.2,0,2.3,0.3,3.3,0.9
				c0.9,0.6,1.9,1.2,2.2,3"/>
			<g>
				<path class="st68" d="M229.6,120.5c0.3,0.5,0.3,1.2,0.3,1.9c-0.1,1.2-0.4,2.4-1,3.5l-1.1,2h4.3c1.4-2.6,2.4-4.5,2.7-5.1
					c1.3-2.4,2.8-4.7,5.4-5.1h-14.1C227.8,117.9,229,119.3,229.6,120.5z"/>
				<path class="st68" d="M271.1,121.6c-0.3-1.8-1.3-2.4-2.2-3c-1-0.6-2.1-0.9-3.3-0.9h-18h-0.2h-5.9c1.8,0.3,2.9,1.6,3.5,2.9
					c0.3,0.5,0.3,1.2,0.3,1.9c-0.1,1.2-0.4,2.4-1,3.5l-1.1,2h1.9h18.8c0,0,7.2,0,7.2-4.7C271.3,122.5,271.2,122.1,271.1,121.6z"/>
			</g>
			<path class="st69" d="M240.2,117.6h1.4C241.1,117.6,240.7,117.6,240.2,117.6z"/>
			<path class="st69" d="M245.1,120.5c-0.6-1.3-1.8-2.6-3.5-2.9h-1.4c-2.5,0.4-4,2.7-5.4,5.1c-0.3,0.6-1.4,2.5-2.7,5.1
				c-2.2,4-5.2,9.7-7.7,14.4c-1.5,2.7-2.7,5.2-3.6,6.8h11l3.7-6.8l7.8-14.4l1.1-2c0.6-1.1,0.9-2.2,1-3.5
				C245.4,121.8,245.4,121.1,245.1,120.5z"/>
			<path class="st69" d="M224.7,117.6h1.4C225.6,117.6,225.2,117.6,224.7,117.6z"/>
			<path class="st69" d="M229.6,120.5c-0.6-1.3-1.8-2.6-3.5-2.9h-1.4c-0.3,0-0.7,0.1-1,0.2c-2,0.7-3.2,2.8-4.4,4.9
				c-1.1,2-10.7,20.1-14,26.3h9.9c0.3,0,0.6,0.1,0.9,0.3l4-7.3l7.7-14.2l1.1-2c0.6-1.1,0.9-2.2,1-3.5
				C229.9,121.8,229.9,121.1,229.6,120.5z"/>
			<path class="st3" d="M231.9,151.5v0.6c0.8,0,1.5-0.7,1.5-1.5c0-0.8-0.7-1.5-1.5-1.5h-0.1l-1.3,2.5L231.9,151.5z"/>
			<path class="st3" d="M228,151.6l-5.6-0.3c0.2,0.3,0.3,0.4,0.3,0.4L228,151.6z"/>
			<path class="st3" d="M220.8,149.1L220.8,149.1c-0.4,0-0.8,0.2-1.1,0.5c0.3,0.1,0.5,0.2,0.7,0.3
				C220.6,149.6,220.7,149.3,220.8,149.1z"/>
			<path class="st3" d="M220.4,149.8c1,0.4,1.6,1.1,1.9,1.5l5.6,0.3l2.4-0.1l1.3-2.5h-11C220.7,149.3,220.6,149.6,220.4,149.8z"/>
			<path class="st3" d="M205.3,149.1h-1.2c-0.3,0-0.6,0.1-0.9,0.3c0.7,0.1,1.2,0.3,1.7,0.5C205.1,149.6,205.2,149.3,205.3,149.1z"/>
			<path class="st3" d="M216.1,149.4L216.1,149.4C216.1,149.4,216.1,149.4,216.1,149.4C216.1,149.4,216.1,149.4,216.1,149.4z"/>
			<path class="st3" d="M206.8,151.3c0.2,0.3,0.3,0.4,0.3,0.4l4.4-0.1c0,0,0-0.1,0.1-0.1L206.8,151.3z"/>
			<path class="st3" d="M206.8,151.3l4.8,0.3c1-1,2.5-1.9,4.5-2.2l0,0c-0.3-0.2-0.6-0.3-0.9-0.3h-9.9c-0.1,0.3-0.3,0.5-0.4,0.7
				C205.9,150.3,206.5,150.9,206.8,151.3z"/>
			<path class="st69" d="M248.4,104.5l-2,1.6C247.1,105.6,247.8,105.1,248.4,104.5z"/>
			<path class="st69" d="M242.3,99.9c-0.1,0.1-0.3,0.1-0.4,0.2l-1.5,1.2l-5.8-4.4h-1.2l0.5,0.9c0.4,0.8,0.2,1.8-0.6,2.2h0
				c-0.8,0.4-1.8,0.2-2.2-0.6l-1.4-2.5h-1.2c-0.7,0-1.3-0.4-1.5-1.1l-0.8-1.9c-0.5-1.2,0.3-2.5,1.5-2.5h0.2l-0.6-0.5
				c-0.6-0.5-1.3-0.8-2-0.9c-0.2,0-0.5,0-0.7,0c-0.9,0.1-1.8,0.6-2.4,1.2c-0.6,0.6-1.4,1.6-1.2,3.1c0.1,0.6,0.5,1.3,0.9,1.8
				c0.3,0.4,0.6,0.7,1,1l14.5,11.5c0,0,1.9,2,4.1,1.3c0.9-0.3,2.8-1.8,5-3.5l-3.9-6.4l6,4.7l0,0l-6-4.7
				C242.4,99.8,242.4,99.9,242.3,99.9z"/>
			<path class="st69" d="M229.6,89.5c-1,0-1.2,1.1-1.2,1.7h2.4C230.7,90.8,230.6,89.5,229.6,89.5z"/>
			<path class="st70" d="M246.4,106.2L246.4,106.2C246.4,106.2,246.4,106.2,246.4,106.2L246.4,106.2z"/>
			<path class="st70" d="M248.4,104.5L248.4,104.5C248.4,104.5,248.4,104.5,248.4,104.5L248.4,104.5z"/>
			<path class="st70" d="M246.4,106.2C246.4,106.2,246.4,106.2,246.4,106.2l2-1.7c0,0,0,0,0,0l-6-4.7L246.4,106.2z"/>
			<path class="st71" d="M237.9,91.3C237.9,91.3,237.9,91.3,237.9,91.3l-7.2,0c0,0,0,0,0,0H237.9z"/>
			<path class="st71" d="M227.9,91.3h0.4c0,0,0,0,0,0h-0.5L227.9,91.3C227.9,91.3,227.9,91.3,227.9,91.3z"/>
			<path class="st71" d="M230.8,91.3C230.7,91.3,230.7,91.3,230.8,91.3l-2.4,0c0,0,0,0,0,0H230.8z"/>
			<path class="st71" d="M241.9,100.1c0.1,0,0.3-0.1,0.4-0.2c0.1,0,0.1-0.1,0.2-0.1l-0.1-0.1L241.9,100.1z"/>
			<path class="st72" d="M238.8,96.8c-0.4-0.3-0.7-0.6-1-1c-0.2-0.3-0.5-0.6-0.6-1c-0.1-0.3-0.2-0.5-0.3-0.8c-0.1-1.3,0.5-2.2,1-2.8
				h-7.2h-2.4h-0.4c0,0-0.1,0-0.1,0l0,0h-0.2c-1.2,0-2,1.3-1.5,2.5l0.8,1.9c0.3,0.7,0.9,1.1,1.5,1.1h1.2l1.4,2.5
				c0.4,0.8,1.5,1,2.2,0.6l0,0c0.8-0.4,1-1.5,0.6-2.2l-0.5-0.9h1.2h4.1l1.4,2.5c0.4,0.6,1.1,0.9,1.8,0.8l0.5-0.4L238.8,96.8z"/>
			<path class="st69" d="M259,84.8C259,84.8,259,84.8,259,84.8c0.1,0.4,0.3,0.9,0.6,1.6c0,0,0,0,0,0L259,84.8z"/>
			<path class="st70" d="M259,84.8l0.6,1.6l0.6,1.5c0,0,0.8-0.4,2.1-1.5c0.3-0.2,0.6-0.5,0.9-0.8c1.3-1.2,1.5-2.5,1.4-3.1
				C263.1,83.8,261.1,84.6,259,84.8z"/>
			<path class="st69" d="M259,84.8c-0.1-0.3-0.2-0.5-0.2-0.5l6.5-2.8h-4c-2.6,0-4.8,1.2-6.1,3c0.9,0.3,1.9,0.4,2.9,0.4
				C258.4,84.9,258.7,84.9,259,84.8z"/>
			<path class="st69" d="M258.8,84.3c0,0,0.1,0.2,0.2,0.5c0,0,0,0,0,0L258.8,84.3z"/>
			<path class="st69" d="M258.8,84.3l5.8-2.3c0,0,0,0.1,0,0.4c0.3-0.2,0.5-0.4,0.7-0.7c-0.1-0.2-0.1-0.3-0.1-0.3L258.8,84.3z"/>
			<g>
				<path class="st69" d="M260.2,87.9L260.2,87.9C260.2,87.9,260.2,87.9,260.2,87.9L260.2,87.9z"/>
				<path class="st69" d="M267.4,86.4c-0.5-1.3-1.6-3.7-2-4.6c-0.2,0.2-0.5,0.5-0.7,0.7c0,0.6-0.2,1.9-1.4,3.1
					c-0.3,0.3-0.6,0.6-0.9,0.8c-1.3,1-2.1,1.5-2.1,1.5c0.5,1.1,1,2.1,1.4,2.4c0.9,0.7,3,1.2,4.6,0.3c1.6-0.8,1.5-2.8,1.4-3.4
					C267.6,87.1,267.5,86.8,267.4,86.4z"/>
				<path class="st69" d="M268.8,74.4c-1.1,0-1.7-0.2-1.7-0.2s-2,2.6-2.7,2.9s-3.1,0.2-3.1,0.2s-1.1-0.1-1.1-0.6
					c0-0.6,2.8-0.4,2.8-0.4s0.8,0,1.4-0.8c0.6-0.8,0.7-1.6,0.4-2c-0.2-0.4-1.1-1.8-1.4-1.8c-0.3,0-2,0-2,0v0.5c0,1.3-1,2.3-2.3,2.3
					h-4.1h-7.7c0.5,4.8,3.6,8.7,7.8,9.9c1.3-1.8,3.6-3,6.1-3h4c0,0,0.1,0.1,0.1,0.3c0.1-0.1,0.2-0.2,0.3-0.3
					C267.4,79.6,268.6,77.2,268.8,74.4z M252.1,76.5c-0.1,0.1-0.4,0-0.6-0.3c-0.2-0.3-0.3-0.5-0.2-0.7c0.1-0.1,0.4,0,0.6,0.3
					C252.1,76.1,252.2,76.4,252.1,76.5z M253.4,76.5c-0.1,0.1-0.4,0-0.6-0.3c-0.2-0.3-0.3-0.5-0.2-0.7c0.1-0.1,0.4,0,0.6,0.3
					S253.5,76.4,253.4,76.5z M255.4,80.4c-0.7,0-1.3-0.4-1.3-1c0-0.6,0.6-1,1.3-1s1.3,0.4,1.3,1C256.8,79.9,256.2,80.4,255.4,80.4z"
					/>
				<path class="st69" d="M258.8,84.3l0.2,0.5c2.1-0.2,4.1-1.1,5.7-2.4c0-0.2,0-0.4,0-0.4L258.8,84.3z"/>
			</g>
			<g>
				<path class="st73" d="M277.7,64.5h-5.8c0.6,0.4,1.4,1.2,1.7,2.3h4.1c0.6,0,1.1-0.5,1.1-1.1v-0.1C278.8,65,278.3,64.5,277.7,64.5
					z"/>
				<path class="st73" d="M262.4,60.3c-0.3-2.4-1.1-3.9-2.2-4.8c-0.7-0.5-1.3-0.9-1.7-1.1c0,0,0.1-0.1,0.2-0.3
					c0.1-0.1,0.1-0.3,0.1-0.4c0-0.5-0.4-1-1-1c-0.5,0-1,0.4-1,1c0,0.2,0,0.3,0.1,0.4h-2.8c-3.5,0-6.4,3.4-6.4,6.9v1.3h6.6h0.7h4.1
					c1.3,0,2.3,1,2.3,2.3v1.9h1c0-0.7,0.1-2.3,0.1-3.9C262.5,61.9,262.5,61,262.4,60.3z"/>
				<path class="st73" d="M261.9,54.2h-2.3c1.2,0.1,2.7,0.5,3.4,1.8c1.2,2.2,1.3,3.2,1.3,4.5c0,0.6,0,2.1,0,3.3c0,0.9,0,1.8,0,2.2
					c0.3-0.4,0.7-0.8,1.2-1.2c0,0,0,0,0,0c1-0.7,2.2-1.1,2.2-1.1l0.9-1.1v-3.2C268.6,56,265.4,54.2,261.9,54.2z"/>
			</g>
			<path class="st74" d="M262.9,56c-0.7-1.3-2.2-1.7-3.4-1.8h-0.9c-0.1,0.1-0.1,0.1-0.1,0.2c0.4,0.2,1,0.6,1.7,1.1
				c1.1,0.8,1.9,2.4,2.2,4.8c0.1,0.7,0.1,1.6,0.1,2.4c0,1.6-0.1,3.1-0.1,3.9h1.4c0,0,0.1-0.3,0.4-0.6c0-0.5,0-1.3,0-2.2
				c0-1.3,0-2.7,0-3.3C264.3,59.2,264.1,58.2,262.9,56z"/>
			<ellipse class="st70" cx="255.4" cy="79.4" rx="1.3" ry="1"/>
			<path class="st75" d="M207.1,151.7c0,0-0.1-0.2-0.3-0.4c-0.3-0.4-0.9-1-1.9-1.5c-0.5-0.2-1-0.4-1.7-0.5c-0.4-0.1-0.8-0.1-1.3-0.1
				c-4,0.1-6.3,2.1-7,4c-0.5,1.3-0.5,2.9-0.4,3.7h15.1h0.4c-0.1-0.8-0.1-2.4,0.4-3.7c0.1-0.4,0.3-0.7,0.6-1.1
				c0.1-0.2,0.3-0.3,0.4-0.5L207.1,151.7z"/>
			<path class="st56" d="M194.6,157.5c0,0,0-0.2-0.1-0.5h0v2h15.2v-1.3L194.6,157.5z"/>
			<path class="st56" d="M209.7,157.7V157h-15.1c0,0.3,0.1,0.5,0.1,0.5L209.7,157.7z"/>
			<polygon class="st67" points="230.4,151.5 228,151.6 230.3,151.7 			"/>
			<path class="st67" d="M211.6,151.6C211.6,151.6,211.6,151.6,211.6,151.6l0.9,0.1L211.6,151.6z"/>
			<g>
				<path class="st67" d="M230.4,151.5l-0.1,0.2l-2.3-0.1l-5.4,0.1c0,0-0.1-0.2-0.3-0.4c-0.3-0.4-0.9-1.1-1.9-1.5
					c-0.2-0.1-0.5-0.2-0.7-0.3c-0.6-0.2-1.4-0.3-2.3-0.3c-0.5,0-0.9,0.1-1.3,0.1c0,0,0,0,0,0c-2.1,0.3-3.5,1.2-4.5,2.2l0.9,0.1
					l2.4-0.1l-0.1,0.2l-2.3-0.1l-1,0c-0.2,0.2-0.3,0.3-0.4,0.5c-0.3,0.4-0.5,0.7-0.6,1.1c-0.5,1.3-0.5,2.9-0.4,3.7h0.7h5.6h15.6
					v-4.9v-0.6L230.4,151.5z"/>
			</g>
			<polygon class="st67" points="214.8,151.7 214.9,151.5 212.5,151.6 			"/>
			<rect x="231.9" y="157" class="st3" width="0.2" height="0.1"/>
			<path class="st69" d="M248.4,104.5l1.6,1.3l0.7-3.2C250,103.2,249.2,103.8,248.4,104.5z"/>
			<path class="st69" d="M250.8,102.5C250.7,102.5,250.7,102.5,250.8,102.5l-0.7,3.3l0.1,0.1L250.8,102.5z"/>
			<polygon class="st69" points="251.7,97.8 249.6,96.1 251.6,98.3 			"/>
			<path class="st69" d="M247.3,95.8l0.9-0.7l-0.2-0.2c-0.5,0.5-0.9,0.8-0.9,0.8L247.3,95.8z"/>
			<path class="st69" d="M251.4,99.4l-0.7,3.2c0,0,0,0,0,0L251.4,99.4L251.4,99.4z"/>
			<polygon class="st69" points="249.6,96.1 248.2,95.1 247.3,95.8 251.4,99.4 251.6,98.3 			"/>
			<path class="st69" d="M251.6,98.3l-0.2,1l0,0l-0.6,3.2c1.5-1.3,2.6-2.3,2.6-2.3L251.6,98.3z"/>
			<path class="st69" d="M242.5,99.8c0.2-0.2,0.3-0.3,0.5-0.5l-0.6,0.5L242.5,99.8z"/>
			<g>
				<path class="st69" d="M264.4,94.9l-8.1,6.4l-4.6-3.5l-0.1,0.6l1.7,1.9c0,0-1.1,1-2.6,2.3l-0.7,3.3l3.2,2.6c0,0,1.9,2,4.1,1.3
					c2.2-0.7,11.9-9.5,11.9-9.5L264.4,94.9z"/>
				<path class="st69" d="M251.4,99.4l-4.1-3.6l-0.1-0.1c0,0,0.3-0.3,0.9-0.8l-1.3-1v-2.3c0,0,0.1-2-1.2-2c-1.3,0-1.2,2.2-1.2,2.2
					l-1.1-0.9c-0.6-0.5-1.3-0.8-2-0.9c-0.2,0-0.5,0-0.7,0c-0.9,0.1-1.8,0.6-2.4,1.2c-0.1,0.1-0.1,0.1-0.2,0.2c0,0,0,0,0,0
					c-0.5,0.6-1.1,1.5-1,2.8c0,0.3,0.1,0.5,0.3,0.8c0.2,0.3,0.4,0.7,0.6,1c0.3,0.4,0.6,0.7,1,1l3.6,2.8l0.6-0.5
					c-0.1,0.2-0.3,0.4-0.5,0.5l6,4.7c0.8-0.7,1.6-1.4,2.3-2L251.4,99.4z"/>
			</g>
			<path class="st70" d="M252.5,75.6c-0.1,0.1,0,0.4,0.2,0.7c0.2,0.3,0.5,0.4,0.6,0.3c0.1-0.1,0-0.4-0.2-0.7
				C252.9,75.6,252.6,75.5,252.5,75.6z"/>
			<path class="st70" d="M251.3,75.6c-0.1,0.1,0,0.4,0.2,0.7c0.2,0.3,0.5,0.4,0.6,0.3c0.1-0.1,0-0.4-0.2-0.7
				C251.7,75.6,251.4,75.5,251.3,75.6z"/>
			<path class="st71" d="M240.2,72.2v-7.5c0-1.3,1-2.3,2.3-2.3h-0.4c-1.3,0-2.3,1-2.3,2.3v7.5c0,1.3,1,2.3,2.3,2.3h0.4
				C241.2,74.5,240.2,73.5,240.2,72.2z"/>
			<path class="st72" d="M249,67.1c-0.1,0.2-0.2,0.4-0.3,0.6h0.8C249.3,67.5,249.1,67.3,249,67.1z"/>
			<path class="st72" d="M255.1,62.4h-0.7h-6.6h-5.2c-1.3,0-2.3,1-2.3,2.3v7.5c0,1.3,1,2.3,2.3,2.3h4.9h7.7c1.3,0,2.3-1,2.3-2.3
				v-2.6v-4.9C257.3,63.5,256.3,62.4,255.1,62.4z M245.4,62.6h2h0.2h3.5c0.5,0,1,0.4,1,1c0,0,0,0,0,0c0,0.5-0.4,1-1,1H251h-3.1h-0.4
				h-2c-0.5,0-1-0.4-1-1S244.9,62.6,245.4,62.6z M251.6,69.7h-3.8h-2.7c-0.3,0-0.5-0.2-0.5-0.5v-0.9c0-0.3,0.2-0.5,0.5-0.5h3.5
				c0.1-0.2,0.2-0.4,0.3-0.6c0.2,0.2,0.3,0.4,0.5,0.6h2.2c0.3,0,0.5,0.2,0.5,0.5v0.9c0,0.1,0,0.1,0,0.2
				C252,69.5,251.8,69.7,251.6,69.7z"/>
			<path class="st71" d="M273.6,66.9C273.6,66.9,273.6,66.9,273.6,66.9L273.6,66.9C273.5,66.9,273.6,66.9,273.6,66.9z"/>
			<path class="st71" d="M271.5,64.5c0.9,0.5,1.6,1.3,2.1,2.3h0c-0.3-1.1-1.1-1.9-1.7-2.3h-0.3C271.5,64.5,271.5,64.5,271.5,64.5z"
				/>
			<path class="st71" d="M268.8,74.2L268.8,74.2C268.8,74.2,268.8,74.2,268.8,74.2c-2.8,0-5-2.1-5.2-4.8c0-0.1,0-0.3,0-0.4
				c0-1.7,0.8-3.1,2-4.1c0.8-0.6,1.7-1,2.7-1.1c0.2,0,0.4,0,0.5,0c1,0,1.9,0.3,2.7,0.7c0,0,0.1,0,0.1,0h0.3
				c-0.3-0.3-0.6-0.4-0.6-0.4v-1.7c0,0,0.8-0.1,0.8-1.3c0-1.2-0.9-1.6-0.9-1.6h-2.6v3.2l-0.3,0.3l-0.6,0.7c0,0-1.3,0.4-2.2,1.1
				c0,0,0,0,0,0c-0.5,0.3-0.9,0.8-1.2,1.2c-0.3,0.3-0.4,0.6-0.4,0.6h-1.4h-1v3v2c0,0,1.7,0,2,0c0.3,0,1.2,1.4,1.4,1.8
				c0.2,0.4,0.1,1.2-0.4,2c-0.6,0.8-1.4,0.8-1.4,0.8s-2.8-0.1-2.8,0.4c0,0.6,1.1,0.6,1.1,0.6s2.4,0.1,3.1-0.2s2.7-2.9,2.7-2.9
				s0.6,0.2,1.7,0.2c0,0,0,0,0,0c0,0,0,0,0,0c0.7,0,1.5-0.1,2.4-0.6c0.8-0.4,1.6-1,1.9-1.9C272.2,73.3,270.6,74.2,268.8,74.2z"/>
			<path class="st71" d="M259.1,62.4h-4.1c1.3,0,2.3,1,2.3,2.3v4.9v2.6c0,1.3-1,2.3-2.3,2.3h4.1c1.3,0,2.3-1,2.3-2.3v-0.5v-2v-3
				v-1.9C261.4,63.5,260.4,62.4,259.1,62.4z"/>
			<path class="st72" d="M273.1,72c0.2-0.3,0.3-0.6,0.5-0.9c-0.1,0.2-0.2,0.4-0.3,0.5C273.2,71.7,273.2,71.8,273.1,72z"/>
			<path class="st72" d="M273.6,66.9C273.6,66.9,273.5,66.9,273.6,66.9L273.6,66.9c-0.5-1-1.2-1.8-2.1-2.4c-0.8-0.5-1.7-0.7-2.7-0.7
				c-0.2,0-0.4,0-0.5,0c-1,0.1-2,0.5-2.7,1.1c-1.2,1-2,2.4-2,4.1c0,0.1,0,0.3,0,0.4c0.2,2.7,2.5,4.8,5.2,4.8c0,0,0,0,0,0
				c1.8,0,3.4-0.9,4.3-2.3c0-0.1,0.1-0.2,0.1-0.4c-0.7,0.9-1.9,1.6-3.2,1.6c-0.4,0-0.8-0.1-1.2-0.2c-1.6-0.5-2.8-2-2.8-3.8
				c0-0.4,0.1-0.8,0.2-1.2c0.1-0.5,0.4-0.9,0.7-1.3c0.2-0.3,0.5-0.6,0.8-0.8c0.7-0.5,1.5-0.8,2.4-0.8c0.2,0,0.4,0,0.5,0
				c1.2,0.2,2.2,0.8,2.8,1.7c0.1,0.1,0.2,0.3,0.2,0.4c0.1,0.2,0.2,0.3,0.2,0.5C273.8,67.5,273.7,67.2,273.6,66.9z"/>
			<path class="st76" d="M273.9,67.8c-0.1-0.2-0.1-0.4-0.2-0.5c-0.1-0.1-0.2-0.3-0.2-0.4c-0.6-0.9-1.6-1.6-2.8-1.7
				c-0.2,0-0.4,0-0.5,0c-0.9,0-1.7,0.3-2.4,0.8c-0.3,0.2-0.6,0.5-0.8,0.8c-0.3,0.4-0.5,0.8-0.7,1.3c-0.1,0.4-0.2,0.8-0.2,1.2
				c0,1.8,1.2,3.3,2.8,3.8c0.4,0.1,0.8,0.2,1.2,0.2c1.3,0,2.4-0.6,3.2-1.6c0.1-0.2,0.2-0.3,0.3-0.5c0.3-0.6,0.5-1.2,0.5-2
				C274.1,68.6,274,68.2,273.9,67.8z M270.7,71.4c-1.3,0-2.3-1-2.3-2.3c0-0.3,0.1-0.7,0.2-1c-0.2-0.2-0.3-0.5-0.3-0.8
				c0-0.6,0.5-1.1,1.1-1.1c0.4,0,0.8,0.2,1,0.6c0.1,0,0.2,0,0.3,0c1.3,0,2.3,1,2.3,2.3C273,70.4,271.9,71.4,270.7,71.4z"/>
			<path class="st77" d="M270.4,66.9c0.1,0.2,0.1,0.3,0.1,0.5c0,0.6-0.5,1.1-1.1,1.1c-0.3,0-0.6-0.1-0.8-0.3c-0.1,0.3-0.2,0.6-0.2,1
				c0,1.3,1,2.3,2.3,2.3c1.3,0,2.3-1,2.3-2.3c0-1.3-1-2.3-2.3-2.3C270.6,66.8,270.5,66.9,270.4,66.9z"/>
			<path class="st3" d="M270.4,66.9c-0.2-0.4-0.6-0.6-1-0.6c-0.6,0-1.1,0.5-1.1,1.1c0,0.3,0.1,0.6,0.3,0.8c0.2,0.2,0.5,0.3,0.8,0.3
				c0.6,0,1.1-0.5,1.1-1.1C270.5,67.2,270.4,67,270.4,66.9z"/>
			<path class="st76" d="M247.7,62.6h-0.2C247.5,62.6,247.6,62.7,247.7,62.6L247.7,62.6z"/>
			<path class="st76" d="M247.4,64.6h0.4c0,0,0,0,0-0.1C247.7,64.6,247.6,64.6,247.4,64.6z"/>
			<path class="st76" d="M252.1,63.6C252.1,63.6,252.1,63.6,252.1,63.6c0-0.5-0.4-1-1-1h-3.5v0c0.4,0.1,0.8,0.5,0.8,1
				c0,0.4-0.3,0.8-0.6,0.9c0,0,0,0,0,0.1h3.1C251.3,64.3,251.7,63.9,252.1,63.6z"/>
			<path class="st76" d="M251.2,64.6c0.5,0,1-0.4,1-1c-0.4,0.3-0.8,0.6-1.2,1H251.2z"/>
			<path class="st71" d="M245.2,67.7c-0.3,0-0.5,0.2-0.5,0.5v0.9c0,0.3,0.2,0.5,0.5,0.5h2.7c0.2-0.7,0.5-1.3,0.8-2H245.2z"/>
			<path class="st71" d="M249.5,67.7h-0.8c-0.3,0.6-0.6,1.3-0.8,2h3.8c0.2,0,0.4-0.1,0.5-0.3C251.1,69,250.2,68.4,249.5,67.7z"/>
			<path class="st71" d="M252.1,68.2c0-0.3-0.2-0.5-0.5-0.5h-2.2c0.7,0.7,1.6,1.3,2.6,1.7c0-0.1,0-0.1,0-0.2V68.2z"/>
			<path class="st77" d="M247.7,63.3v-0.6c-0.1,0-0.2,0-0.2,0h-2c-0.5,0-1,0.4-1,1c0,0.5,0.4,1,1,1h2c0.1,0,0.3,0,0.4-0.1
				C247.7,64.1,247.7,63.7,247.7,63.3z"/>
			<path class="st77" d="M247.8,64.5c0.4-0.1,0.6-0.5,0.6-0.9c0-0.5-0.3-0.8-0.8-1v0.6C247.7,63.7,247.7,64.1,247.8,64.5z"/>
		</g>
	</g>
</g>
</svg>
