<?xml version="1.0" encoding="utf-8"?>
<!-- Generator: Adobe Illustrator 22.1.0, SVG Export Plug-In . SVG Version: 6.00 Build 0)  -->
<svg version="1.1" id="레이어_1" xmlns="http://www.w3.org/2000/svg" xmlns:xlink="http://www.w3.org/1999/xlink" x="0px"
	 y="0px" viewBox="0 0 388.8 203.5" style="enable-background:new 0 0 388.8 203.5;" xml:space="preserve">
<style type="text/css">
	.st0{fill:#F5F5F5;}
	.st1{clip-path:url(#SVGID_2_);fill:#5B82FF;}
	.st2{opacity:0.75;clip-path:url(#SVGID_4_);fill:#2459FF;enable-background:new    ;}
	.st3{clip-path:url(#SVGID_6_);fill:#3B68F7;}
	.st4{clip-path:url(#SVGID_8_);fill:#3B68F7;}
	.st5{clip-path:url(#SVGID_10_);fill:#3B68F7;}
	.st6{clip-path:url(#SVGID_12_);fill:#3B68F7;}
</style>
<rect class="st0" width="388.8" height="203.5"/>
<g>
	<g>
		<g>
			<defs>
				<rect id="SVGID_1_" x="114.3" y="25.3" width="160.2" height="163.5"/>
			</defs>
			<clipPath id="SVGID_2_">
				<use xlink:href="#SVGID_1_"  style="overflow:visible;"/>
			</clipPath>
			<path class="st1" d="M194.9,90.8c-17.7,0-32.2,13.9-33.2,31.3c-0.1,1,0.8,1.8,1.8,1.8h62.8c1,0,1.8-0.8,1.8-1.8
				C227.1,104.7,212.6,90.8,194.9,90.8z"/>
		</g>
		<g>
			<defs>
				<rect id="SVGID_3_" x="114.3" y="25.3" width="160.2" height="163.5"/>
			</defs>
			<clipPath id="SVGID_4_">
				<use xlink:href="#SVGID_3_"  style="overflow:visible;"/>
			</clipPath>
			<path class="st2" d="M164.4,57.6h30.5h30.5c1.5,0,2.8,1.3,2.6,2.7c-1.4,16.4-14.7,29.5-31.3,30.4V124h-33.2c-1,0-1.8-0.8-1.8-1.8
				V59.4c0-1,0.8-1.8,1.8-1.8H164.4z"/>
		</g>
		<g>
			<defs>
				<rect id="SVGID_5_" x="114.3" y="25.3" width="160.2" height="163.5"/>
			</defs>
			<clipPath id="SVGID_6_">
				<use xlink:href="#SVGID_5_"  style="overflow:visible;"/>
			</clipPath>
			<path class="st3" d="M172.7,150.2h2.6v-11.5h4.4v-2.4c-4.1,0-7.4,0-11.4,0v2.4h4.4L172.7,150.2L172.7,150.2z"/>
		</g>
		<g>
			<defs>
				<rect id="SVGID_7_" x="114.3" y="25.3" width="160.2" height="163.5"/>
			</defs>
			<clipPath id="SVGID_8_">
				<use xlink:href="#SVGID_7_"  style="overflow:visible;"/>
			</clipPath>
			<path class="st4" d="M186.9,138.4c3.3,0,4.6,2.6,4.5,5c0,2.3-1.3,4.7-4.5,4.7s-4.5-2.5-4.5-4.7
				C182.2,141,183.6,138.4,186.9,138.4z M186.9,136.1c-4.8,0-7.2,3.7-7.2,7.4c0,3.6,2.3,7.2,7.2,7.2s7.1-3.6,7.2-7.2
				C194,139.7,191.7,136.1,186.9,136.1z"/>
		</g>
		<g>
			<defs>
				<rect id="SVGID_9_" x="114.3" y="25.3" width="160.2" height="163.5"/>
			</defs>
			<clipPath id="SVGID_10_">
				<use xlink:href="#SVGID_9_"  style="overflow:visible;"/>
			</clipPath>
			<rect x="197.8" y="142.7" class="st5" width="7.4" height="2.3"/>
		</g>
		<g>
			<defs>
				<rect id="SVGID_11_" x="114.3" y="25.3" width="160.2" height="163.5"/>
			</defs>
			<clipPath id="SVGID_12_">
				<use xlink:href="#SVGID_11_"  style="overflow:visible;"/>
			</clipPath>
			<path class="st6" d="M215.7,136.3c-2.2,0-4.4,0-6.6,0v14c2.2,0,4.4,0,6.6,0c2.9,0,5.2-1,5.2-4.1c0-0.9-0.6-2.6-2.3-3.1
				c1.3-0.5,1.8-1.6,1.8-2.7C220.5,137.5,218.5,136.3,215.7,136.3z M211.7,138.7h4c1.6,0,2.2,1.1,2.2,1.7c0,0.8-0.5,1.5-2.2,1.5h-4
				V138.7z M211.7,144.2h4c1.1,0,2.6,0.6,2.6,1.9s-1.5,1.6-2.6,1.6h-4V144.2z"/>
		</g>
	</g>
</g>
<g id="레이어_1_1_">
</g>
</svg>
