<svg width="389" height="204" viewBox="0 0 389 204" fill="none" xmlns="http://www.w3.org/2000/svg">
<rect width="388.8" height="203.5" fill="#F5F5F5"/>
<circle cx="302.133" cy="119.799" r="3.97987" fill="#333333"/>
<path d="M193.176 123.779V97.682C193.176 95.7868 193.824 94.1759 195.12 92.8493C196.453 91.4848 198.045 90.8025 199.897 90.8025H218.003V95.4647H199.897C199.304 95.4647 198.786 95.6921 198.341 96.1469C197.934 96.5639 197.73 97.0756 197.73 97.682V123.779H193.176Z" fill="#333333"/>
<path d="M221.598 123.779V97.682C221.598 95.7868 222.246 94.1759 223.542 92.8493C224.875 91.4848 226.467 90.8025 228.318 90.8025H246.425V95.4647H228.318C227.726 95.4647 227.207 95.6921 226.763 96.1469C226.356 96.5639 226.152 97.0756 226.152 97.682V123.779H221.598Z" fill="#333333"/>
<path d="M250.13 123.779V80H254.685V104.959H263.571L276.235 90.8025H282.233V90.8594L267.626 107.291L282.178 123.722V123.779H276.235L263.571 109.622H254.685V123.779H250.13Z" fill="#333333"/>
<path d="M180.926 119.117H82V123.779H180.926C182.814 123.779 184.407 123.115 185.703 121.789C187.036 120.424 187.702 118.794 187.702 116.899V111.839C187.702 109.944 187.036 108.333 185.703 107.006C184.407 105.642 182.814 104.96 180.926 104.96H161.597C161.005 104.96 160.487 104.751 160.042 104.334C159.635 103.879 159.431 103.349 159.431 102.742V97.6822C159.431 97.0757 159.635 96.564 160.042 96.1471C160.487 95.6922 161.005 95.4648 161.597 95.4648H180.926C181.518 95.4648 182.018 95.6922 182.426 96.1471C182.87 96.564 183.092 97.0757 183.092 97.6822V98.137H187.702V97.6822C187.702 95.787 187.036 94.1761 185.703 92.8495C184.407 91.4849 182.814 90.8027 180.926 90.8027H161.597C159.746 90.8027 158.154 91.4849 156.821 92.8495C155.525 94.1761 154.877 95.787 154.877 97.6822V102.742C154.877 104.637 155.525 106.267 156.821 107.632C158.154 108.958 159.746 109.622 161.597 109.622H180.926C181.518 109.622 182.018 109.849 182.426 110.304C182.87 110.721 183.092 111.233 183.092 111.839V116.899C183.092 117.506 182.87 118.036 182.426 118.491C182.018 118.908 181.518 119.117 180.926 119.117Z" fill="#333333"/>
<rect x="278.254" y="119.799" width="23.8792" height="3.97987" fill="#333333"/>
<circle cx="375" cy="14" r="4" fill="#6CFFA7"/>
</svg>
