<?xml version="1.0" encoding="utf-8"?>
<!-- Generator: Adobe Illustrator 22.1.0, SVG Export Plug-In . SVG Version: 6.00 Build 0)  -->
<svg version="1.1" xmlns="http://www.w3.org/2000/svg" xmlns:xlink="http://www.w3.org/1999/xlink" x="0px" y="0px"
	 viewBox="0 0 388.8 203.5" style="enable-background:new 0 0 388.8 203.5;" xml:space="preserve">
<style type="text/css">
	.st0{fill:#242628;}
	.st1{fill:none;}
	.st2{fill:#FAFAFA;}
	.st3{fill:#FFFFFF;}
	.st4{clip-path:url(#SVGID_2_);}
	.st5{clip-path:url(#SVGID_4_);fill:#EBEBEB;}
	.st6{clip-path:url(#SVGID_6_);}
	.st7{clip-path:url(#SVGID_8_);fill:#F5F5F5;}
	.st8{clip-path:url(#SVGID_10_);}
	.st9{clip-path:url(#SVGID_12_);fill:#F5F5F5;}
	.st10{clip-path:url(#SVGID_14_);}
	.st11{clip-path:url(#SVGID_16_);fill:#F5F5F5;}
	.st12{clip-path:url(#SVGID_18_);}
	.st13{clip-path:url(#SVGID_20_);fill:#F5F5F5;}
	.st14{clip-path:url(#SVGID_22_);}
	.st15{clip-path:url(#SVGID_24_);fill:#F5F5F5;}
	.st16{clip-path:url(#SVGID_26_);}
	.st17{clip-path:url(#SVGID_28_);enable-background:new    ;}
	.st18{clip-path:url(#SVGID_30_);}
	.st19{clip-path:url(#SVGID_32_);fill:#573F35;}
	.st20{opacity:9.750000e-02;clip-path:url(#SVGID_34_);enable-background:new    ;}
	.st21{clip-path:url(#SVGID_36_);}
	.st22{clip-path:url(#SVGID_38_);}
	.st23{clip-path:url(#SVGID_42_);}
	.st24{clip-path:url(#SVGID_44_);fill:#C0ABA2;}
	.st25{clip-path:url(#SVGID_46_);}
	.st26{clip-path:url(#SVGID_48_);enable-background:new    ;}
	.st27{clip-path:url(#SVGID_50_);}
	.st28{clip-path:url(#SVGID_52_);fill:#573F35;}
	.st29{opacity:9.750000e-02;clip-path:url(#SVGID_54_);enable-background:new    ;}
	.st30{clip-path:url(#SVGID_56_);}
	.st31{clip-path:url(#SVGID_58_);}
	.st32{clip-path:url(#SVGID_62_);}
	.st33{clip-path:url(#SVGID_64_);fill:#C0ABA2;}
	.st34{fill:#004598;}
	.st35{fill:#63AA98;}
	.st36{fill:#FFFFFF;stroke:#333333;stroke-width:0.5817;stroke-miterlimit:10;}
	.st37{fill:none;stroke:#333333;stroke-width:1.1769;stroke-linecap:round;stroke-linejoin:round;stroke-miterlimit:10;}
	.st38{fill:none;stroke:#333333;stroke-width:0.7078;stroke-linecap:round;stroke-linejoin:round;}
	.st39{fill:none;stroke:#333333;stroke-width:0.3539;stroke-linecap:round;stroke-linejoin:round;stroke-miterlimit:10;}
	.st40{fill:none;stroke:#333333;stroke-width:0.7078;stroke-linecap:round;stroke-linejoin:round;stroke-miterlimit:10;}
	.st41{fill:none;stroke:#333333;stroke-width:0.177;stroke-linecap:round;stroke-linejoin:round;stroke-miterlimit:10;}
	.st42{fill:none;stroke:#333333;stroke-width:0.2574;stroke-linecap:round;stroke-linejoin:round;stroke-miterlimit:10;}
	.st43{fill:#333333;}
	
		.st44{clip-path:url(#SVGID_66_);fill:none;stroke:#333333;stroke-width:0.2584;stroke-linecap:round;stroke-linejoin:round;stroke-miterlimit:10;}
	
		.st45{clip-path:url(#SVGID_68_);fill:none;stroke:#333333;stroke-width:0.2584;stroke-linecap:round;stroke-linejoin:round;stroke-miterlimit:10;}
	.st46{fill:#1A4698;}
	.st47{clip-path:url(#SVGID_70_);}
	.st48{clip-path:url(#SVGID_72_);enable-background:new    ;}
	.st49{clip-path:url(#SVGID_74_);}
	.st50{clip-path:url(#SVGID_76_);fill:#EADCD7;}
	.st51{opacity:9.750000e-02;clip-path:url(#SVGID_78_);enable-background:new    ;}
	.st52{clip-path:url(#SVGID_80_);}
	.st53{clip-path:url(#SVGID_82_);}
	.st54{clip-path:url(#SVGID_86_);}
	.st55{clip-path:url(#SVGID_88_);fill:#957C71;}
	.st56{fill:#F5F5F5;}
	.st57{fill:#FF5058;}
	.st58{fill:#76D0D1;}
	.st59{fill:#1AA6C8;}
	.st60{fill:#F7CF6B;}
	.st61{fill:#DC3A65;}
	.st62{fill:#189358;}
	.st63{fill:#DD3B65;}
	.st64{fill:#FFFFFF;stroke:#000000;stroke-width:0.5226;stroke-miterlimit:10;}
	.st65{fill:#1A1A1A;}
	.st66{fill:#560B01;}
	.st67{fill:#6A0B08;}
	.st68{fill:#366D59;}
	.st69{fill:#284763;}
	.st70{fill:#EEECE9;}
	.st71{fill:#958E8B;}
	.st72{fill:#161113;}
	.st73{fill:#1D1619;}
	.st74{fill:#E6AA54;}
	.st75{fill:#FE8A29;}
	.st76{fill:#4D7465;}
	.st77{fill:#A6DDDB;}
	.st78{fill:#55AED0;}
	.st79{fill:none;stroke:#333333;stroke-width:1.8612;stroke-linecap:round;stroke-linejoin:round;stroke-miterlimit:10;}
	.st80{fill:#FFFFFF;stroke:#333333;stroke-width:2;stroke-miterlimit:10;}
	.st81{fill:none;stroke:#333333;stroke-width:0.5597;stroke-linecap:round;stroke-linejoin:round;stroke-miterlimit:10;}
	.st82{fill:none;stroke:#333333;stroke-width:1.1194;stroke-linecap:round;stroke-linejoin:round;stroke-miterlimit:10;}
	.st83{fill:none;stroke:#333333;stroke-width:0.4071;stroke-linecap:round;stroke-linejoin:round;stroke-miterlimit:10;}
	
		.st84{clip-path:url(#SVGID_94_);fill:none;stroke:#333333;stroke-width:0.4087;stroke-linecap:round;stroke-linejoin:round;stroke-miterlimit:10;}
	
		.st85{clip-path:url(#SVGID_96_);fill:none;stroke:#333333;stroke-width:0.4087;stroke-linecap:round;stroke-linejoin:round;stroke-miterlimit:10;}
	.st86{fill:#242628;stroke:#333333;stroke-linecap:round;stroke-miterlimit:10;}
	.st87{fill:#76D0D1;stroke:#FAFAFA;stroke-width:7;stroke-miterlimit:10;}
	.st88{fill:#F70000;}
	.st89{opacity:0.8;}
	.st90{fill:#957C71;}
	.st91{fill:#EB6B36;}
	.st92{fill:#EC9369;}
	.st93{fill:#4F7645;}
	.st94{fill:#AD8454;}
	.st95{fill:#7E5426;}
	.st96{fill:#FFFFFF;stroke:#000000;stroke-width:0.5531;stroke-miterlimit:10;}
	.st97{fill:#CE3556;}
	.st98{fill:#4FA9BB;}
	.st99{fill:#F1BD5A;}
	.st100{clip-path:url(#SVGID_100_);}
	.st101{clip-path:url(#SVGID_102_);}
	.st102{clip-path:url(#SVGID_104_);fill:#957C71;}
	.st103{clip-path:url(#SVGID_100_);fill:#957C71;}
	.st104{clip-path:url(#SVGID_106_);}
	.st105{clip-path:url(#SVGID_108_);}
	.st106{clip-path:url(#SVGID_110_);fill:#603F33;}
	.st107{clip-path:url(#SVGID_106_);fill:#603F33;}
	.st108{fill:#EA5D4E;}
	.st109{fill:#F9918A;}
	.st110{fill:#020202;}
	.st111{fill:#DB9B2C;}
	.st112{fill:#E5BB53;}
	.st113{fill:#F4D983;}
	.st114{fill:#E9BE5D;}
	.st115{clip-path:url(#SVGID_112_);}
	.st116{clip-path:url(#SVGID_114_);}
	.st117{clip-path:url(#SVGID_116_);}
	.st118{clip-path:url(#SVGID_118_);enable-background:new    ;}
	.st119{clip-path:url(#SVGID_120_);}
	.st120{clip-path:url(#SVGID_122_);fill:#EADCD7;}
	.st121{opacity:9.750000e-02;clip-path:url(#SVGID_124_);enable-background:new    ;}
	.st122{clip-path:url(#SVGID_126_);}
	.st123{clip-path:url(#SVGID_128_);}
	.st124{clip-path:url(#SVGID_132_);}
	.st125{clip-path:url(#SVGID_134_);fill:#957C71;}
</style>
<g id="레이어_2">
	<rect y="-7.6" class="st56" width="388.8" height="218.7"/>
	<g>
		<g>
			<path class="st58" d="M125.6,116.6v-6.1c4.2,2.2,9.5,3.6,15.3,3.6c8,0,11.5-3.7,11.5-9.4c0-5.1-2.3-7.3-8.6-9.5l-5.7-1.9
				c-7.3-2.4-11.8-6.4-11.8-14.9c0-8.6,5.9-14.7,17.3-14.7c6.6,0,10.3,1.5,13.3,3v6c-3.3-1.5-7.6-2.9-13.6-2.9c-6.3,0-9.8,2.9-9.8,8
				c0,5,1.6,7.2,7.5,9.1l5.6,1.9c8.1,2.6,13.1,6.3,13.1,15.4c0,9.7-5.6,16.1-18.4,16.1C134.3,120.2,129.2,118.7,125.6,116.6z"/>
			<path class="st58" d="M171.7,64.6h7.2v23.3h26.3V64.6h7.2v54.6h-7.2V93.9h-26.3v25.3h-7.2V64.6z"/>
			<path class="st58" d="M227.6,64.6H245c12.1,0,18.2,5.9,18.2,16.3c0,11.1-7.2,16.8-17.5,16.8h-11v21.5h-7.2V64.6z M244.2,91.7
				c8.1,0,11.4-3.3,11.4-10.3c0-7.6-3.1-10.7-11.2-10.7h-9.6v21H244.2z"/>
		</g>
		<g>
			<path class="st58" d="M125.6,139.1v-1.2c0.8,0.4,1.9,0.7,3,0.7c1.6,0,2.3-0.7,2.3-1.9c0-1-0.4-1.4-1.7-1.9l-1.1-0.4
				c-1.4-0.5-2.3-1.3-2.3-2.9c0-1.7,1.2-2.9,3.4-2.9c1.3,0,2,0.3,2.6,0.6v1.2c-0.6-0.3-1.5-0.6-2.7-0.6c-1.2,0-1.9,0.6-1.9,1.6
				c0,1,0.3,1.4,1.5,1.8l1.1,0.4c1.6,0.5,2.6,1.2,2.6,3c0,1.9-1.1,3.2-3.6,3.2C127.3,139.8,126.3,139.5,125.6,139.1z"/>
			<path class="st58" d="M134,131.7h1.3v0.7h0.1c0.7-0.5,1.5-0.9,2.4-0.9c0.9,0,1.5,0.3,1.9,0.9h0.1c0.8-0.5,1.8-0.9,2.6-0.9
				c1.4,0,2.2,0.7,2.2,2.2v5.9h-1.3V134c0-0.9-0.3-1.3-1.4-1.3c-0.6,0-1.2,0.2-1.9,0.5c0,0.1,0,0.3,0,0.5v5.9h-1.4V134
				c0-0.9-0.3-1.3-1.4-1.3c-0.6,0-1.3,0.2-1.9,0.5v6.4H134V131.7z"/>
			<path class="st58" d="M146.3,137.5c0-1.4,0.9-2.1,2.4-2.3l2.1-0.3v-0.7c0-1.2-0.5-1.5-2-1.5c-0.8,0-1.4,0.1-1.9,0.2v-1
				c0.7-0.3,1.5-0.4,2.4-0.4c1.8,0,2.8,0.8,2.8,2.4v5.8h-1.1l-0.1-0.7h-0.1c-0.4,0.4-1,0.8-2.1,0.8
				C147.3,139.8,146.3,139.1,146.3,137.5z M150.8,138.2V136l-1.8,0.2c-0.9,0.1-1.3,0.5-1.3,1.3c0,0.8,0.6,1.2,1.4,1.2
				C149.8,138.7,150.5,138.5,150.8,138.2z"/>
			<path class="st58" d="M154.3,131.7h1.3v0.9h0.1c0.4-0.5,1.3-1,2.2-1c0.2,0,0.4,0,0.5,0.1v1.2c-0.2,0-0.5,0-0.6,0
				c-0.8,0-1.5,0.2-2.1,0.6v6.2h-1.4V131.7z"/>
			<path class="st58" d="M160.4,137.8v-5h-1.1v-1.1h1.1v-1.9h1.4v1.9h2v1.1h-2v4.8c0,0.8,0.3,1,1.2,1c0.3,0,0.7,0,1-0.1v0.9
				c-0.3,0.1-0.7,0.3-1.4,0.3C161.2,139.7,160.4,139.2,160.4,137.8z"/>
			<path class="st58" d="M169.9,128.9h1.4v4.6h5.2v-4.6h1.4v10.8h-1.4v-5h-5.2v5h-1.4V128.9z"/>
			<path class="st58" d="M179.8,135.8v-0.2c0-2.8,1.7-4,3.5-4c2.2,0,3.2,1.3,3.2,3.8v0.8h-5.3c0.1,1.9,1,2.6,2.6,2.6
				c1.1,0,1.8-0.2,2.5-0.6v1c-0.5,0.4-1.4,0.8-2.7,0.8C181.1,139.8,179.8,138.2,179.8,135.8z M181.2,134.9h3.9
				c0-1.7-0.6-2.3-1.8-2.3C182.4,132.6,181.4,133.1,181.2,134.9z"/>
			<path class="st58" d="M187.7,137.5c0-1.4,0.9-2.1,2.4-2.3l2.1-0.3v-0.7c0-1.2-0.5-1.5-2-1.5c-0.8,0-1.4,0.1-1.9,0.2v-1
				c0.7-0.3,1.5-0.4,2.4-0.4c1.8,0,2.8,0.8,2.8,2.4v5.8h-1.1l-0.1-0.7h-0.1c-0.4,0.4-1,0.8-2.1,0.8
				C188.8,139.8,187.7,139.1,187.7,137.5z M192.3,138.2V136l-1.8,0.2c-0.9,0.1-1.3,0.5-1.3,1.3c0,0.8,0.6,1.2,1.4,1.2
				C191.3,138.7,191.9,138.5,192.3,138.2z"/>
			<path class="st58" d="M195.8,128.1h1.4v11.5h-1.4V128.1z"/>
			<path class="st58" d="M199.8,137.8v-5h-1.1v-1.1h1.1v-1.9h1.4v1.9h2v1.1h-2v4.8c0,0.8,0.3,1,1.2,1c0.3,0,0.7,0,1-0.1v0.9
				c-0.3,0.1-0.7,0.3-1.4,0.3C200.7,139.7,199.8,139.2,199.8,137.8z"/>
			<path class="st58" d="M204.9,128.1h1.4v4.2h0.1c0.6-0.4,1.6-0.8,2.6-0.8c1.6,0,2.3,0.7,2.3,2.2v5.9H210V134
				c0-0.9-0.3-1.3-1.6-1.3c-0.7,0-1.5,0.3-2.1,0.5v6.4h-1.4V128.1z"/>
			<path class="st58" d="M212.9,135.8v-0.3c0-2.8,1.7-4.1,3.8-4.1c1,0,1.6,0.2,2.2,0.5v1.1c-0.7-0.3-1.2-0.5-2.3-0.5
				c-1.4,0-2.3,0.9-2.3,2.7v0.4c0,2,0.8,2.8,2.4,2.8c1.1,0,1.8-0.4,2.2-0.6v1.1c-0.5,0.3-1.3,0.6-2.4,0.6
				C214.4,139.8,212.9,138.5,212.9,135.8z"/>
			<path class="st58" d="M220,137.5c0-1.4,0.9-2.1,2.4-2.3l2.1-0.3v-0.7c0-1.2-0.5-1.5-2-1.5c-0.8,0-1.4,0.1-1.9,0.2v-1
				c0.7-0.3,1.5-0.4,2.4-0.4c1.8,0,2.8,0.8,2.8,2.4v5.8h-1.1l-0.1-0.7h-0.1c-0.4,0.4-1,0.8-2.1,0.8C221.1,139.8,220,139.1,220,137.5
				z M224.5,138.2V136l-1.8,0.2c-0.9,0.1-1.3,0.5-1.3,1.3c0,0.8,0.6,1.2,1.4,1.2C223.5,138.7,224.2,138.5,224.5,138.2z"/>
			<path class="st58" d="M228,131.7h1.3v0.9h0.1c0.4-0.5,1.3-1,2.2-1c0.2,0,0.4,0,0.5,0.1v1.2c-0.2,0-0.5,0-0.6,0
				c-0.8,0-1.5,0.2-2.1,0.6v6.2H228V131.7z"/>
			<path class="st58" d="M233,135.8v-0.2c0-2.8,1.7-4,3.5-4c2.2,0,3.2,1.3,3.2,3.8v0.8h-5.3c0.1,1.9,1,2.6,2.6,2.6
				c1.1,0,1.8-0.2,2.5-0.6v1c-0.5,0.4-1.4,0.8-2.7,0.8C234.3,139.8,233,138.2,233,135.8z M234.4,134.9h3.9c0-1.7-0.6-2.3-1.8-2.3
				C235.5,132.6,234.5,133.1,234.4,134.9z"/>
			<path class="st58" d="M245.9,128.9h3.4c2.4,0,3.6,1.2,3.6,3.2c0,2.2-1.4,3.3-3.5,3.3h-2.2v4.3h-1.4V128.9z M249.1,134.2
				c1.6,0,2.2-0.7,2.2-2c0-1.5-0.6-2.1-2.2-2.1h-1.9v4.1H249.1z"/>
			<path class="st58" d="M253.8,137.5c0-1.4,0.9-2.1,2.4-2.3l2.1-0.3v-0.7c0-1.2-0.5-1.5-2-1.5c-0.8,0-1.4,0.1-1.9,0.2v-1
				c0.7-0.3,1.5-0.4,2.4-0.4c1.8,0,2.8,0.8,2.8,2.4v5.8h-1.1l-0.1-0.7h-0.1c-0.4,0.4-1,0.8-2.1,0.8
				C254.8,139.8,253.8,139.1,253.8,137.5z M258.3,138.2V136l-1.8,0.2c-0.9,0.1-1.3,0.5-1.3,1.3c0,0.8,0.6,1.2,1.4,1.2
				C257.3,138.7,258,138.5,258.3,138.2z"/>
			<path class="st58" d="M261.8,128.1h1.4v11.5h-1.4V128.1z"/>
		</g>
	</g>
</g>
<g id="레이어_1">
</g>
</svg>
