<?xml version="1.0" encoding="utf-8"?>
<!-- Generator: Adobe Illustrator 22.1.0, SVG Export Plug-In . SVG Version: 6.00 Build 0)  -->
<svg version="1.1" xmlns="http://www.w3.org/2000/svg" xmlns:xlink="http://www.w3.org/1999/xlink" x="0px" y="0px"
	 viewBox="0 0 388.8 203.5" style="enable-background:new 0 0 388.8 203.5;" xml:space="preserve">
<style type="text/css">
	.st0{fill:#242628;}
	.st1{fill:none;}
	.st2{fill:#FAFAFA;}
	.st3{fill:#FFFFFF;}
	.st4{clip-path:url(#SVGID_2_);}
	.st5{clip-path:url(#SVGID_4_);fill:#EBEBEB;}
	.st6{clip-path:url(#SVGID_6_);}
	.st7{clip-path:url(#SVGID_8_);fill:#F5F5F5;}
	.st8{clip-path:url(#SVGID_10_);}
	.st9{clip-path:url(#SVGID_12_);fill:#F5F5F5;}
	.st10{clip-path:url(#SVGID_14_);}
	.st11{clip-path:url(#SVGID_16_);fill:#F5F5F5;}
	.st12{clip-path:url(#SVGID_18_);}
	.st13{clip-path:url(#SVGID_20_);fill:#F5F5F5;}
	.st14{clip-path:url(#SVGID_22_);}
	.st15{clip-path:url(#SVGID_24_);fill:#F5F5F5;}
	.st16{clip-path:url(#SVGID_26_);}
	.st17{clip-path:url(#SVGID_28_);enable-background:new    ;}
	.st18{clip-path:url(#SVGID_30_);}
	.st19{clip-path:url(#SVGID_32_);fill:#573F35;}
	.st20{opacity:9.750000e-02;clip-path:url(#SVGID_34_);enable-background:new    ;}
	.st21{clip-path:url(#SVGID_36_);}
	.st22{clip-path:url(#SVGID_38_);}
	.st23{clip-path:url(#SVGID_42_);}
	.st24{clip-path:url(#SVGID_44_);fill:#C0ABA2;}
	.st25{clip-path:url(#SVGID_46_);}
	.st26{clip-path:url(#SVGID_48_);enable-background:new    ;}
	.st27{clip-path:url(#SVGID_50_);}
	.st28{clip-path:url(#SVGID_52_);fill:#573F35;}
	.st29{opacity:9.750000e-02;clip-path:url(#SVGID_54_);enable-background:new    ;}
	.st30{clip-path:url(#SVGID_56_);}
	.st31{clip-path:url(#SVGID_58_);}
	.st32{clip-path:url(#SVGID_62_);}
	.st33{clip-path:url(#SVGID_64_);fill:#C0ABA2;}
	.st34{fill:#004598;}
	.st35{fill:#63AA98;}
	.st36{fill:#FFFFFF;stroke:#333333;stroke-width:0.5817;stroke-miterlimit:10;}
	.st37{fill:none;stroke:#333333;stroke-width:1.1769;stroke-linecap:round;stroke-linejoin:round;stroke-miterlimit:10;}
	.st38{fill:none;stroke:#333333;stroke-width:0.7078;stroke-linecap:round;stroke-linejoin:round;}
	.st39{fill:none;stroke:#333333;stroke-width:0.3539;stroke-linecap:round;stroke-linejoin:round;stroke-miterlimit:10;}
	.st40{fill:none;stroke:#333333;stroke-width:0.7078;stroke-linecap:round;stroke-linejoin:round;stroke-miterlimit:10;}
	.st41{fill:none;stroke:#333333;stroke-width:0.177;stroke-linecap:round;stroke-linejoin:round;stroke-miterlimit:10;}
	.st42{fill:none;stroke:#333333;stroke-width:0.2574;stroke-linecap:round;stroke-linejoin:round;stroke-miterlimit:10;}
	.st43{fill:#333333;}
	
		.st44{clip-path:url(#SVGID_66_);fill:none;stroke:#333333;stroke-width:0.2584;stroke-linecap:round;stroke-linejoin:round;stroke-miterlimit:10;}
	
		.st45{clip-path:url(#SVGID_68_);fill:none;stroke:#333333;stroke-width:0.2584;stroke-linecap:round;stroke-linejoin:round;stroke-miterlimit:10;}
	.st46{fill:#1A4698;}
	.st47{clip-path:url(#SVGID_70_);}
	.st48{clip-path:url(#SVGID_72_);enable-background:new    ;}
	.st49{clip-path:url(#SVGID_74_);}
	.st50{clip-path:url(#SVGID_76_);fill:#EADCD7;}
	.st51{opacity:9.750000e-02;clip-path:url(#SVGID_78_);enable-background:new    ;}
	.st52{clip-path:url(#SVGID_80_);}
	.st53{clip-path:url(#SVGID_82_);}
	.st54{clip-path:url(#SVGID_86_);}
	.st55{clip-path:url(#SVGID_88_);fill:#957C71;}
	.st56{fill:#F5F5F5;}
	.st57{fill:#FF5058;}
	.st58{fill:#76D0D1;}
	.st59{fill:#1AA6C8;}
	.st60{fill:#F7CF6B;}
	.st61{fill:#DC3A65;}
	.st62{fill:#189358;}
	.st63{fill:#DD3B65;}
	.st64{fill:#FFFFFF;stroke:#000000;stroke-width:0.5226;stroke-miterlimit:10;}
	.st65{fill:#1A1A1A;}
	.st66{fill:#560B01;}
	.st67{fill:#6A0B08;}
	.st68{fill:#366D59;}
	.st69{fill:#284763;}
	.st70{fill:#EEECE9;}
	.st71{fill:#958E8B;}
	.st72{fill:#161113;}
	.st73{fill:#1D1619;}
	.st74{fill:#E6AA54;}
	.st75{fill:#FE8A29;}
	.st76{fill:#4D7465;}
	.st77{fill:#A6DDDB;}
	.st78{fill:#55AED0;}
	.st79{fill:none;stroke:#333333;stroke-width:1.8612;stroke-linecap:round;stroke-linejoin:round;stroke-miterlimit:10;}
	.st80{fill:#FFFFFF;stroke:#333333;stroke-width:2;stroke-miterlimit:10;}
	.st81{fill:none;stroke:#333333;stroke-width:0.5597;stroke-linecap:round;stroke-linejoin:round;stroke-miterlimit:10;}
	.st82{fill:none;stroke:#333333;stroke-width:1.1194;stroke-linecap:round;stroke-linejoin:round;stroke-miterlimit:10;}
	.st83{fill:none;stroke:#333333;stroke-width:0.4071;stroke-linecap:round;stroke-linejoin:round;stroke-miterlimit:10;}
	
		.st84{clip-path:url(#SVGID_96_);fill:none;stroke:#333333;stroke-width:0.4087;stroke-linecap:round;stroke-linejoin:round;stroke-miterlimit:10;}
	
		.st85{clip-path:url(#SVGID_98_);fill:none;stroke:#333333;stroke-width:0.4087;stroke-linecap:round;stroke-linejoin:round;stroke-miterlimit:10;}
	.st86{fill:#242628;stroke:#333333;stroke-linecap:round;stroke-miterlimit:10;}
	.st87{fill:#76D0D1;stroke:#FAFAFA;stroke-width:7;stroke-miterlimit:10;}
	.st88{fill:#F70000;}
	.st89{opacity:0.8;}
	.st90{fill:#957C71;}
	.st91{fill:#EB6B36;}
	.st92{fill:#EC9369;}
	.st93{fill:#4F7645;}
	.st94{fill:#AD8454;}
	.st95{fill:#7E5426;}
	.st96{fill:#FFFFFF;stroke:#000000;stroke-width:0.5531;stroke-miterlimit:10;}
	.st97{fill:#CE3556;}
	.st98{fill:#4FA9BB;}
	.st99{fill:#F1BD5A;}
	.st100{clip-path:url(#SVGID_102_);}
	.st101{clip-path:url(#SVGID_104_);}
	.st102{clip-path:url(#SVGID_106_);fill:#957C71;}
	.st103{clip-path:url(#SVGID_102_);fill:#957C71;}
	.st104{clip-path:url(#SVGID_108_);}
	.st105{clip-path:url(#SVGID_110_);}
	.st106{clip-path:url(#SVGID_112_);fill:#603F33;}
	.st107{clip-path:url(#SVGID_108_);fill:#603F33;}
	.st108{fill:#EA5D4E;}
	.st109{fill:#F9918A;}
	.st110{fill:#020202;}
	.st111{fill:#DB9B2C;}
	.st112{fill:#E5BB53;}
	.st113{fill:#F4D983;}
	.st114{fill:#E9BE5D;}
	.st115{clip-path:url(#SVGID_114_);}
	.st116{clip-path:url(#SVGID_116_);}
	.st117{clip-path:url(#SVGID_118_);}
	.st118{clip-path:url(#SVGID_120_);enable-background:new    ;}
	.st119{clip-path:url(#SVGID_122_);}
	.st120{clip-path:url(#SVGID_124_);fill:#EADCD7;}
	.st121{opacity:9.750000e-02;clip-path:url(#SVGID_126_);enable-background:new    ;}
	.st122{clip-path:url(#SVGID_128_);}
	.st123{clip-path:url(#SVGID_130_);}
	.st124{clip-path:url(#SVGID_134_);}
	.st125{clip-path:url(#SVGID_136_);fill:#957C71;}
</style>
<g id="레이어_2">
	<rect y="-7.6" class="st56" width="388.8" height="218.7"/>
	<g>
		<g>
			<g>
				<path class="st46" d="M190,129.1c0,0,4.6-2.4,7.7-5.5c3.1-3.1,5-7.2,5-7.2l1,13.6L190,129.1z"/>
			</g>
			<g>
				<path class="st46" d="M203.6,132.4h-24.8c-1.3,0-2.3-1-2.3-2.3c0-1.3,1-2.3,2.3-2.3h22.6v-21.5c0-1.3,1-2.3,2.3-2.3
					s2.3,1,2.3,2.3v23.8C205.8,131.4,204.8,132.4,203.6,132.4z"/>
			</g>
		</g>
		<g>
			<path class="st43" d="M156.4,118.9c-0.6,0-1.2-0.2-1.6-0.7c-8.8-9.1-8.3-23.3,1.2-33.8c9.9-11,22.9-12.7,33.9-4.5
				c1,0.8,1.2,2.2,0.5,3.2c-0.8,1-2.2,1.2-3.2,0.5c-9.1-6.8-19.5-5.3-27.8,3.9c-7.8,8.7-8.3,20.3-1.3,27.6c0.9,0.9,0.8,2.3-0.1,3.2
				C157.5,118.7,156.9,118.9,156.4,118.9z"/>
		</g>
		<g>
			<circle class="st43" cx="166.8" cy="94.5" r="2.2"/>
		</g>
		<g>
			<circle class="st43" cx="178.1" cy="94.5" r="2.2"/>
		</g>
		<path class="st43" d="M229.9,130.9c-0.8,0.8-1.8,1.2-2.9,1.2c-1.2,0-2.2-0.4-2.9-1.2c-0.7-0.8-1.1-1.7-1.1-2.9V78.5
			c0-1.1,0.4-2,1.2-2.8c0.8-0.8,1.8-1.2,3-1.2c1.1,0,2,0.4,2.8,1.2c0.8,0.8,1.2,1.7,1.2,2.8V128
			C231.1,129.2,230.7,130.2,229.9,130.9z"/>
		<path class="st56" d="M227,133.4c-1.6,0-2.9-0.5-3.9-1.6c-1-1-1.5-2.3-1.5-3.8V78.5c0-1.5,0.5-2.7,1.5-3.7c1-1,2.3-1.5,3.9-1.5
			c1.4,0,2.7,0.5,3.7,1.5c1.1,1,1.6,2.3,1.6,3.7V128c0,1.5-0.6,2.8-1.6,3.8l0,0C229.7,132.9,228.5,133.4,227,133.4z M227.1,75.8
			c-0.9,0-1.5,0.3-2,0.8c-0.5,0.5-0.8,1.1-0.8,1.9V128c0,0.8,0.2,1.4,0.7,2c0.5,0.5,1.1,0.8,2,0.8c0.8,0,1.4-0.3,2-0.8l0,0
			c0.6-0.5,0.8-1.1,0.8-1.9V78.5c0-0.7-0.3-1.3-0.8-1.9C228.5,76.1,227.9,75.8,227.1,75.8z"/>
		<g>
			<path class="st43" d="M289.7,78.7c3.6,2.6,6.4,6,8.2,10.3c1.8,4.3,2.8,9.1,2.8,14.4c0,5.3-0.9,10.2-2.8,14.5
				c-1.8,4.3-4.6,7.8-8.2,10.3c-3.6,2.5-8,3.8-13.2,3.8h-20.1c-1.1,0-2-0.4-2.8-1.1c-0.8-0.8-1.1-1.7-1.1-2.8V78.8
				c0-1.1,0.4-2,1.1-2.8c0.8-0.8,1.7-1.1,2.8-1.1h20.1C281.7,74.9,286.1,76.2,289.7,78.7z M288.3,118.6c2.8-3.9,4.2-9,4.2-15.1
				c0-6.1-1.4-11.1-4.2-15.1c-2.8-4-7-6-12.5-6h-15.1v42.1h15.1C281.3,124.6,285.5,122.6,288.3,118.6z"/>
			<path class="st43" d="M262.3,81.1c0,0-3,0.1-3,3c0,2.9,0-3.2,0-3.2"/>
			<path class="st43" d="M262.3,125.9c0,0-3-0.1-3-3c0-2.9,0,3.2,0,3.2"/>
		</g>
		<path class="st43" d="M139.2,75.8c0.8,0.7,1.2,1.6,1.2,2.6c0,0.5-0.1,1.1-0.4,1.8l-20.8,49.3c-0.4,0.8-0.9,1.4-1.6,1.9
			c-0.7,0.4-1.4,0.7-2.2,0.7c-0.7-0.1-1.4-0.3-2-0.7c-0.6-0.4-1.1-1-1.5-1.8L90.9,80.3c-0.2-0.4-0.3-1-0.3-1.7
			c0-1.1,0.4-2.1,1.2-2.8c0.8-0.7,1.7-1.1,2.7-1.1c1.6,0,2.8,0.9,3.6,2.6l17.8,42.1l16.8-42.2c0.4-0.8,0.9-1.4,1.5-1.8
			c0.6-0.4,1.3-0.7,2.1-0.7C137.4,74.8,138.4,75.1,139.2,75.8z"/>
		<path class="st56" d="M115.3,133.4L115.3,133.4c-1-0.1-1.9-0.4-2.7-0.9c-0.8-0.5-1.5-1.3-2-2.3l0-0.1L89.7,80.8
			c-0.3-0.6-0.4-1.4-0.4-2.3c0-1.5,0.6-2.8,1.7-3.8c1-0.9,2.2-1.4,3.5-1.4c1.5,0,3.6,0.6,4.8,3.4l16.6,39.2l15.7-39.3
			c0.5-1,1.1-1.7,1.9-2.3c0.8-0.6,1.8-0.9,2.8-0.9c1.4,0,2.7,0.5,3.7,1.4c1.1,0.9,1.6,2.2,1.6,3.6c0,0.7-0.2,1.5-0.5,2.3L120.3,130
			c-0.5,1.1-1.2,1.9-2.2,2.5C117.3,133.1,116.3,133.4,115.3,133.4z M112.9,129.1c0.3,0.5,0.6,0.9,1,1.2c0.4,0.3,0.9,0.4,1.3,0.5
			c0.5,0,1-0.2,1.5-0.5c0.5-0.3,0.9-0.7,1.1-1.3l20.8-49.2c0.2-0.5,0.3-0.9,0.3-1.3c0-0.7-0.2-1.2-0.7-1.6l0,0
			c-0.5-0.5-1.2-0.7-1.9-0.7c-0.5,0-0.9,0.1-1.3,0.4c-0.4,0.3-0.8,0.7-1.1,1.3l-18,45.1l-19-45c-0.7-1.6-1.7-1.8-2.4-1.8
			c-0.7,0-1.3,0.2-1.8,0.7c-0.5,0.5-0.8,1-0.8,1.8c0,0.6,0.1,1,0.2,1.1l0,0.1L112.9,129.1z"/>
		<g>
			<polygon class="st43" points="132.9,80.3 115.2,122.2 117.3,124.3 			"/>
			<path class="st43" d="M113,116.2c0,0,2.2,5.8,4.6,0s-2.3,6.9-2.3,6.9"/>
		</g>
		<path class="st56" d="M276.6,133.4h-20.1c-1.5,0-2.7-0.5-3.7-1.5c-1-1-1.5-2.2-1.5-3.7V78.8c0-1.4,0.5-2.7,1.5-3.7
			c1-1,2.3-1.5,3.7-1.5h20.1c5.4,0,10,1.4,13.9,4.1c3.8,2.7,6.8,6.4,8.7,10.9c1.9,4.5,2.9,9.5,2.9,14.9c0,5.5-1,10.5-2.9,15
			c-1.9,4.5-4.9,8.2-8.7,10.8C286.6,132,281.9,133.4,276.6,133.4z M256.5,76.2c-0.7,0-1.3,0.2-1.9,0.8c-0.5,0.5-0.8,1.1-0.8,1.9
			v49.3c0,0.7,0.2,1.3,0.8,1.9c0.5,0.5,1.1,0.8,1.9,0.8h20.1c4.8,0,9-1.2,12.4-3.6c3.4-2.4,6.1-5.7,7.8-9.7c1.8-4.2,2.7-8.9,2.7-14
			c0-5.1-0.9-9.7-2.7-13.9c-1.7-4.1-4.4-7.4-7.8-9.8c-3.4-2.4-7.6-3.6-12.4-3.6H256.5z M275.8,125.9h-16.4V81.1h16.4
			c5.9,0,10.5,2.2,13.5,6.5c2.9,4.2,4.4,9.5,4.4,15.9c0,6.4-1.5,11.8-4.4,15.9C286.3,123.7,281.7,125.9,275.8,125.9z M262,123.3
			h13.8c5.1,0,8.9-1.8,11.4-5.4l0,0c2.6-3.7,3.9-8.5,3.9-14.4c0-5.8-1.3-10.6-4-14.4c-2.6-3.6-6.3-5.4-11.4-5.4H262V123.3z"/>
	</g>
</g>
<g id="레이어_1">
</g>
</svg>
