<?xml version="1.0" encoding="utf-8"?>
<!-- Generator: Adobe Illustrator 22.1.0, SVG Export Plug-In . SVG Version: 6.00 Build 0)  -->
<svg version="1.1" xmlns="http://www.w3.org/2000/svg" xmlns:xlink="http://www.w3.org/1999/xlink" x="0px" y="0px"
	 viewBox="0 0 388.8 203.5" style="enable-background:new 0 0 388.8 203.5;" xml:space="preserve">
<style type="text/css">
	.st0{fill:#242628;}
	.st1{fill:none;}
	.st2{fill:#FAFAFA;}
	.st3{fill:#FFFFFF;}
	.st4{clip-path:url(#SVGID_2_);}
	.st5{clip-path:url(#SVGID_4_);fill:#EBEBEB;}
	.st6{clip-path:url(#SVGID_6_);}
	.st7{clip-path:url(#SVGID_8_);fill:#F5F5F5;}
	.st8{clip-path:url(#SVGID_10_);}
	.st9{clip-path:url(#SVGID_12_);fill:#F5F5F5;}
	.st10{clip-path:url(#SVGID_14_);}
	.st11{clip-path:url(#SVGID_16_);fill:#F5F5F5;}
	.st12{clip-path:url(#SVGID_18_);}
	.st13{clip-path:url(#SVGID_20_);fill:#F5F5F5;}
	.st14{clip-path:url(#SVGID_22_);}
	.st15{clip-path:url(#SVGID_24_);fill:#F5F5F5;}
	.st16{clip-path:url(#SVGID_26_);}
	.st17{clip-path:url(#SVGID_28_);enable-background:new    ;}
	.st18{clip-path:url(#SVGID_30_);}
	.st19{clip-path:url(#SVGID_32_);fill:#573F35;}
	.st20{opacity:9.750000e-02;clip-path:url(#SVGID_34_);enable-background:new    ;}
	.st21{clip-path:url(#SVGID_36_);}
	.st22{clip-path:url(#SVGID_38_);}
	.st23{clip-path:url(#SVGID_42_);}
	.st24{clip-path:url(#SVGID_44_);fill:#C0ABA2;}
	.st25{clip-path:url(#SVGID_46_);}
	.st26{clip-path:url(#SVGID_48_);enable-background:new    ;}
	.st27{clip-path:url(#SVGID_50_);}
	.st28{clip-path:url(#SVGID_52_);fill:#573F35;}
	.st29{opacity:9.750000e-02;clip-path:url(#SVGID_54_);enable-background:new    ;}
	.st30{clip-path:url(#SVGID_56_);}
	.st31{clip-path:url(#SVGID_58_);}
	.st32{clip-path:url(#SVGID_62_);}
	.st33{clip-path:url(#SVGID_64_);fill:#C0ABA2;}
	.st34{fill:#004598;}
	.st35{fill:#63AA98;}
	.st36{fill:#FFFFFF;stroke:#333333;stroke-width:0.5817;stroke-miterlimit:10;}
	.st37{fill:none;stroke:#333333;stroke-width:1.1769;stroke-linecap:round;stroke-linejoin:round;stroke-miterlimit:10;}
	.st38{fill:none;stroke:#333333;stroke-width:0.7078;stroke-linecap:round;stroke-linejoin:round;}
	.st39{fill:none;stroke:#333333;stroke-width:0.3539;stroke-linecap:round;stroke-linejoin:round;stroke-miterlimit:10;}
	.st40{fill:none;stroke:#333333;stroke-width:0.7078;stroke-linecap:round;stroke-linejoin:round;stroke-miterlimit:10;}
	.st41{fill:none;stroke:#333333;stroke-width:0.177;stroke-linecap:round;stroke-linejoin:round;stroke-miterlimit:10;}
	.st42{fill:none;stroke:#333333;stroke-width:0.2574;stroke-linecap:round;stroke-linejoin:round;stroke-miterlimit:10;}
	.st43{fill:#333333;}
	
		.st44{clip-path:url(#SVGID_66_);fill:none;stroke:#333333;stroke-width:0.2584;stroke-linecap:round;stroke-linejoin:round;stroke-miterlimit:10;}
	
		.st45{clip-path:url(#SVGID_68_);fill:none;stroke:#333333;stroke-width:0.2584;stroke-linecap:round;stroke-linejoin:round;stroke-miterlimit:10;}
	.st46{fill:#1A4698;}
	.st47{clip-path:url(#SVGID_70_);}
	.st48{clip-path:url(#SVGID_72_);enable-background:new    ;}
	.st49{clip-path:url(#SVGID_74_);}
	.st50{clip-path:url(#SVGID_76_);fill:#EADCD7;}
	.st51{opacity:9.750000e-02;clip-path:url(#SVGID_78_);enable-background:new    ;}
	.st52{clip-path:url(#SVGID_80_);}
	.st53{clip-path:url(#SVGID_82_);}
	.st54{clip-path:url(#SVGID_86_);}
	.st55{clip-path:url(#SVGID_88_);fill:#957C71;}
	.st56{fill:#F5F5F5;}
	.st57{fill:#FF5058;}
	.st58{clip-path:url(#SVGID_90_);fill:#5B82FF;}
	.st59{opacity:0.75;clip-path:url(#SVGID_90_);fill-rule:evenodd;clip-rule:evenodd;fill:#2459FF;}
	.st60{clip-path:url(#SVGID_90_);fill:#3B68F7;}
	.st61{fill:#1AA6C8;}
	.st62{fill:#F7CF6B;}
	.st63{fill:#DC3A65;}
	.st64{fill:#189358;}
	.st65{fill:#DD3B65;}
	.st66{fill:#FFFFFF;stroke:#000000;stroke-width:0.5226;stroke-miterlimit:10;}
	.st67{fill:#1A1A1A;}
	.st68{fill:#560B01;}
	.st69{fill:#6A0B08;}
	.st70{fill:#366D59;}
	.st71{fill:#284763;}
	.st72{fill:#EEECE9;}
	.st73{fill:#958E8B;}
	.st74{fill:#161113;}
	.st75{fill:#1D1619;}
	.st76{fill:#E6AA54;}
	.st77{fill:#FE8A29;}
	.st78{fill:#4D7465;}
	.st79{fill:#A6DDDB;}
	.st80{fill:#55AED0;}
	.st81{fill:none;stroke:#333333;stroke-width:1.8612;stroke-linecap:round;stroke-linejoin:round;stroke-miterlimit:10;}
	.st82{fill:#FFFFFF;stroke:#333333;stroke-width:2;stroke-miterlimit:10;}
	.st83{fill:none;stroke:#333333;stroke-width:0.5597;stroke-linecap:round;stroke-linejoin:round;stroke-miterlimit:10;}
	.st84{fill:none;stroke:#333333;stroke-width:1.1194;stroke-linecap:round;stroke-linejoin:round;stroke-miterlimit:10;}
	.st85{fill:none;stroke:#333333;stroke-width:0.4071;stroke-linecap:round;stroke-linejoin:round;stroke-miterlimit:10;}
	
		.st86{clip-path:url(#SVGID_96_);fill:none;stroke:#333333;stroke-width:0.4087;stroke-linecap:round;stroke-linejoin:round;stroke-miterlimit:10;}
	
		.st87{clip-path:url(#SVGID_98_);fill:none;stroke:#333333;stroke-width:0.4087;stroke-linecap:round;stroke-linejoin:round;stroke-miterlimit:10;}
	.st88{fill:#242628;stroke:#333333;stroke-linecap:round;stroke-miterlimit:10;}
	.st89{fill:#76D0D1;stroke:#FAFAFA;stroke-width:7;stroke-miterlimit:10;}
	.st90{fill:#F70000;}
	.st91{fill:#E5E5E5;}
	.st92{fill:#957C71;}
	.st93{fill:#EB6B36;}
	.st94{fill:#EC9369;}
	.st95{fill:#4F7645;}
	.st96{fill:#AD8454;}
	.st97{fill:#7E5426;}
	.st98{fill:#FFFFFF;stroke:#000000;stroke-width:0.5531;stroke-miterlimit:10;}
	.st99{fill:#CE3556;}
	.st100{fill:#4FA9BB;}
	.st101{fill:#F1BD5A;}
	.st102{clip-path:url(#SVGID_102_);}
	.st103{clip-path:url(#SVGID_104_);}
	.st104{clip-path:url(#SVGID_106_);fill:#957C71;}
	.st105{clip-path:url(#SVGID_102_);fill:#957C71;}
	.st106{clip-path:url(#SVGID_108_);}
	.st107{clip-path:url(#SVGID_110_);}
	.st108{clip-path:url(#SVGID_112_);fill:#603F33;}
	.st109{clip-path:url(#SVGID_108_);fill:#603F33;}
	.st110{fill:#EA5D4E;}
	.st111{fill:#F9918A;}
	.st112{fill:#020202;}
	.st113{fill:#DB9B2C;}
	.st114{fill:#E5BB53;}
	.st115{fill:#F4D983;}
	.st116{fill:#E9BE5D;}
	.st117{clip-path:url(#SVGID_114_);}
	.st118{clip-path:url(#SVGID_116_);}
	.st119{clip-path:url(#SVGID_118_);}
	.st120{clip-path:url(#SVGID_120_);enable-background:new    ;}
	.st121{clip-path:url(#SVGID_122_);}
	.st122{clip-path:url(#SVGID_124_);fill:#EADCD7;}
	.st123{opacity:9.750000e-02;clip-path:url(#SVGID_126_);enable-background:new    ;}
	.st124{clip-path:url(#SVGID_128_);}
	.st125{clip-path:url(#SVGID_130_);}
	.st126{clip-path:url(#SVGID_134_);}
	.st127{clip-path:url(#SVGID_136_);fill:#957C71;}
</style>
<g id="레이어_2">
	<rect y="-7.6" class="st56" width="388.8" height="218.7"/>
	<g>
		<g>
			<defs>
				<rect id="SVGID_89_" x="106.2" y="17" width="176.5" height="180.1"/>
			</defs>
			<clipPath id="SVGID_2_">
				<use xlink:href="#SVGID_89_"  style="overflow:visible;"/>
			</clipPath>
			<path style="clip-path:url(#SVGID_2_);fill:#5B82FF;" d="M194.9,89.2c-19.5,0-35.5,15.3-36.6,34.5c-0.1,1.1,0.9,2,2,2h69.2
				c1.1,0,2-0.9,2-2C230.4,104.5,214.4,89.2,194.9,89.2z"/>
			<path style="opacity:0.75;clip-path:url(#SVGID_2_);fill-rule:evenodd;clip-rule:evenodd;fill:#2459FF;" d="M161.3,52.6h33.6
				h33.6c1.7,0,3.1,1.4,2.9,3c-1.5,18.1-16.2,32.5-34.5,33.5v36.6h-36.6c-1.1,0-2-0.9-2-2V54.6c0-1.1,0.9-2,2-2H161.3z"/>
			<path style="clip-path:url(#SVGID_2_);fill:#3B68F7;" d="M170.5,154.6h2.9v-12.7h4.9v-2.6c-4.5,0-8.2,0-12.6,0v2.6h4.9V154.6z"/>
			<path style="clip-path:url(#SVGID_2_);fill:#3B68F7;" d="M186.1,141.6c3.6,0,5.1,2.9,5,5.5c0,2.5-1.4,5.2-5,5.2
				c-3.6,0-5-2.7-5-5.2C181,144.5,182.5,141.6,186.1,141.6z M186.1,139c-5.3,0-7.9,4.1-7.9,8.1s2.5,7.9,7.9,7.9s7.8-4,7.9-7.9
				C194,143,191.4,139,186.1,139z"/>
			<rect x="198.1" y="146.3" style="clip-path:url(#SVGID_2_);fill:#3B68F7;" width="8.1" height="2.5"/>
			<path style="clip-path:url(#SVGID_2_);fill:#3B68F7;" d="M217.9,139.3c-2.4,0-4.9,0-7.3,0v15.4c2.4,0,4.8,0,7.3,0
				c3.2,0,5.7-1.1,5.7-4.5c0-1-0.7-2.9-2.5-3.4c1.4-0.6,2-1.8,2-3C223.1,140.6,220.9,139.3,217.9,139.3z M213.4,141.9h4.4
				c1.8,0,2.4,1.2,2.4,1.9c0,0.9-0.6,1.6-2.4,1.6h-4.4V141.9z M213.4,148h4.4c1.2,0,2.9,0.7,2.9,2.1c0,1.4-1.7,1.8-2.9,1.8h-4.4V148
				z"/>
		</g>
	</g>
</g>
<g id="레이어_1">
</g>
</svg>
